<mxfile host="app.diagrams.net" modified="2020-10-26T04:21:40.760Z" agent="5.0 (Windows NT 10.0; Win64; x64) AppleWebKit/537.36 (KHTML, like Gecko) Chrome/86.0.4240.111 Safari/537.36" etag="XIuihlFMxbNPfcDVkUZe" version="13.8.0" type="github">
  <diagram id="-Mbmi06bkyTD3-0fhJa_" name="Page-1">
    <mxGraphModel dx="1422" dy="762" grid="1" gridSize="10" guides="1" tooltips="1" connect="1" arrows="1" fold="1" page="1" pageScale="1" pageWidth="827" pageHeight="1169" math="0" shadow="0">
      <root>
        <mxCell id="0" />
        <mxCell id="1" parent="0" />
        <mxCell id="iTdWAnEVaS_sSDigA3Kt-1" value="" style="rounded=1;whiteSpace=wrap;html=1;" parent="1" vertex="1">
          <mxGeometry x="190" y="210" width="120" height="60" as="geometry" />
        </mxCell>
        <mxCell id="iTdWAnEVaS_sSDigA3Kt-2" value="" style="rounded=1;whiteSpace=wrap;html=1;" parent="1" vertex="1">
          <mxGeometry x="350" y="350" width="120" height="60" as="geometry" />
        </mxCell>
        <mxCell id="iTdWAnEVaS_sSDigA3Kt-3" value="" style="endArrow=none;html=1;entryX=0.5;entryY=1;entryDx=0;entryDy=0;exitX=0;exitY=0.5;exitDx=0;exitDy=0;" parent="1" source="iTdWAnEVaS_sSDigA3Kt-2" target="iTdWAnEVaS_sSDigA3Kt-1" edge="1">
          <mxGeometry width="50" height="50" relative="1" as="geometry">
            <mxPoint x="390" y="420" as="sourcePoint" />
            <mxPoint x="440" y="370" as="targetPoint" />
            <Array as="points">
              <mxPoint x="250" y="380" />
            </Array>
          </mxGeometry>
        </mxCell>
        <mxCell id="_9Z7Xm0_mrDAn36RMkqV-1" value="" style="shape=image;verticalLabelPosition=bottom;labelBackgroundColor=#ffffff;verticalAlign=top;aspect=fixed;imageAspect=0;image=data:image/png,iVBORw0KGgoAAAANSUhEUgAAAvgAAAMaCAYAAADz2TLeAAAgAElEQVR4AexdO5LkOLJMveXSW0959NJXTn30lkfPS7xL5Cn2EDWX2EvwWQAMIhD48wuSXmZlSJL40eEBOIIg+BjwBwSAABAAAkAACAABIAAEgMBlEHhc5k5wI0AACAABIAAEgAAQAAJAAAgMEPggARAAAkAACAABIAAEgAAQuBACEPgXakzcChAAAkAACAABIAAEgAAQgMAHB4AAEAACQAAIAAEgAASAwIUQ6Ejg/wzv52N4PBL/r08A+8/7mYz/fP8E8XECCAABIAAEgAAQAAJAAAhcHYGOBH4G6p/38EwIfAj5DG64BASAABAAAkAACAABIHA7BJTAZy/6cwgc4CSyybv+fA/WN/4ZXlFvu0j78xlewiv/fHHaRpxXFfgt99hYT0QHAkAACAABIAAEgAAQAAIHI5AQ+I9Be8an5TCewBdiPrgROwF4TTOFn+FDS2qm9CrB55VcbmOW7azmwWeBX3OPqo44BAJAAAgAASAABIAAEAACnSMQFfiv93t4ekKcRPFzeL9fQqCTgM8IfOPxfw3+yvlCmhRYJP5XFvh195iqEM4DASAABIAAEAACQAAIAIE+EYgL/I/1ck+amgQ2CX4Ozb2UxProKX++hvfnM/w0vfNKS3vEcp7PK3iiQFWYnirElgpNldfA871xOF7ne+NQJ8MxEAACQAAIAAEgAASAABA4AQIJgT+K51Ekf17jchZP/NolOMGuN1KYD7Qs5zU8n7zbzXN4fWqUfp3An4evE/ZmgpC9x3klIBUQAAJAAAgAASAABIAAEDgKgaTAHwYS8K/hQy/KUkg1DAR+ZolO5I7oCcAzt6xnSqME/nR+jR9O4JfvcY3ykAcQAAJAAAgAASAABIAAENgPgYzAJz3/sN53Xu7SIvC9uO6GKE/ObjpLcWPLbCLnTNrW+FNB9EMK/NI9eglxAASAABAAAkAACAABIAAEukcgK/AH86Ks8NJ7or20Bt8u4Xm+P+O2msPw86GtNkV+h8DjC/z8PR5SQRQKBIAAEAACQAAIAAEgAARmI5AX+DrbQODHvzo7eejVPvgPeuGWl+BHd9nRBW5xrAS+LsK7R30Rx0AACAABIAAEgAAQAAJAoG8ElMDvu7KoHRAAAkAACAABIAAEgAAQAAJ5BCDw8/jgKhAAAkAACAABIAAEgAAQOBUCEPinai5UFggAASAABIAAEAACQAAI5BGAwM/jg6tAAAgAASAABIAAEAACQOBUCHgCv3arSsSLv1zMuJyKAagsEAACQAAIAAEgAASAwKUQCAT+8P4e8D8fAxL5+AMCQAAIAAEgAASAABAAAkch4KlRI04h8BdNcCDwj6IyygUCQAAIAAEgAASAABAgBCDwV57QQODDsIAAEAACQAAIAAEgAASORAACHwL/SP6hbCAABIAAEAACQAAIAIGVEYDA30Dgsxefw5XbDNkBASAABIAAEAACQAAIAIEkAhD4Gwh8QpvFPYfJFsAFIAAEgAAQAAJAAAgAASCwIgKNAv+v4f2V2SLy+QxeUP35/mXELgld/f/8/iuIf/YdfPgeqY0g7ldkKrICAkAACAABIAAEgAAQqEKgUeBnto/883t4JgT+FYV8aiLCol6HsdbgOLFrOAcEgAAQAAJAAAgAASAABOYg0KfAp8nC42v4mOUzz+Glvf9fv4bXq0/vP4l2Fu4cphqmdD2VDueBABAAAkAACAABIAAEgEAKgTaB//oKltmwoDXhWh78QOD/Gt5/xNODP8/h9fUYenwywKJdh7EG4DixazgHBIAAEAACQAAIAAEgAATmINAm8HMvpJL430vgUz28SYAQ/7k67nDNTHTGr9mWBHzp+pwGRRogAASAABAAAkAACACBeyOwQOCTF/338MOi+fUV9ajnXrKNTQjM2nZPvNMSHeXBN2XaF35fr37EPdWdRbsOYzTjOLFrOAcEgAAQAAJAAAgAASAABOYgsLnAT72Mmj1/coHPwp3DVMOUrqfS4TwQAAJAAAgAASAABIAAEEghsJ7AZ0/+GuHJBT6BzeKdw1gD5K7F4uMcEAACQAAIAAEgAASAABAoIVAv8Esv2Iqdbsyymdb4cmJQI/C9OP0s0yHRvvd/qpHXqsda+afywXkgAASAABAAAkAACACB9RCoF/hSgG/92xPvkTX42EVnPQbslBOeVuwENIoBAkAACAABIAAEbo/ASQS+8opjH/zTERcC/3RNhgoDASAABIAAEAACJ0WgT4G/9ROCDfNnIavDGD84Tuza1c7d6V6v1na4HyAABIAAEAACQOBcCEDgryz2SciymOUwRYnS9VS6M56/072esX1QZyAABIAAEAACMQR+3s/w3cLne/ihyJ/X8HybXyLpZ3hl30d8DR8RO/j58x6eIr3M//N6DmFxL1c/rpfJ9Gd4PwtlBYVf5wQE/gYCn+jBgpbDGGVy12Lxz3zuTvd65nZC3YEAEAACQAAISARI4EuRLa/FBb6MQSL7MTw84S2vq99G3EtRbicLr3FGEAh8Fd9MRjjyAIE/oWtE2MqCN7vf/QXLIgxZzHI4Aax+lK6r6Kc+vNO9nrqhUHkgAASAABDoEIFRKD8iHmz2eE8iOuVBF2l/PsOLhPeoWZ6v0SMfufO5At96/scyxzomJwpcbuSJgM2H6yruYRiGsG507zxByAn8Fjy5cucK4cFfeZLBQlaH56IFagsEgAAQAAJAAAj0gwAL0kfgTZ8EsCfwfSHs38foFZ/WuvwMH1qGM6X3Y4ciWlzPCPKYmOe6xq6ZXBP5sVNee/A/r8fA12ytHE528sJiX9TZ/HTxdF24jik8dE69HkPgbyDwIe57pTvqBQSAABDYE4GUJ3UUaeTV9NWJrdxHrCl++AJGC5w97wZlHYmAFaSv93t4ekKczj+H9/slBDrxLiPw1bKWkXTJNCWBb4V0OPGYh5auOx07ka75Hxf4fO+EjUvr16cFTz/lWY4g8DcQ+NT4EPlnMYE71tN2bNwpB2FEcEweDfHiE6fT3o87Iop7BgKzEIgJ/EB8jQJufI9RC5xZ5SLRCREYBemHw/EWaDJIgp9Dc1qLZH274xjwfA3vz2f40e/Iquglge+NAWpyyuNELIwMNbZkYwPxJTma/2HdaOkRLzei+ywI/Co8FSAnOQwEfqwRcI6JVh9S+xNu+AMCp0IgJjii6xxPdVeo7O0RGAVNzKvJYmISBSSOYn09ewXJIOrXLxP0UpR4HseYvSWWKLCIknl5zWruIyVmvJg4OCUCTtgbh8uojolPhhuBwI9weOI4AUDLcl7D88k75DyH1yeu9EMRLQCM8FVcNT+z6XXkwnHAf8V7v6wagW/X8T+yeBYq1ellT4EaQbqyR/uOL9lSW7O457DT9ke1DkPgWMGRvO2Y4Jgt8BNeJNUhJ+uCC0BgNQTY3sJlBEYskaCfxE+Ct1Nd7ATgVbl+mZJJUVIU+IF9UN3d5ELmNVWJfgTpvKs4OD0ClsNWhxIHX8OHJpq8fCUQ+I4zNbdOTwCesQnw2P+Tlgn+qTIZgU9cj6YpVkjcl4ob5b98ajAKdZuMMEtNelvwVJU4ySEE/soTGiYztT/9xh8QiCNgOxfiCHvmON7mgkN2hqlOmyszhr5XRF1MHlInHRlkIESSiOHCVgiMg/kB65fpjqQoCQT+aINeP2BsxIkjqVlkXh5asCsPjusdSEFKnHpY7zuTo0Xge3EdUh433en8r4TAT40ZqfN+IWmB78crHRFmNQK/hGepnD6vewrUCNKVBS88+B7EfbJgh1phsqNBPlZw6NpMx9Tx84AxnYxtRSYuJn9C4CehwYWdEWBxxOFYPAsdDs3pBG+nGts8HpXrlymZFOXyt/G6R+xtKqrlBwR+C1onjKu4a9pbOFCaOEwcJ+fSx36sirz0H/q4lMivFqGLCHz7BEzcv4dnLRh9xfPUJwT+97B0QkIYspjlsK8mP6Y2wELjzp01h+N17lQ4NKfXFxyuNvKFJKNEgicKFHd6qlDp8bf5J+oNIeLgx6+dEHB2Zrg8imrjBaWlNoG9Oe859+luCQ9VuX79MsWWol7+Tgt8W9+pbM/uhAiR6MGuJBoX/O04HL25Gg7LHZnUeyRmwspL8Fu4lBD4VEeyr4DDVRNaOwEJ0saedkXB4JOEWZ0Hn1NMoYfndPZUPyDwV35iQYSkPx2eihUbVJbx2CDrk2bpOusjBIcDrU7gu/gtv3KddKrTbckfcYFALQLO3oaBeLnT+mUSCZ44l4LnObzJa1oleNx9ehMEdxpr8CUW+A0EgMAAgb+BwGcxyyF45iY8wIIROEhwcPFTqAT+dH6NH/Dgr4Ei8lgDAWlv1rNodg9hce156xK85Wp4cfmkzZOzc2cLv8hTGk1k6xufHMCDX0AVl4EAECBHs0TBCNIawfv6Gp7ff/nLWV5fw+P59M9RXn9+D0/hwZDpPs/H8HqllsX8Nby/pLdD/Y6U9fP9K+ktkeUuXYaTS8+iXocS5zv+ZjzueO/xez5IcGQ9ir6NGd3RGt+72YRQann86+WHAyAwFwHf3vLrbRO8nYqm6yutX84K/ManXLCrqYXwAwgAgc0F/nN4PX4N7z8s4q1oZ1GfF/icJhLSpCEh8PcS8imRT0KWxSyHIBo8+CEHOhUcYUUXnEkIJQiRBZgi6TwElL3pTDyvvBXw3JfLcHK2r7V+OSvw/Qm3rIe34w7fC+yKkUAIBIDAXA++8ZR//R5+pLc/5sGPCXHh/e9C4JsnDF/Dx9wLTUhUp/r1a3i91NMKed/qN4t6Hd6dbYzH3XFw99+p4HAVXOEXBP4KICILIAAEgEBydYKc+OG30m9az+18fDRt25fojKKdRL7nLSeBP4LHHvrhvcCDL/LjfL1wLQ9+IPDlEwdaYvQcXl8P/16VqJfefK4jNSz9xp9FAFiACUAACAABIAAE5iFgxtCM9pA6BL8jKz92xq4HzeMp0CKBPDHsL7cZYh58AtSkcbMqOSmY7cFPlBVMOmoa1LsnPSEZSeLFyROHG1WH80z6OqkYj+vcEe4ECAABIAAEgMA+CBT1WY3eQZzwPdGNMOlB89QL/KjIJZE/erwTojs3k6wX+ORFF0uCxDIfmX/uJdvoC8DUsN59JQT+W01mMoSgRuWG5XAf8++7FGDRd/ugdkAACAABINAvAmYMzWgPqYXwO++I3QOfHjRPvcAvESsQ+JH17HL90/M5rC3wZzXaBgKfughuXA777Tb2qRlw2AdnlAIEgECIAPU/+C9jECKHM70gYMbQkg7D9d089CW92YPmmSXwo57yyJp4CcDnqda2v7/nC/w1SbyBwOeG5bCXDuLIegALH33CA//rY+CjjCMgYBEw/c+a48YF80If3be1gMPHe+Wlpi39ZnvS4Z4saxb4RtzHxHzgwfcbo0ngU16VAsi80NsaX3bONQLfi+Pfl25k3Zh8vGej9lgWcPBbxeAheYjfiz0v4JjPMRw5BGBv+XGLxjHYj+NLj7/A4TKHtR478pjai22Kw715tZrATwr/Ubg0Cfw9xY4n3iNr8LGLziqcPIrgq1R+g0wMHnvy/AZlgWMbEPUiWcLeyuII9tM32Uscjq6s4HcXo+8tFpZRP3j78AR3jHZyT2H9DVTCFRtmIxZ23HK9zLhE7zhmyoo5cKf0hbQHjntsTzrck2XNAp9mRFEixbz6AtzzCHxHWGqYB/bBX4WPTPJVMrtAJgYPYR9HehquUjY4dgHD2OgWYG8JkSb6INjPRuRbKdsSh0mXSZHt9etRgS85YTcSeUzCWV6L/PYco3TdThZ4i/RA76n4vkO4VaQ/h9ekN1vTRu5F2ICH2cLz1F5sUxyuRIXqbGYJ/DVBuFpePTRqdevvGPEogu94i01FGTwWdiBXs52l9wOONVHwVpFhb2Vhw/ajw1sRpeObLXF4rsC3DtvR4z565ZMTBR6zIhMGmw87SH0Pflg3mhCw175RpHtlN6bl+u8Qajvi4z0pBoG/ckNzI+pwz0btsSzGo8e6HVEng8fK3FsqkM+enjBlnnF4RNuizP4QgL3VCXy2Gw77a8n71qjE4VBEizb3RLE9z4I8JuZz18w4kcgv5cEPd0wkYc6TAQpZ7Is6m/FRx6O4cvLQt8BnO+Jwb/ZC4K8ssqghuTE53LtReyzvLljU3qeJtzL3zi7Ql9afsddhj/aAOu2LQMneWNBQPPM/LlXgpQZ0ncXLxFO5BlktbeB0U9xxaWuQx3g+JrKmtLIcrp8QRLGyprQNfYy2Gz7et6VQWgoB0x6Z9iSOJnkk1rEn42TyDvmk31eUHnnaIVGK8NiOiSTMOU6DSA8mFg1pm+5PTzTaj9l+dJhq3y3OQ+Cv3Oi6Mfl4i8ZDnv0hUNveJl6Je3JgLwkIGXcUAbIj1x1u2GG3d2C95UGYMv4c9scQ1OgIBEr2lhJHbDehwPcFDl2XH1PkdNJGTJxJoI8TiYityjTmN9m2Z/8kamR6FkrLbBj2cwQz68ucy2HDIS2MheDndk+FsUnpxMuJzz4HNf9D+5IfL60U6VRnzw6I75VpS2PtBtcZT2ph03b1Tb1azEaBrzsW2ck8vA6OO6nZndoGgHOdtgx7aNTV2IGMkgjIdpaRagx5SpvleLuA8Hg9duj0aNSW53fAXtxsPZaJhj3LYex1KNsHv++JgOFEhuehALG8Z6FC1z2howWTERrOxjid5H+Qx1ifVNlT2qjAd0saYmVNaTP3rONou+HjezKmv7uey2HTzgFfw369yMMGLgWcNA4ox1m/rLJIN+NYIO77F/jEIrYjDvdkVqPAD0kxdRLUgNObzS6e35Du/JSugTRnSMONqMM9GxVlbYcAtSu3LZUSO06VLuOaPHLcDzpk6gQzAsJ0oCzmbVjlwfc6XppU+Hm07iJ1pI0G+KYaAudvh0DJ3micYv5ILyELFbouBb4+Jt5zXP2bbcIrQ9mZtFWOP4Vko5640Y421y9MaXJ9S+Ia3z+Rw+B1O5b0fcNNHJb8Il0WjCdOizknkOj7I1ou5Ja/LEdel7YwnZdPDbz88wLf1M+L7+oOD36es50KfN97aQgyCpjX669pSybukFxIHd1fw+f7a3i/JAm+h+H1e3h9P4efROc2kXDhda4LOsk88c541XSwiYrzNQ5lNMkJPm/iZbjWLCACEUD8l0IgIQICga/iNX4HYi07mpMPY69DxhzhfRGosTcpsp0Yt/ag7VEfE1+lqJG/53DZSzOOfXQP7t95Q9cqS9sNH9+XNX3duWmPzJjhcUbHSwh84rHkPeeROs/XbZgW+H48pcV03RYts8lPDtrqUapn23W2Hx3uyao2gS9nYF5nM3Y8kVlWHVE0cErgT+Ke46nrmjCeaKE0hfg6/YJj3Zh8vGejoqxtEMi1JV/jkGpAv+WxrJU5n+FZs4AgzntePrYVGyZFgGcrCTvx4vj5HtmB6rIl3incZRvg930QqLG3mNBhuwnsMRBMJDTc5JjTGY6Wxk0xlsqnBJrfqWOvrEyfkkrP52E/fdtDicPcjtEw4Kvtx1P6LHXez5vGCzfR9K+1jBNLRPqStC11bI/bgz21Cfxc50Gd2CYCn0j0GKznnkFOCBFRPyIo14ce8cQ67/mE5HqEYQ+N2nc3dc7amc61UHVuew5z0U1+gq8BF4MOOSMgKB8jwqWHj34nBIcs1xPvKbuisskGQ74H9ZZ57/yb20iHuXbAtXsgULK3lKBh8UzXff77tiLHG7IJTteTfZTqou2Gj+/BkP7vssThbPsG44nry5ct0dFjjjuu11xLRPqStA6DLHYzxzG2Hx3uybQFAl++BU1LYL6iItp0fMJDQTc7/UcmBBZo7jwpjIlzvp5rICtKnl+/Im9e59Itu6Ybk4/3bNQey5raXLb/jN+peztL/rKe+U7F5/hmAuJiAp/tjcMUX3D+XggYPmQG6nCcspNjFup03Rf4alKtnp5xOmnjYRluLKwSQ4VJvCxrzm/um4gZsJ/+7KPE4TltjjTL9F4Ovx7saXOBnwMgfc0KewLoSduBqc6TP4vMAE6hjmc6ROfFTJe3XiNzXdBJ9tdBLq0RtW3qj6/JkH/H0phrGcFhuCoHdMXtmICIe/FZRCTs4GICn7Bm3DmM4Y9z90Kgyt4i9sh2FhX4kfg8xnA6Ps6GCeeYn4bGxNhyCN8R4KdpG9fYXnR4L6b0e7dzObyEE0jbZkMSL21HfLwnwzzF0kYg5cHPdHbyput+W4FvvRqjJ/6bXq5lsGs7tVSnyPmsH3Ij6nDPRkVZ2yDAbRrLna9xyHHoWJ+ja+bcxOd2HjYJiNySgRqB78Vpr6uz223TSqxjmHObILwfAnPtje1sDYG/zIOfGstqx8Ky7cF++raLuRzeq/9FOb6N9WBP9QK/9UWh1vie2FGdlhEY0gOprntpJcipTlHGWfd3D43adzd17trJ9qU7iR3H7jAaL8nbMidZeNR2qsn4nniP2BV20Yk1J86dDAGyv1pbkfHYbtYS+MEyn6Y+gOyTn8hxKMfFcr8h703/Nhix80GEJ2vqy1Z3Lod1O+N4mZ3U4teDPdUL/KaOaCmAodCw3g9+RBlej4NO8TjN0jrVpe+hUS/bw3V0Y9TO3NayWrFz+vqUdoFNsfCI8z7kajJ+IPBZOIzhF609lk/Pwrxr67B1vAlXiBNJOfxmPiywtzW4m/Pgh8tQ97cz2E/fpmLGloM5vIYd3CWPHuzpNAJ/2tPbvJgb82RYQeJ7SI4R+MYQeVDpu89A7VZGgNu+lC066/UFDGOvw1Jb4Pr1EYC9le1N2w0fX58d57hDcLjM4Z4mD2w/OtyTbZ0K/HM1pCSVbkw+3rNRUdZxCNS2t4kHb8ysZRPS3uRvwpTx5/A4JqDknhCAvZXHVNhPT4wN6wIOlzksx4Ojf/dgTxD4K4usHho17BpwpjcE0Fmv31kbTMWTMz7ure1Rn/0RgL2V7Y3tRYf7txZKjCFA7YL/c2FA7XikPUHgbyDwj27UWOeAc30hYIx+Ze4d7bE4unwe/KT99dXqqM1RCMDe6gT+kWLkKG6cpVxwuMzho8cgWX4P4xEE/soiq4dGPUuHded6orNev7M2mB7sMbkzp3u+d9hb2d5gPz0zePnWylJ84nfZHpZi1IM9NQp8uyc9VTz6H/kybW7ngNzX+2LpphdoaQvOSFlLG2SN9D00at/dFGpHCBierDy5XIO/Z86D+6QJX1ANCIwIwN7Kggb207e5gMNlDvc0fvVgT40CPwMwbbcXEd0k1HNCvrZBfr6/hvefsfzOBb4xRBZxffcZqN1BCKCzzvQlMyc+2u74+KAmRrEdIUBcwH8ZA2oythsOO2rGW1fFtMfMvrFWZyHeeuMS248O9yTxOQS+njx0LvDRSe5J4XOWRUaP/20wkPZ3Tnag1msjYAZZiKPsrlXcH8F+1mbfOvmBw+uJ7z0mMj3YU5vAL32ddgsPvvchHuHBHwXStGynk867h0ZdpztBLlsigM56/c7aYAoP5Ja0PW3esLeyvcF++qY3OFzm8B7CvbaMHuypTeDnRHTCq75kic7nSR6+yJdoE2XVAr9lvB4ate9uCrUjBNBZr99ZE6ba/sA2IAB7q7M12E/ftoIxo47HW+q7lrx7sKcFAv85vL5+Dz8s+l9f0bX2sZdl+cbTL8raL9Um1+53LvCNIbKI67vPQO0OQgCd9fqdtbY7Pj6oiVFsRwjA3sr2xvaiw46a8dZVAYfLHG4R4FvH1XbEx3uSeHOBvzWIveXPjajDPRsVZfWPgOEHT44RZtcG19o4YQq765/7R9QQ9lYWR7CfI5hZX2aew+QU/eU2IomMKbRRyXN69+vX8Pr+S/W7fw2f5y/3btjX1/DhjU04P7NMW5eTK9s6a5lbLtR5lPlZOw70Eo/vlVrYtF19U68Wcz2BzwRYMSSy2Z1z5NMC2qozsmxnxXKXEKSHRl2NHchoMwSMwXfC2SV87yktd6I63KwRkfFpEIC9lQWUths+Pk0jX7yieQ7nRPb3YFZSSMH+hzTVw1t1YZZEP5/TqowfI+Z9rWWXTfvphneu7Ny1Mid7Gl9a68L2o8M9aVov8E1j1+16YV58bY0fETtMJgLoMS0H6pswujH5eM9GRVn9I2B4EeF8ayeC+G6QMP3Ew3ZpsLv+bWDPGlbbm96xjWyUxrJgAwkah3LjoS+MzmCnsJ89GdleVp7DGV1kNiphZ6nrLwd5PraZyft7IA3mNjIZy/j+EnqM8suUnb0m6nLBsbAHe6oX+Ac0QMyDbwj3/Xt4ToK/L5L00KjtXQdS7I1AvrPui9NnECdUR4OpeBzKx3u3LcrrD4G8vaU/4Dg5qwKB79voks0kerEvthcd9tea96xRnsMZkU0T1KhesrwnjhsPf4HjZkJg8tFl6WNpG7lrMt71fms74uM92du5wBcekq/fw/spHg3RjDNK2mOJwo2owz0bFWX1j4DhR2HSLF9Qly+c03nnVRk9jJ430XkPg7hemWlhExsQ3IRb2BjZYXZgoA5e2LH8HbFf76mdjJstw9aHMIXd9c/9I2pYY29GaMe89bFz0o7MWPRreBbWQFshHxE8xntKnlJaE52yF/LA/jV86IOPL2F/VI/X7+H17ZZWzJ0wwH6OYGZ9mXkOR3g1cjQn3qm/pbElF4f5RHF4HOJ0SU5P9pHgc6Tv53KuEvZgT10L/DM2dA+NWt9lIOZRCOQ761G0T50gCXH3iLUs2r+G97d7WcqbDEwdrxIJ3nn5zouLt0R8h7acKsPdZ5jG1SV2zWAKD/5RlO663KK9Gf7zhFdxkAT+OHnUtmSEkWenwgnl2RRzVwmxSdwnrus8THw3gc8vj+A860LYT9cUts4LzYfpWPFqOq/HEsmFFg++PwaZZWsT7zNl33yJDjFK29WeLIPAl4awwm/dmHy8Z6OirP4RMLzI8C3wlottaAOBLwQI5Su/HRHEzZTpRHOD+CbBUeFdd3nzANNQRlWd7YFjqK8AACAASURBVBIdtjcO+2cCargHAiV7mzznxGUtuiMefJ7sskdT8tuIfrLDqF1IMUS/2XMv7KLwJMDkP+bte1I5j3mh7TusJID97MHKtjLyHJa8Uu1v+KwmrdSnyvPmt5w42jwmfo02wRyxIeeZKfvmAp/tiMO2Fl8eGwK/UjzIDjz3mw2AmuaoRl1OC+SwNQKGGxnuBQKfOthxUA9EuxD/zM1JZBgBoTr8TLk2/XN4RcQJixrm+BRG4nI9jKdn9H5O8fl48gC5+gX3XayrS2swFXbHx1u3JfLvHwHDhSSXWGg7LrHgNx77iMCf+D3mSfYWE/s6nvO42zLDNDmxxPWzntfn16/E2mqO1xayveiw/9a9Rw3LHGbBHba7GQ8W7KJj0qt+fhL/WRFfw+ewvqHdnC+OtiM+3pOtEPjJTn8eobgRdbhno6Ks/hEw/MhwLxC6QsRTZ+stFQg8+G6ZQBCXy4ykoTrpf68cTrtK2DiJiEwG9CDAdafWN/j2TwPUcCcEDB9W4W18XCA7C8V6LK4V9lSf55fcHY7juuvMZxNq/kvv60r3xeXBfnYiZWMx1D66z3PHCd4IUT5nH3y7TblbyuPKk0t/cmUnrs1yPLGNnCPswZ4aBb5taK54EAoyMRHMzC8iHChttkOMPhJyj5ACAbRSJ8f1nhsyJugkG3uvm0UnnmQ5RgJ8GtT99Y9J0b7IBuJLZkwdV5oMePUWTySyODTck8FUiHs+vhm1cLsRBIr2RjzL8Twytknetgp8O/aNnnjvg0MkiNKeWFcmxXPjoTs/X/ywvegwAidOHYBAFYcb+ss1OIM80vam7YiP96ROo8BP34xZzxXpBOs7PpU3CYBJ4NA1Pbmo6QRVnjuQnxtRh3s2KsrqHwHDjwIfyXYoHv3LybAnlMc8ZFxOw2GdFz4j8IN6ki22i4tYvdccIPh+qfXpN/6AACNg+BDwWI0P4imZx0sS/nJsy00ElDMrtD0l4ANPvLqerPM2Ap/thkPGD+HxCFRxOMkXxXXEyzvYVsCH2ovtiMO9WeSNgosIlPDI0aAuxYnXceZAjAp8Jyrgwd+bKihvTQSW2FqLUK6PWxL4UtTL35mBo1IIGRHUEjfRb3AnqsM12w15nROBKnurFfgJ/tWNbaGAJxt1L8aH1+P5biPwqXVhP31yvIrDi7iZ6cuRb/OEQNsRH+/JrjaBXxqEpZdjJMS6Al+uEYYHf0+ioKx1EVjSWdeLdvsBk9CLGOvIWwR+LP3x5whT7kQ5XLfVkNtZEaiyt9z4Fhnb4sK7ZAcxAT8+nTZl0HU5zrnfvh1vI/DZbjg8a3tfsd5VHIYQbxbi8+y4ZOd97OrWJvBz5KHOMdIJLhL4QUcHD/4VO6473tOSzvo4ge/EBtXf/Tu73KqzrMnXYAoP5B3NqXjPS+ythntXiAP7KdLo0AglDtO4QHG8f17mHH06lZ5M2jwK/bpZXubKkys1oiss5ASa62U0ZeGJcLTuLk1qPIzu+hbRqFvZrmmvg8ejBQJfefyijTB+AlmTjo8XgB0lUG4CstO1Hhr10F4IhVchYHiyEye36sB6y9cOSrZLYzusagxEujwCsLdzeBwvT8QFN1jicNaZmtBnrg8fnyJ5wjvDGSPu5QTAThb4KVOgz1R8MxmZ9J8T664+ouxo3V2amMBPYZE6Hy134fjcw3i0ucDfArie8+yhURf0IUi6EwKlzrpnjvdaN4PpwR6TneiDYhoRgL0JwZQQLrCfRlLtHL3E4ax4jYpkywlK9+Cdm0avvPTGR/v7SH42H/bo+0uow7rJJWZOrNeWZTddsRMMypsnFpw+LM/da/HeEvbBedeGPdjTegJ/JVAC8NRjIAJtIuNWZS7It4dG3bnfQXEzECh11oEdLODkXfKyfQM8+DPoePkksLc6ga/Hr8sT40Q3WOJwStSa/j8jyGOCl/Ki8mLXcvmx0NYefFouw9fseDQ+MeDVHLktXyN1Lwl8KqOHJTpH21O9wJfrp6ZG4dmaH5qGbI0fFTBylic7KDrvzxAtaWScY35Tgx7dqCfqs25bVcORKOeP4W0v9rOkHtru+Pi2JMONTwjk7c0uL6A4+t8IHHIyTcsJhH2qMU4KGC1wlvB6r7RsLzqcQMSPQxEw7ZIZM0oCn7mdFO2ZvEMOag3mazXN/7jAZw23vgef6qvx0MfhPQnbbsIink7bER/vSaJ6gb/CDbcD6pPGpdfkigPs4u93nRtRh3s2KsrqHwHDj0Nsaj9b2Nv+CFPYXf/cP6KGi+wtJvDNk2W5BplECgsW8h6633vbwdzyYD9HMLO+zBKHswJWe8HV5JTbPhbKiavHLW91hc93zf+wbvIdzrkC303IpzqucV8rjcuMJbWwabv6pl4tZucCn8QIiXnXkBY0n0we6VZqnLl59tCoq7EDGW2GgDH4LFf1I0xlAxGPInWizD8druO16XtyYDAVnSkfb9aIyPg0CBguZO3NF+WexzEm8LVgUh5DLXCm8cSbGETGti9aT/zXIVv9sb3o8DSNfPGKljgcimjRX0f4OnFytIts+oLt6LwC/nu81971uQI/vQZf1+eIY21HfLwnTU8g8AVJG0l210bdk0Aoax4Cpc46y92Y4FACI5v+BHY0p/6EKXeiHM5rHaS6GgI19iZFSVHgK8Fi1wQ7x5PMy+Oyly7yJPoPeTYza583tF3YT9+sL3E46eAhZ1BG4M9fq078lU+xnFaL8l961z0HVVngMzc5fH4/p6+p031PHnxhH/Pvy92HZ7si75rzXFdilWm7A+gFgd/YaKWG7aFRD+ARimxEwBj8XO6tKfADwaGeFFR4FF0HG/FIPvjlqpiY+T08zfW/sgNQyeb4OneiOmxsGkS/IAI19iZFSSDwx8mj9yTM2I6zFykyZF7MTxMG9uYmBVM8L846YmPKO9PnaLvh4wvS4ZS3VMPhZDsnBH7Ka5867+efFvh+vBKHCwI/ylmXxo0/rpxU/VPn2+rrysmlY/vR4Z7kg8CPkqeuAWONqxuTj/dsVJTVPwKGFznuSW9HsETtsd5H5TwxERPhBY8ipZ/2Ts51+CpvUy6Lf7I36rAjYieHkbpGmLK9cdg/E1DDPRAo2pvZdcPxzxPoxFXP4zh/fBhK9mY4TbYgbWNBecpGYmMWn4P97MHE+WXUcJjbMggh8M2yt70FPo9DHM5v/XkpIfAbOsDAaCJp0UnOI+LdUi3trFf7anSN4PDi+GLD83Sa92Xij2ztuzQsoEjsk4BRa41pUrNASHEnqsO7cQv3GyJQY29S1MvfRpRHeWmFOOUd/jPXfXvpXeATcrCfkD89nKnhcFKjJAQ+xZ+/lMX24yH3rT14T7siWsnV1Xnj3TllN0F6lybmwV92X6Wy665rO+LjPbnUKPBzHVraq7iIANFB3zXuRAgjQnRH68SG12EHZKlrsKmsTHpuRB3u2agoq38EDD8yPPK5Jncc+E4uZ6GOLmVrSeHsiXflZZ/qZ+1eLkGw9aP4zsasiJfH0q44bzsoxDt/nZ9MX/7N906tz/bXPxNQwz0QyNpb9mnZr+H9avfgJ8ebRfZWtgG/32iLD/vZg4nzy8hyeOqr29p8CV+QNo91D/bUKPAzN0QdV8TLsfiRSIvAn5YKUD31ZCThUVnZMHpo1PldCFLuhUBbZ10n8Gd1uEsEB6X1bM6Kd7YBE07X3bXn12N4TOdln0I2O99ODaZC3PPxXm2KcvpFwHBhbl+fGNvCMUY6mBI8rrE3L460j21/s73osN9WvVfNFnF4LveRbvaOVtqO+HhP1nYv8O3jI9tZ+h5K5SkMxIbv5U96VFYmMDeiDvdsVJTVPwKGH9XcUwK/Ol2FIPDEBInwmDBJePBp8u0J9ZwH3gp867m3+YVe/EQ5lfdLmMLu+uf+ETVsszdlN2QjEeeVFfhqHCpxtWRv2EXnCHqcosxFHC7xEtdnC/mUY62H8ahN4GcfZaaX6IQDuepAE+Qygp46VtMpypeOfPFuAKY4ntiwYoFBfkSFS109Ug0YO8/lUY9hDPIUXQcquTcChhsJ3tOWZsyjUmiWzbTGl+WWBAfF9eIImwlsriTwxeTB5CmOTZ3IZvU5UZ6sd+Q325sO925blNcfAoYTEc7E+vDgHHE1KfCl197/HR33PFuyk17Pxit2rQrqN/e+VDptN3zcX2ves0aLOKzaeisOIV83XrH96HBP9rYJ/BxJSGREOsFZS3RMJ6j3AradoV0HnBD4wctOzrsCD/6etEJZJQS66awDwaEEdtajqAW9Pnadnf+SrT1vn8g5G82v4Zd5xX8Tpkd2pqU2x/XjEOjG3nJj6MHXYD/H8bOm5BoO/+/9z/B+v6P///f+T+Clro//n+G/0Xz/DP8a3v4ZYvnfWfD3YE8LBL5aNpB4S9tfVuN7OGITgq0IsafAN4YID35Nn3XbODWd9Va24OUbCHxlowWP4rxddFigj0/Z2DGQcBJ49c2IIG13fHxbkuHGJwS6sbcMf2t5vlU8thcdTiDix6EI1HCYBPtnFY7lBPuf4f1+qclCLj739/cKtR3x8Z4k2lzgL+uMIo8wJy+99Pz1QxxuRB3u2agoq38EDD9W6YgP5j5NELylcXPrs2x5DvUzhCnsrn/uH1HDy9jbhn0G7OcIZtaXWcPhVoFf78GX/XqrwP97+L83e/pfwyd4EkCTkvDpwjLtKOt7zO8e7Gk9gb9hxxM2dGSJDpc/Lu9hcG2olh1w3A1CLpfMln7jDwjEEDDc2IB/oa1s37nRU7pwC83GchNPAFvuh+1NhzH8ce5eCFzJ3lpsoiWuths+vhdT+r3bGg7nBHvodf8eWicExCdbxt/D/7zxK+fB1wL/n+G/Xlor+q+2xIftR4d7MsxToFkCtb7I1xrfa3AWB60e/NQaYDq/j8jXjcnHezYqyuofgaytRW2BbQJhSrQQpmxvHPbPBNRwDwTy9pYeZ8yLsuQ04mVk0jbVGCcnudkloVEnlHsinU0ry1/5N+xnDybOLyPP4XnjQn5CoEU8lcFr8bVIJ6++XfsfCvWSwKd8ZZx595IaF44634M91Qv8lTuTOtBTgj1FgFT8fQW+MUR48Of3ZDdIuUVnXWdTKds5/3ltd3x8AzrhFgsILLK3mMA3It2JcrtlpnMiZUU6pfWWtY3vokzLT10+e9o024sOC9Di8k4I5DnsBDYL7VSYWqNPYj8U53pcoHJI+HPI15d48CkPO3FI1W1PO1irLG1HfLwTXUwxJxD46qW/qROU22YyySiMeWP26zC5EXW4Z6OirP4RMPyomTTHlq6kXkZVnkG5TZ//Mqy0F/qtBYayuYj3MvfyvCx3rc6yJh/CFHbXP/ePqGGNvUlR7tlLTOBH7JJsgrkv8wq4GxX4brKQTVvTZ8yMA/s5gpn1ZdZwOOBakgtzJgS+l/1f47Hnl20h8DX2PdhT5wJfC5H+j3to1PouAzGPQqC6s44ICbNPfiC69VMqK9p52YAnWJKdfsS+YuLm/T1IMaM7tqOODabiyRkfH9XGKLcfBGrsTQprz15iNkDnHk6Uw4PfT1tftSY1HKa+1wpvvVUmC/FIH181HpC418tybFnW6w6Br8c9Hn90uCc/IfCryF1vFLox+XjPRkVZ/SNgeFHBPeMp9x7nfw9RgR8TIWJy4AmWinKnziqW71yB74miyJO2wpacU50S9SdM2d447J8JqOEeCNTYW1bgj9xiD73houGze9rFk2m6JvMKeKvSWd66yUI2bYL7QRkz4tl6WEkA+9mDlW1l1HCYxH1smU18+Q2vp9eTgdRa+pwOWirw/acDa/D56Dx6sCcI/BkdYY44PTRqW7eB2EcgUNNZmy/IPp+ht1y83OdExQIPvsiP+euFwdOCmR78QOCrpXPZj2rlBhd7zWAKD/4RdO6+zBp7k8Ja/mY7zPX7a17zyl55fMrVE/bTN41rONwm8HN9ak6wx9Ll4kvxTjvm6CcB2EVnK+ZB4K/cgaKT3Iqq18q32Fl7YthfbhP14BOPlWdQehtne/AT6/1nLdHx7klPSMZBw4sTG0jS5whTbX/XYg3uZi4CRXtTXndPZBMnI5Pc/LsravK68jiTE+pzr8F+5rJrn3Q1HKa2X2eJTk6wx/rgXHwt8PUTA+yDvxWDFgn86kE+2kGSaDlfJ1jqPNFJbkXVa+Wb7ayjIlfYS0J057hZL/A3/EK1d18JgT++8OueTMQGk/g5gyk8+NcylJXuJmtv2SdYv4b3KyXw4zwkO/QmCClxb+zBLfGxY8dxYyLsZyWybZRNlsMpjuG8+uJu2mZz4+ecaz3Y0wKBz2to3drBJAg3E/hk37pxN7J5ZHtSBBZ11oHAZ1vUYmE8fj6HtQV+0tZzA8oOAh92d1KD2Ljai+wtOn6RULBP1ijv8L8k1MlmY2NnauK7vTDhe6CmMHht3CbIvg0B0ya5/hXXDhPzsfGwB3uaJfDNi3+Ph9kSTP6O3SSdM3H4RUHPW1LqBP8aPt+/hkf08ej2HV7qfnLne2jUtm4DsY9AoLazZvtiXpmwYA8x7+Fsgb/moLGDwKe2NNiK8Ij2RZl9IVBrb9G+PSvwYyK9ZmzqU+DDfvrirazNIg6v2Y8jr6qJhB6H+Fi26da/mwT+JDZGgUHHvM6XBATdAB+7jtJ2ZG8R114TSw4ihOGynl+P0wl8ajRuTA63bkjkfy4EDC8ivHd2M06MY2I+8OD7gqJJ4HsT7pgn0p0zy2Za48t7rBH4Xhz/viQ2sd+EKdsbh+diBWq7FQI19hbjlDmXFfjOPph/HIZjoeYzjY06fcnppfNY75jrTW1g8NqqMZDvLARMm8j+FL+rhHbSrjfGrwd7ahL4Gigp8PU1eyxFvH2c6dbWymuZTqogZuLlZvK7QaPO6j2QaFcEajprM8mNCPzUebaFJoG/sT1wnUzoiffIUgTsorMrB+9UWI29eVzd0y46KctgJMQ9H9+JJz3faw2HaTvM1BdsU9tntsT3bcT/WJb8Cu2/wU45rMnohdtwT/50fE53vpDtR4d7cqxe4Dd77rSgpwaS564r8KkBj2zUPQmEsuYhUNNZU2fKT7Io/vQfEf2y4z2PwBf3RPeHffDnkQmpigjU2pu0o7v95v6FwDR4FVFFhD0RqOEwCXwptOdzOLcrDmk5uTMOHdOe+m77y7Rgv5fAZzvicE++UFn1Av8oLwM8+HtzAuXtgEBNZz2/cz6ft2ONe+VOVIc7NCeK6BwB2Fu5T9B2w8edN+1tqlfD4VaB3+rxd/10OAGgvPgpAQT+9zRJZjvicE/CNgp864Gnisb+02sOY2sNH4NbrpPpfE4o8KkBuTE53LNRUVb/CBheHDVpvmi53CdJ++ufCajhHgjA3jJj7NgfwH72YOL8Mmo4nBPs78jSmNYJgRP4cz34tKznz/CvGoPSE4Iyb12d+orbgz01CvwMgK+vyAu2FD+1FCd1XpVxQoFvDFGI/PkmjZRXRaCms+614+q1Xtru+PiqHMJ91SOQt7e4A4rSGKdV6iVbtWxVOqxiy+Qmu1HppnJG0RNLy5tYUNzgv7BkbypXiSp9nvKlPx3Wo4yYWyJg2qXQhrpNS8f5CcHfw/+y5ZHIdx+tkkuD4oLdLuOhNDIu1TEeX2nBbF36i6vtiI+35IjOGwJ/ZdJwI+pQA4/jeyNg+LEy90qd+dWvE6awu3vbVeruF9lbTOB7L4yHjqyYSE/a3+vLe5rdmnatbaRhPyn29HE+z2H/hdfUi7N0Xotr5qVcYsPn1g2pjvSCrfb+X1fgHz0e7SDwqfOLeUgqtwODB7+P3gW1WBWBfGfNgiHirWMPXsRrF30hd4yfXj7Xn+dj7qCiO1M+XrXhkNkpESjbm//1We+7ETGBH3liTfbHdlYv0v8a3s/fw483RoZjIzz4p6TdqpWu4XB937l8QmBfrHUefH9S4V64tXXyRb19cuCeEMCDvypVpszWE/jwRpo9WVlU6HBCHD+AAD8Gn2szMcEx7rjDAqO+o7+WwIfdwbxiCNSIIynKiwJ/FQ9+fJmqrAfbcewcX1srJIxgPzH29HGuhsPEhX/FshknusOtKdfiTSwfX7D74p7jW5Fv6+XHv8aY1IM9QeDPFVmJdD00ah/dEWqRQ6C2s+bO0AtXFfix/eh/D88HvQT/V+LpGwkB8jLSl6a/hvdLdciv38Pr+zn8JGzEu5cV4xhMefIkwlw74No9EKixNymiA4EfexJmRL57yla9Bp84b9IKT72Xlzg/2oesG+znHpzVd1nDYRL3vJON5El8+Q2tiU954OP5yDzbPPhqjFD9/lUFPrWhHpd0u255DIGviOYTOE/KWFzdmHy8ZSMi7/MhUOysIy/iUZrpP7FEp92DrwT+KDScWFHXtb2Y+F9iXWchvk6/4jFjQ2ww+J6PFqjxRggYPhS4JkW0/G3EeMTeYv1/+dy4E90XLcuJjy9e2WOc7BKdh7S/eJ7letlt/dhuONyoOZDtDARqONwm8HNcCbfBDDlEE4RwR5wwXq4ce+2qAp/tiMMZzb4oCQR+opOdQ1JKQw3JjcnhohZC4ksiYLgxl3uJ91LkGuB6/kpBTr/Zc8+dsrzO5/zQrP0fBRAJkfZJhp9ffd39dGxvOrwkgXBTTQjU2JsU1vJ3WuCPYl1OvKffoRd+Lq91unl27tuKzpOOtd3wcRPQiLwZAjUcpnZcZ4lOrcBf8gTAcfKqAp/IwHbE4WYEiWS8SOBXdzTk5Qs8IPH1h7GO50znuBF1GMEep26MgOFHtcB/Di/p8Yu84Ec2YoT2JDCEt5/OBfbHnSsLeCvuQ3HO1zl+LLRC5/n1a3jIelbfXyzP9nOEKezuxkaVufWsvWWflv0a3q/Y+JXnpzdBSNmBtyyH7bU8Maged1PlJs7DfjIE6uBSlsOJNj2TdrpaXXuwpwUC3wqCR83jwZsJfGOIYubWQd+AKnSGQFtnXSfw53WQbMeP4fn1iAh0d507LBNqIW/ESlmczKtjXkxxntru+Lizpkd1DkDAcGGuCIqOX8TJBR58Yy+xpTVqQp2dfPCkwIZuWV2dvbDdcMj2osMDmgtFRhBYxOG53Ec6s3kK20hLqO2IjyNNu9mpWQKfPYXk7ZO/Uzdv4rAg8DqstCD4IS/l5I38Nb7wN6/jStVri/PciDrcrAWR8SkRMPyo7jyVwK9OV2MvVsBbz/3oif+ml2s5rRIc03m+ziHFiwkWvr59SJjC7k5pDptXus3eFFezAn8m52sFftLeVB1XiAf72ZyGiwpYxOEV+OHGhPW5d8W8e7CnJoHPYp4f99MxP9Lnl4D42DWYHfjfIq69llmiw53fn5FI5jg9GXBlHU+8Hhp1US+CxLsgkO2svUmw76VjfnFovHat8b3OXgn4wNbUdS+ttLc+BD41nsFWhLs0KArpGoGsvSU5Lcaf6BK3nAe/4l0UY2vavo8b57Td8HHXDXujyi3icInjuC6cWnJcm/+b7UeHe1K2SeBrIS0Fvr4WinjbGbrHiBmBH5BNp50Perye6+WnG5OP92xUlNU/AoYXAc/X42E9z0MBbyfy7JkMr8fz7kPgs71x2D8TUMM9EOjH3o6w8boyCSO2Gw73aBuUUYdAK4fjW2M6LsRfxuUPVNEOOfyb0qS21ORddGpeynVlx8eQa13vwZ7qBX6zlzAmyuW5FoFfKzKOJ0gPjVrXXSDWkQi0dtbbdYgx27J2ap/U0XXtZbTHbrJOdteHwKc2NdiK8Mh2Rtl9INCPvR0/RqX6Em03fNxHC6IWbRxmQe6+Fptq9+FNH6LSH8LSAl/ylr6Cq+ND4Gt82X50uCeT6wX+Yd5GOxEIl/5IwvXzWzcmH+/ZqCirfwQMLw6zqX7sRXeKS44JU7Y3DvtnAmq4BwKwt7LNw372YOL8Muo5TILdfqjKfi1WeuJDHtg4zhPvvn6bStcq8OWXbF/DJ/i41j/D5/2f1ZfILBlL1kjbgz01CvzRs5fw6KVFeNwL6HsAQ+INf+jlwoq1jB0JpR4adX4XgpR7IVDfWUfsoiO+r9ERrpWHwVR47vl4rzZFOf0iAHsr9yNsLzrst1XvVbMSh92SG+21Z28+7VmvPe8kuP+ZJgSuL0578O2EQJeR8+Brga8nDlb0x77A6+pT5m9vcbUd8fGerG0U+BmQE3tz263EYi8OFZbojC8gvV5yR49M+Z2IHm5EHe7ZqCirfwQMPzrhbG8d49z6EKawu/65f0QN8/YWd0BRGuO0orEo9pKtWrYqHVb5ffAbHWWqHMNz3pXObNXJ78ssGx9Nvg8rCQxeRzQUykwiYNpk1THDevo/Jk87CXAiOyXwebKgRTp59e1Hr1wezMeSwKd4Mg6nO3fYgz11KvBthys7zLmD/t7pemjUZA+BC90gsH5nfe7OcA07NZjCg98Nx3uqyCJ7iwl844CSwtp3WOUFfsZWk44ymeY5vKYJB5Ur6yHjtf2G/fTE2LAuizgcTAysULfinnkiz6UEPgl58t5zyGmXePApD1k253nusAd72kHgUyPFPCQxr75t0Gk7TrUU6AyCv4dGDbsGnOkNgXJnnffy8Va1Uhin7IbKSi+fi38Bd7I18h5OYqLvDpfuU9tfb+2O+hyDQNnevgcpymnb58kGYgI/IsTlrnIyL2mjxd+RfIM0Xpx1BT7s5xh+1pSa57DzoLMnPRX6or6lT/e97HZJEC/5gcDXdkrtdbQ9rSfwgxliC3GuE7eHRq3pLBDnWATynXXBHmKC422Fek7I6w4odfzz/TW8+RsUJxP41KpHd6rHMgulxxCosTcpyosC/zAPvhb0+rjQd2TGaW03fBzDE+f2R6CGw7JPL22T6eLGXnx9D/5EgMS9XpbzPZDIt/Eg8B2e1gbZfnS4J3Mg8DMdnm6wmmPdmHy8Z6OirP4RMLyYy70tBb7O+2QCn+2Nw/6ZgBrugUCNvWUF/uiN8ybQRuRbLx3lP3n83/7TgGDcAEsguAAAIABJREFUiK2pF0+rvTJ0H+F570lIrCvw2W443KNtUEYdAjUcllyrE/ippTip86kJ5FKB7z8dkPdx1t/UXmxHHNa19HqxIPB1B7rwuIdGXY8eyGkrBIzB57hWEAGxZTNyicCsTjHwSn4Pg6iHFDCz8s/d7wrXuBPV4VZtiHzPg0DR3pQol2J/0JPeFbiatJ9AwAtBRbY4vVzL59cV+NSisJ8+eV3DYcmr8wh87KKzFeMg8FfurHXnyMdbNSDyPScCrZ217LiN6I6si18i8GlJwuMReVmPREWkLK8+K9vQ3LwJU7Y3Ds/JDtR6bQRq7E2Kevk7LfBJXDsPPvPPhul3zHL8JhuOTaTpfCju4cFfmyc951fDYcmtOoFPHIot0QmX48i8w98tHny72457RwD74G/Fu0UCv1pQRD0g1DnO6wRDcrE34/iQO3lqMGOQW7Uc8j01Am2dNX0P4vfww0I64eUzIkA86mcumjAp0u0L8MllAScT+NLuYH+nNpFVK5+1N/GUyrMZY0u/hvcrsU0m22Mk9CYIkeupMSwm8M3kO2m/8OCvSpSOM8tyuIFjKe7h/Lr6kccfHe5JsQUCn3fGiXj9NNluJvCpAY9s1D0JhLLmIdDWWdcJ/Lt30IQp7G4eH6+eqs3e1EAfHb8ozgwPfnYy4T8NiHnyQxtfV+DDfvq1hEUc1poMx5t/OZfa62h7miXw2VNIXj/5O+x8bEdp4rAH0uvg0h582snjyd5I2ueXd/XonJg9NGq/XRRqxgi0ddZK4G9gA87jKMtaTzyk+oY1z+vOlI8Zc4T3RaDN3loEfoWDawN7dXazno2yvejwvqzp684XcXhTDip7QVlm8qDtiI/3ZFWTwGcxz2ty6Zgf7ds1vLH9tsnT/zW8RVzbOVHHlBD45DGh9cCjqCexH19/2B+xuBF1uGejoqz+ETD8SHWE3iTY9+pROvlvvHyt8SPlsv2avHkybr5fkbDRSB5OdBxjl4wLtT79xh8QYAQMH+ZydpYHPzYWbmEX6wp8thsOGT+ExyOwiMNzuY90sz391F5sRxzuzSJvFGwlkBT48cFdinj6LbcSk9cKHR8L/hOQrYdG3ZtEKK8dgVZbi9tXwW4a7CXmwSfR//r+PTwnwb9eeVvcD3eiOmxvHaS4GgK92dsW/F+ap7YbPr4aF856P60cLr1kaz9UFb7w+l8zbtRsk+l/XEvum/9vZM98y0/aDpM/juXGk3R8F2cpv/dOz/ajwz35Vy/wm72EWtBTQ8lz9QLfPDlIvmTUFwF0Y/Lxno2KsvpHwPCiQYBv3TlpD/77KTyQNME+gcgnTNneOOyfCajhHgj0Zm9b2/Oc/GE/ezBxfhltHCaBTuL97+F/xXEmJrpLAl/vW+/HTwv2WFn0wazWXXv60n0xe+vBnuoFfpEkGwBuPPc0aNPWYX/NflQSA3+rcz006vwuBCn3QqCts97Ato6w543LNJiK5Tl8vFebopx+EYC9lfsQthcd9tuq96pZPYdJRL+H/3v/ZyAv/rsgnm2cP8O/pn+WXvmc6A63xZRPDNKC/V4Cnxh6pD01CnzrgacKx/55PX4onnnHHT9d3S4B3wPtQ/x6nGMtsG5MPr5XV4S7LSFgeLGx4A3tsDzInzkN90myUy21A67fAwHYW9n2YT9920KJw27JjfbaszefPPp6eQztgf/PNCFw/b/vkXfnmUdzPfg0geDJBOcFD/5WzGsU+K5BggZP7M1tl+XExHn9Eh0qi5YQpCcQmXrtLKLQSW5F1WvlW+qsA/vamcdnLN9gerDH5Fosvc7dVNsbLUXVy0GTY5sdl7jPn0KdPma709Pph9pAgsbFcGceWqYadYhl6tZqw7CfvvlezeEY36LnrKffrp23kwDy+lvelAQ+aS6bnj9YVV6Db/OkpwsyLpWX9vj3o+3OaE99CnzqZOXWmKYzjE0S+mt8dJJ9d5K91G79zro/W2jtEJfGJ0y1/fXS3qjHsQhU21uDwE9tMpE67/hNT7TdeObHP1bgw36O5Wmu9GoOR8W8Hh+soPeFtjxXI/B1nqVj8t7TEwTt/b+uwD/annYQ+NTosSU6roNzHZ8jiLcPPtbg5+we106IQLmzzi+HC7yM7+/pmxSUt/7PPv2S3sQprfMiuh12nH3GbPboc7oz5eMT0gNVXhkBw4Ua4bOHwA/K0LbubI9tiiYB2qb5OGvbNfc8xmF70eHKTYHsZiJg2iXZnnLtvN4Zxz/2Rf2SPt1OCNiD74d6/b4v6u26f7eUCB78maQoJFtP4CeJt4RA50urO0c+LrQDLt8MgXxnXeA9CfLIMgDfE1jIQ9or5eftkqMFR34yziLk6JAwZXvj8Ga0wu0mEKi1NyOkPVv4HobMMhhv9ymeHEdsU9oGlaGX27hJNDz4iSa8/elaDjPX5EuvfC4e0jp8fxJAYn3JRMAX7L645zpYkW/fCfDjN4xdchzr7De1F49DHO5NYgj8lUnRQ6PuTSKU146AMfi53NtF4DsvohMffXe83InqsL11kOJqCNTZm/2K80cLcPK4j4O19pbrSbU+ZjEjw7kCn+ugQ10nWVbLb4MR3mHplvqmfRrGjDqBn1qKkzovx4AWD75MF/6+qsAnMmm72pNgEPgNBlPTWerG5OM9GxVl9Y9AsbMWooLiBv8RL2GNuIhyGB78/gmDGi5CoGhv4xI361m3X1+fPJjag1+yTWGv2lNv7G/GEp2o3W4wdhmchChZBDoSr4pADYclT/YR+OGOOLIOtb+vKvCPticIfHSSq3ZCyKwOgdbO2usoA4FgPSKLBL4QJVS3xwMe/LqWRKwzIFCyN7Id770WsjFeqqMF/uIxo+El26WTiYa6ajHCx2do3zvUscRhb4x4f5s98N2uOKHX3MWPLdHRa+hj6XMefLsPvysjlt6du6rAJ16yHXG4J1cXCfxqQRFdUkBrDc+xtreWpBSPG1GHezYqyuofAcOP6sHXLh344fgJwWFESiDUR+9/xONfy+szLdGB3fXP/SNqmLW34AmWFR7T+JawN7KfOWvwjd1RmWyrPJEw9h1fgy9tdaoX9wcrhYQR7OcIdtaVmeXwShyQPMNvNwGZg0UP9rRA4PPOOM7TlwThZgIfnWRdh3XnWG2ddZ3AT9rfTTp/bXd8fGee4d4tAm32pgb2hMBPCe3U+Tr7PFbgE1psNxyCQ30gsIjDNxkD6mxM2fdG2LD96HBPNs0S+NSBUaXp5R75OwWuicNeCu+RY40H33+cmSqjl/O6Mfl4z0ZFWf0jYHhR3bEogV+drrEjk15F9i6K/bp7sbFUPQhTtjcO+2cCargHAm32puzmRgKf7YbDPdoGZdQhsIjDW40ZyHf8MJjqM8bVHGxHHNa19HqxmgQ+i3leq0jH/AY/P6rkYzcI2xeW3iKuvVa3RMfmWzMRCAF2ddjvGjUkNyaH6zUXcroKAoYbqc7RmwSPS2wmwe0fm5f4WuNHy7V2Or1YOMU5zwSb7U2HV+EM7mM+All7m7ieGCcSAp/GFx73KP/pf8FyOPvl9/xTcTnurjnGabvh4/moI+WaCJj2KHEV15OCe01bqcmL7UeHa3KilFeTwNc3Ve5opIin3w+x/6+8Fu9Ybf6/va/+6Tr0dqwbk49LDYHr90LA8KKrzvgaAp/tjcN7sQp3m0KgP3uLj3lHjmeEEdsNhyk8cX5/BMDh/mwmZ6892FO9wG/2EmpBT40jzxUE/vTi03k8iNTYPTTq/l0PSmxFoM/OmmxNeCLN73M9PaN2MNiKsLVtEP96CPRpb30JFm03fHw9NpzzjsDhvuwlJ+5ZCxLT2I443JN99QJ/V2+jFP/nE/hHN+qeBEJZ8xBAZ71+Z02YcifK4bzWQaqrIQB7K9sb7Kdv1nP7INROqL6PiVWm/zmAXo0C33rgUwQL199zpxLzDMrlOhzPhv7Sn/MJfG5MDg9oVxTZOQKGG7tOmn0bK3kfznid7U2HnVMB1dsBAdhb2f613fDxDs2DIhYgwO2E0MrZ3nFY0NTNSRsFfqaTSL6IJL3xMn3ufHxGFv0qYGciKUWu5pZBgksjYHjSGXfPKOplnQlTbX+XJhFurhqBGnujL3++3+/of+yDQfXxUx8E4q+A/hli+Utu7/Eb9lNNp24i6v4Ox32L/L2J06HAl5MA+g0P/t6kQHnbI1AjOPYY1K9URmpw2741UULvCNTYGwn2cBcpPR7VHOcE+5/h/X6pnT5y8WvKWycO7Kd3Fsfrl2o3nO9T7MdbcZuzOwh86nxiS3RqX947n8CnptLGtU3zIdezImD4kfXg55fD8Va1UqDT0jbKN/afXj4nxAG9SB9s8Uf1UNv2RffLd3GO+vIt37e0v7PyA/VeF4GyvX0PrQK/3oMvbOzdKvD/Hv7vzZ7+1/AJnjDQpOQ/asIgy6v/DftZl3N75GZ4HdEbOA9xT/xbT+BnxUp9JyMFyxl/o5Pco1s7fxmmA55rM9EvQ3+bj85VCflUuS0Cnz9cZ/LSk5Hayfu6/UJqUDs/W3AHSxGosbecYA+97u0TAhrPbBl/D//zbDDnwdcC/5/hv15aK/rXWOID+1nKMqQHAn0hAIHvdZbLBQc6yb4I3mttagRHcoK7kcCXH5XznwY477yp07SFLduL7+WHB79X1t23XovsLTFG5CcEWsSTrfBafC3Syatv1/6HQr0k8ClfGYdtsj0kjPT4dV/G4M6BwPkRgMBPdN5JcVWIj07y/Eaxxx0UBUfpuxPBUpplHnwj6CnPcfmNe6HdF+9pgS+XBsGDvweHUEY9Anl7cwKbhXYqTK3RJ7EfinMtsqkcEv4c8vUlHnzKw04cUnWrHcu0uOfjepQREwgAgZ4QgMAvCPbazpHjcaeow54aHXU5HgHDj7nciy6lmSnwR0HvL+2x78xYkZ8Q+MFaf+flhwf/eH6hBj4Ci+wtsNM5EwLfy/6v8djzy7b9CHyMWz5vcAQEzozAIoHv71fP3ohIGF1SQMLhGE8fi/EtQuog0Ume2ST2qXub4HgOL7nmPbElrb+sRnrUH5GXZyN2GgiZeXGOFPjUerC/fTh8plJq7c0Kb71VJgvxefZgl9DoZTnfA5Vlve79CHzYz5lYjboCgTwCCwQ+74zjPHdJwXwzgU+QQ2TkiXf3q7WCw9pUncBP2l+VcGd7VhMDM2GtsPGqMuYKpLp0hCns7u6WFb//GnsjwR1bZhNffsPr6fVkILWWPsfhpQLffzowtx+A/cS5g7NA4KwIzBL47Cmkx/ryd6pjMXHYA+mtLU558Mm7r4UGRMZZSYZ6hwjUCA5nT0rg7yqmI0t0uPxxeQ8LAxumbDoncNa5ZjDF5DokG87YiR/zNhG2CfwcZ3OCPZYuF1+Kd9oxRz8JwC46oDcQAAJxBJoEPot53iubjnntrt2B4zEde+Lk8TW8RVx7LbdEJ3ct1kH2cw4iI040nPURMDxJCI3BmwTria5/bNbJt8aPltvqwaf4sUk3nT9G5NsJhu3S2A591HF0VwSy9ibsYZ0lOjnBHhurcvG1wNdPDLAP/l05jfsGAiUEmgS+E+22k5ICX18LRbz1yvu7c6SEQEo8xDrHvs5BZJQoh+uEQK3giNvVFpxvtblU/GMF/oQtYwy6AQHmghDy+9nVFra6TZ48KdYhCAQEgMA5EagX+M1eQi3oqVOS53JeeisSnk/+Muev4fX6a5Wv9W3dsevOkY/PSQ/UeisEDC+6Ehxkc/7TAaoj/7uJuRQXsTSpSbtMt81vriu1mcF3q8ZDvqdDwPChK3vbxgaWjG+wn9PRGhUGAlkE6gX+np2jWdv7a3iPov7n9Xt4HvTYv7XDRCeZ5RsujghAcKwvcAymQtzzMUgHBGBvZXtje9Eh2AMEgMA5EWgU+NYDTx1A7J/X44eiOObpewxxr2C8I6I1/un842nCemwfT3eOfHxOeqDWWyFgeLHnpPkGZXGfRG0Gu9uKuefMF/ZWHvtgP+fkNmoNBFIINAr8TCeR2JvbLsuJPbbPLdEJyzmTwGdxwWEKfJy/LwIQHKGNL52Qs73p8L4sw50zAjX2Rtthpr5gm9o+syW+z2//Y1nyK7T/BjvlsK3QC7fhnvzp+JyuLtR2w8eMIUIgAATOhUCfAt+s9/8aPn9sx/RjjmOThLqOy+9Yt03DnaIOz0UL1HZrBAw/buBV39v2YHdbM/ec+dfYGwl8KbTncze3Kw6NP3JnHDqmPfXd9pdpwb69wIf9nJPfqDUQiCGwg8CnDiy2RCcv2H++v4YnLwX6+hreo9if3+luK+y5XtRBopOMUQ3nJAI1goM5RWF5x6qR3zf6qJzEh35ru+NjiTt+3xOBGntrFfitHn/H13ACQHnxU4IjBT6xg+2Gw3syBncNBM6PwHoCH95Is8sPd4o6PD9VcAdrImD4UW0zPEGO7TuvJq43F/iwuzVZep28auwtJ9jfkaUxrRMCJ/DnevBpWc+f4V/Vb6QnBKpvUOlcfWw8wgj2cx3O406AAAR+odPTnWDpGJ0kjKoGgRrBQVzjj8tt99VoFgF/DZ/vXwN/xK7E8x6va3HCxzXtgTjXRqDW3lp4nZ8Q/D38Lzu2kMh3H62SS4Pigt0u46E0Mi7VNx6f7bo+ZHvR4bWZgbsDAtdFAAI/2wnXd448MOjOkY+vSyHc2RwEDC8y3GNhz4JbLtFZ96vRYhLx9Ti9wGd743BO2yDN9RDI25v/wmvqxVk6r8U19/tyiQ2fWzekOtILttr7v67AZ7vh8HpMwB0BgfsgAIGfEVlzOmjqGLlz5PA+dMKd1iJguNHAPSnw47yUu1LZ7WzdNrTyWmbSSi+zP5+n+KBcDAO2Nx3WtgniXReBVnuL8cudWz4hsC/WOg++P6lwL9zaMn1Rb58cuCcE8OBfl7e4MyCwBIEmgc+eQ+os3T+/LBsREeaDVTKuv5f958lpM6JjFEFlgTPmEV2D/D20lOU68nK9dFwtLvh4SSMh7fUQMLxICfxdvxotOH4Bgc/2xuH1mIM7moNA1t6EHf4rls040R1uTan7/TWPfcHui3sux4p8Wy8/vrBncV+cLhcSRmw3HM7BGmmAABDoA4EmgT91DlERHRH4uoMZ98p3E4VagT++ZPj1e/jReerjaN32FfjcOXLYR1OjFj0hYLihuXv08QUEPrUx2x2HPbU76nIMAjX2RuKed7KZxrr39xBffkNr4lMe+Hg+Ms82D35etK8p8GE/x/ATpQKBLRCYJfDt+uBxRw/P26gE+xoefJPHmK/8nRJDHQh8aigWFxxu0XjI87wIlAWHXWZD8WL/6a868447fjq3XCcjFi4g8NneODwvQ1DzNREwfEiNGeP5NoGfsaN3uA2mL+4pLU0Qwh1xwni5cuy1NQU+2w2Ha7YB8gICQGBfBGYIfBIQv4bnl7/cJvrFWhLbgdddChc1IRAdsJ1EPIZHJn1M5FRPPkRZczrVVBrqGLlz5HDfJkVpZ0DAcGMuB7f6avQFBD61Pdsdh2fgA+q4LQK19rbOEp1agb/kCYAT/msKfNjPtjxE7kBgTwTaBL7xoD8G6w20Qt2J7MgSnTE+da7u3+3lvf66eDv5eD1/jXV0neD6Zbm8pdhnUaHDPRsVZfWPgOEHBP6qL/RyH0Otz/bXPxNQwz0QWGRvc+30ZOlgP3swEWUAgf0QaBD4VtD7j/rluYjAn9vBect+5OQg/C3rY7z3ZhcQEvpuIkECfE+Bz+KCw/2aEyWdBYFFgiPpwadJZ2yJTvpJmZycDvDgn4U+qGcjAovsbe44drJ0PF7psBFqRAcCQKATBBoEftxj7QmEaIdmJwHUaYT/lcJj/OCPe1oQ1sWIe7mch8SKON5T4FPbopPshOGdVsPwI2ovIbfLNoY0hBH3L9L+Om1+VGtnBGBv5T4C9rMzKVEcENgYgZkCP+Yl5KU75Y6EBUtJdJNoZw89/U4KfLMUyPfYUxnOow8P/sY8QvaNCEBw1PcT3F+UQoMpJteNTLxHdNhb2d5gP/ewBdzlfRCYIfBTS3Fy52PeezqX9+BXC/wKT2hpMlESD7XX0Unex3iW3CkER1lw1NocxyNMtf0taSOkvQ4CrfYW3xrTcTb+Mi5/oIp2yOHflCa1pSbvolPzUq4rm/m+dgj7uQ7fcSdAgBDYSeDnhXyqo5ICPxWn9vyeAh8iA8ZVQqBVcNTy/M7xtN3xcaktcP36CLTZGwty97XYtF3Rh6j0h7C0wJfinL6Cq+P3I/CJCWw3HF6fHbhDIHBNBGYIfOqsYkt0UiI+twZfb7UpO8JxiU107X5s+0w/re6Q9xT4RBXuHDm8Jn1wV3MRMLyoePLEPM4uUZP50HI186K5tIfU0zUZ5/y/CVO2Nw7ntg/SXQuBensjwW4/VGW/Fis98aGN2DjOE+++fptK1yrw5ZdsX8Mn+LjWP8Pn/Z9VdqOC/VyL87gbIDBT4IcdHQuRu4foJGFUNQjUCw6yNZ5Qh++ZBPZ2c4FP2BtsRVjTHohzbQRK9uaW3GivPXvzac967Xknwf3PNCFwtpj24NsJgS4j58HXAl9PHKzoj32B19WnbrzWdsPH12YG7g4IXBcBCHzp/VzhN3eKOrwuhXBncxAw/Kjgm3lR/GGfdMnfqcHbxOHdo7ztZlNP2L6HH9p2c3pSRi+2/7WKRzBVx63OE6awuzlsvH6aWnur56b19H+MDdtJgBPZKYHPkwUt0smrbz965fJgUV4S+BRPxuF07SHs5/p2gDu8FwIQ+BUiq77Tx1Z99zKf+XdbEhws5h/jchs65l2kPk8rZPnY8ZM8/V/DW8S11zJLdHgHqj+jIDDH6cmAK6tdQGydVot7Pp7fSkh5FQRK9tbGTSvUrbhnO5DnUgKfhDx57znktEs8+JSHLJvzbA/ZXnR4FQ7gPoDA3RCAwN9A4BOJ0EnezZTa7rdVcEiBHxcjUsTb9154i9nhLa+VBn6dthS/n+uEKeyujYd3iZ23N+dBZ096KvRFfQv3fS+7XRLES376Efiwn7tYBO7zDgjME/ixL15mvq7JHkcegE0YvAgY6SyNN9EO2vKjVVawhOuRSQQ5USPyy9QtLpZE2sYJAN8jkYc7yzsQCffYhoDhRopb3tKakf/TEhr/2PI9JsrluRaBT08B4MFva03E7h2BrL1F7LC0TaYbN2Ivvr4HfyJA4l4vy/keSOTbeP0IfGpHHrc47L1tUT8gAATiCGwu8FOex9R513H6QsOPT4KlX4FPUHPnyGEcfpy9KwKGFxFh4fg/f5I5Pw87EQiX/hxRl/YyCVO2Nw7vyi/ct49Aq73VCfzUUpzU+RSnlwp8/+nAXPuH/ficwREQODsC/Qr84CmB9UhyJ/R4xAW+u+57OvcSLVw+EYN+4w8IxBAw3MgKfM33Wj7zjjt+/OiTLVn+n+fw+spvWztXOOyVju1NhzH8ce5eCJTtzRff5xH42EXnXkzG3QKBegQ8BVrbCZI33V8y8z0MmWUwc5boUBlalLi97OHBr29ixOwRgVpbi4rjpK1ZD/ybX5idBHzq/ChqxqVwZ909hzEiTA2umFz3SPlD69Rqb3UCn+wntkQnXI7DHI2HLR58u9uOe0cA++AfSiwUDgQ6RmCGwCdP3+/howW4WDesveX+8hr7ASsdR3d8cwU+D/I6LJWny597zOVSm5tBpePGR9WOQ8BwYxLgvvewyL1VBb71+OvJdLEOc+u+YTq2Nx0e18oouRcEFtnbhpztyc603fBxL22IegABINCGQLPAd8KbhIFYJqNFhxD81FHk/qPiYsYSnR46S+4UddjWLIh9dQQMP+YKB21rXj6xJTrpl2bJnmO2GbVJr5zGSckOafk+iDtsf1fnEe6vDoFF9rYDd3sZu9huOKxDF7GAABDoEYEmgW/EgNz9hkS4+KjOul5yEipOmFDZLn+1RGfpZGLFDpw6Ru4cOeyx4VGnYxEw3FiRdz0IhKPrwPamw2NbGqX3gADsrTwh13bDxz20H+oABIBAOwL1Ap/W6bKYF8JkEt4Zr+KcNfhGLDRukykFxlQvUVd5favf3CnqsL1pkOLKCBh+7MzNrTjfS76EKezuylYz/95gb3UCH/Yzn2NICQR6Q6Be4JfESELgp4R26nydWFAe/EjdluVf7gxT9YTI6I3ifdYHgmO+jeVsj1obIqVPzh9Zq1Z7K71kaz9UFb7w+l8zFtVsk+l/XEvum/9vZM98y3naDpM/juXsJx3fxUnZjDyv7YaPj2w3lA0EgMB8BCDwI5MD2em1/uZOUYfzmwgpr4iA4cfK3Gvl6tXiE6awuytay/J7arM3Eugk3v8e/le00ZjoLgl8vW+9Hz8t2GNl0QezWnftiQt/2M9yniEHINATApsLfBIRs5foJDtXePB7IhHq0o5Am+Co23nKCHZa1ibfkzE2VNgmM2lncSHQ68RAi3s+bm8dpLgaAvX2RiL6Pfzf+z8DefHfBfFs4/wZ/jU2JL3yOdEdbospnxikBfv2Ap/ane2Gw6txAfcDBO6CwHoC/yIiYal44U5Rh3chFO6zDgHDj2qb4Z1xxK5VqbQ3F/iwuzr+3S1Wyd7ckhvttWdvPnn09fIY2gP/n2lC4MYO3yPvzvOEea4HnyYQPJngvODBvxuXcb9AoBYBCPyUUJp5ngYSiIxa+t03XklwsCigd0koLu0gJX/zdR2aOPwyvLe7lNuRKkzzNTxH3j6+voZP8KEsJyZ02p6Otd3x8X1ZhjtnBGrtrZ7P1tNv187bSQB5/W36ksAne7Lp+YNV5TX4Nk96uiDjUnlpj3+b3bK96JAxRAgEgMC5EIDAnynkUwOB7hz5+Fy0QG23RsDwIsM9FvOPcbkNHfM2sbzkjY8dF+23Kd4irr2WWaJjdqpyov7nW2x9m6mfK7NNRGyZjjBle+Nw63ZE/udAoGRvbby0gt4X2vJcjcBvtRvy3tMTBO39X1fgs91weI7WRS2BABCIIQCBv7L5MGfkAAAgAElEQVSIoY6RO0cOY8Dj3L0RMNxo4J4U+HExIkU8/X4M7mNV8lpBWLDgb6hbvD6FcjbIn+1Nh/dmGu6eEMjbm1w7r3fG8Y99Ub+E43ZCwB58P9Tr931Rb9f9u6VE8OCD40AACMQQaBb4tnPxOz3unNwjStfx1cdPdXi85jB8MakXYSHrocUFH8fAx7n7IpAVHN7SGjthpPixfyvitaAn+5Pn6gW+eXIQvKTr7FlyvbffjA+xyuB7X3rhzhUChg8Nk0r50mue57QOPxwPl0wEfMHui3uuix1X7TsBfvz5tgr7UaTBIRA4OQKzBP6Szos7qOGdE+z8OFJ2Vrn4Mt6xv9FJntwidqp+q+BwdrMRv43nniYRv4bX669xLfFGZTUIrZb7NpgKcc/HOzUpiukYgVZ7qxP4qaU4qfPSnlIOLZosaA++TBf+XlPgUxOy3XDYcbOiakAACGQQ2Fzg13vwZcfVKvCllyPmUfln+EwvQMly1v/NnaIOM22ASzdEwPAjK3StB57ixf7D9ffMZd5xx0/nlutwvET45/fweqRfyG0R3HvHZZyITgbfG/IKtxxHwPAha2++Pewj8PnptF92q92sKfDZbjiMo4mzQAAInAGBWQKfl+SEod5G7NvsJdzq8beTArfG0HZ4OQ++FvjaA2JFf2wJUWtnWopPHSN3jhyegQio474IGG40CA6Pd4mvRttlOTFxXr9Eh8qhl3jTE4hlYsS7j7n3n0jH9qbDfVsWpfWIQKu91Ql8soW4Q8l+0TZnKzkPvt2Hv9ZW1hT41Hawnx4ZjDoBgXYEmgV+bafD8XIe/PiXArnj0yLdvQgVCvWSwKeOVsbJdbzLrunOkY/bmwYproxAq+BgezLhmgKf1vvLrTHNUp3YJGGZXXj1Twj0pXEIU7Y3Dq/MIdxbPQKL7G0jvi7l+9rpYT/1fEJMIHAGBBoEvhPYoefef8ko5bGv84pQOeS955CFxRIPPuVhJw6puq3VWaKTPAPtj6/jIsGRFPjE89gSnbxgp60xp33wsQb/eHKgBqsjsMjebiTwCXiDlQhXbwxkCASAwC4INAh8Ftq14ZwJge9lt18X5GU/5xH41HLoJHfh72kLgeCo7Ufq4xGmsLvTmsSmFYe9le0I9rMpBZE5ENgdgVkC333WW3ruWYiXO5K4t5zEvV6WQx/x4C/3nUfgQ2TszuPTFQjBMbefSKfTdsfHpyMHKrw6ArC3tN3weMz2osPVGwMZAgEgsAsCzQKfBHe4Bt6+TBue5/X0ciLgfofxc53QUoHvPx3gTm3tUHeOfLxLa6KQ0yBgeHGTR/9r21gqP8KU7Y3D0xACFd0UAdhbbmy112A/m1IQmQOB3RHYWODnOpWcYI+ly8WX4p12NdBPArCLzu7MQoFZBCA4Yja+7ByLeh1mGwIXb4EA7K1sW9pu+PgWBMFNAoELItAs8Ml7ts4SnZxgj3VGufha4LunBPaFYOyDf0HunvqWWgUHfWG2autK2gUn+BJt2zaZKQ957+cJUxYlHJ6aJKj8aggwNxBaG8nhQKDDflajHjICAochMEvg9z7QH1k/7jipRdFJHsbr7gs23KheosM743wNxV2gbi7wpd3B/ro3g0MryPxAaGVACodDGwmFAwEgMBsBCPxqkRV7qhCeQyc5m4u3Smh4UsE98txTXPLey9+pSayJ8/V7+KG8aY/70av9qPo6LU0k8ltqpsrt4TzfKxHJ4HsrRuFm5yDAPEEYF/lzMEUaIAAE+kAAAr9CZLWIF4iMPojdey2MoMhwj8X8Y1xuQ8e8RIe+NEvp+djxkwT61/AWce21uiU6Nt9zC3xqdy3WeucC6ncMAponOIbIP4aJKBUIbIMABH5GZDnhFHrqU9dSg8Q2zYdcz4qA4UkD96TAj3NPinj6/RheL+atvMbn/NDm/xse/LMSCvWehUCqv8Z5TxrMwhaJgAAQOBYBz4prRAd9jTb1JdvYtpet8X3x4n8sS64//jfYKYcFC71wG+7Jn47P6dYJCUM9OBzbxCi9RwSytuYtrcm/FGdFvBb0xGV5riDwad2+WdZz/iU61Nawvx4ZjzoBASAABIDAngjMEvhSaPuCvEUk53bFoXzkzjh0THvqu+0v04L9eIFPDQiRsSeNz1dWVuA3ePbn2x/bqhT/5xf4sLvz2QJqDASAABAAAusjsLnAn+/BDycAlBc/JehZ4ENkrE/Uq+VYFvjWA0/xYv/h+nsW7CTSwzRuuQ7Hs6G/9Of8Ap94Avu7mrXgfoAAEAACQKAVgVkCP7VE5x1ZGkOifJ7Hf64Hn5b1/Bn+VV7Q9ITAFzxLPaJaXPBxa8Mg/rURMLxQHK3m3usr8oIt8Vh64yWvc+fDyQDVLTUhqK7j3HtbkI7qzfbG4bVZhLsDAkAACAABIBBHoFngtw7wOQ/++/338L/sgE4i3320Sk4U4oLdLuOhNDIu1TkeX4qgdX5DZMSJhrM+AkaAZrmf4eNqAl+XAQ++30o4AgJAAAgAASBwTgQaBL7/wmvaix+Ka54UyCU2fG7dkOpIL9hq7/++Ap+owB5EDs9JD9R6KwS2Efgk2GNLdGq3vjy/wGd743Cr9kO+QAAIAAEgAAR6RqBB4GtvX+l4+YTAvljrPPj+pMK9cGsnCb6ot08O3BMCePB7puH96rZI4M/1/F88HYt6Hd6PXbhjIAAEgAAQuDsCswT+v2LZjBPd4daU63rn/QmFL9h9cc/lWpFv6+XH9/Pi+GuEWlzw8d2Jhvv3ETC8uLjgXsOeWvIgTNneOPRRxxEQAAJAAAgAgXsg0CzwSdzzTjZy8I0vv6E18SkPfDwfmWebBz8v2vcU+CwuOLwHlXCXLQgYbkDgD7695224FJftTYct7YK4QAAIAAEgAASugMDGAj83YIfbYIYDOE0Qwh1xwni5cuy1PQU+EQMi4wrmsd09QOCXbbbVzglT2N12nEXOQAAIAAEgcB4EmgU+DbrrLNGpFfhLngA4EbGnwIfIOI8BHFXTVoHv71fveB2IYPoq7fOpPOOpbTIz+Zzw6YK2Oz4+qo1RLhAAAkAACACBoxCYJfADUXFCMbDVPbCo0OFRDYxy+0TA8KPabnhnnK9g+9eAxzcX+LC7PvmOWgEBIAAEgMC+CEDgV4usOm8nCQyIjH1JfMbSagU+ee4pLn25Vv4OhP3IYxPn6/fwQ8evL5PWcjK1VWbsi7kVE4mV7SZ1Py3ntd3x8Rn5gToDASAABIAAEFiCAAT+ykKFRYUOlzQS0l4PAcOPDPdYzD/G5TZ0TCKfBO/naSeRfOxEMHn6v4a3iGuv5Zbo5K7VTWpd+cfGJ0xhd9ezFdwREAACQAAItCMAgZ8RWXOEC0RGOwnvmKIk8DX3pMDX1+yxFOrWK/96seCW1/gch3ZSoL/8HC+D0/QZanHPx3fkF+4ZCAABIAAE7o3AIoEf3xrTDf7xl3H5A1W0Qw7/pjSpLTV5F52al3Jd2UcJFBYVOrw3zXD3GgHDj9Tk0ltaY73SFD/2b0W8FvRkB/JcSeD/Gp5PuxTo8fg1vF72ScFRNjS3XMaHsDb4atBxDASAABAAAkDgJggsEPgsyN3XYtMDM32ISn8ISwt8Kc7pK7g6/nkEPosLDm/CJdxmAwKGGymBv+d5ein38Wt4j6L+5zUe/5H2eI7fbG86bGgWRAUCQAAIAAEgcAkEZgp8Euz2Q1X2a7HSEx+KARvHeeLd129T6VoFvvyS7Wv4BB/X+mf4vP+jtg4M65meoNTH1eKCjy/BFtzEaggYXmSFvPXAU7zYf7j+njnKO+746dxyHY6XDmmNfzr/dLo17GdJHowTNZLBd7XWQkZAAAgAASAABM6FQJPAd0tutNeevfm0Z732vJPg/meaELgBPO3BtxMCXUbOg68Fvp44WNEf+wKvq886wgUi41wGcFRtjQDNCvwMH19fCQGeWoqTOh8v48wCn9qTxT2HR7UxygUCQAAIAAEgcBQCTQK/XQxbT799gc9OApzITgl8nixokU5effvRK5cHC5SSwKd4Mg6nWz9kUaHDoxoY5faJgOFHDwLfrPf/Gj7jkpwfc5zaUnN9e2nvU9J1IExhd33yHbUCAkAACACBfRHYUOBboe7vziHPpQQ+CXny3nPIA/oSDz7lIcvmPNcPITL2JfBZS9tG4BOfY0t08oL95/trePJSoK+v4X3C9fc0UdDino/PyhHUGwgAASAABIDAXAQaBL7zoLMnPRX6or5FRPtedrskiJf8nEfgU2OwuOBwbgMh3TURMLyY68FHuuj7NIQp2xuH12QP7goIAAEgAASAQB6BBoEfCvXSNpnu8Xvsxdf34E8ESNzrZTnfA4l8G+88Ap/FBYf5JsDVOyJguAGhHhXqrt8I+5zcNbY3Hd6RX7hnIAAEgAAQuDcCOwj81FKc1PnUoL5U4PtPB3JCYck1LS74+N40w91rBAwvIPBXF/hsbxxq3HEMBIAAEAACQOAOCNxE4GMXnTuQ+Uz3CIGfmsjPP8+iXodn4gXqCgSAABAAAkBgDQR2EPg0YMeW6ITLcfKe8xYPvt1tx70jgH3w1yAL8lgPgZLAp60qKY7/zy/LRra9NB+s8uPLvew/T05bFtA/378S23CqtFTm8xl44VvKytu8Kq/wxIOxolYy+K7XXMgJCGyHwOel7PwxPJ7v4ceU+DO8n6/hkyn95/0cnm8bOxNtutQaf0qIH0AACJwKgUUCf83B+Sp5QWSciv+HVdYI0IJgNTYRFdERga/zGvfKdxOFWoE/7sLz9Xv40Xnq42jdvocjBT41KIt7Dg9rZBQMBGYh8BleDQL/83oMj1duCuBXojW+nxpHQAAInAUBCHwtWhYes6jQ4VkIgXrug4DhRwXXyJv+eHzZF83NHvXspVeCfQ0PvsljzFf+TtWzQ4EPu9uHv9crhTzlZFvPIXCG/7ztNrKT6P4Mr+Dpmkr7QyKdbfUxPF/ska9Brl7gkzeexD2J9hovvon/fJm6leO3YFJzX4gDBIDAnghA4KfEy8zzJDAgMvak8DnLqhP45E3/NTy/HmrJTMSDT2I78LpTPBYZakIg+G0nEY/hkUkvl/vw07bqyYcoi9NuEWq74+NzMgS13hcBFrOhUDaimPp1T+BHJgJThe0E4DXNFH6GDwnxKf0U0f6YuURHe+LNcaqMYTCTAFeH8X6znv8WTNQ94RAIAIHDEYDAX1l8sKjQ4eEtjQp0hYDhR457xoP+GF4vWoduhboT2QmBH3gVR8//e4tlM3by8Xr+Guvo1ssfuUQHdtcVzU9UGStmX+/38PREMp1/Du/3Swh0EvAZgW88/nrdfCbN55XxvlP5fl5GyD8eQ1Sb89MGcTEbnycXIr5rtBZMXCr8AgJAoA8EFgn80j749kNV4Quv/zXCpmabTP/jWnLf/H8je+ZbryBth8kfx3KiIx3fxVnDq0gCAyKjD3L3XIu8wLeC3op75qc8FxH4uclC7pq37Ie9/fFQ1sd4780LtiT03USCbOhIgU9tDvvrmfm91m0Usx8Ox3qSACbBz6E5nRHr5rrN4/F8De/PZ/gpvf/aKPA1gtu9NMtYcJjDRNcKx0AACByNwAKBTwKdxPvfw/9yAsJci4nuksDX+9b78dOCPVYWfTCrddceFlZtoRYXfHx0Q6P8vhDIC/w2zrmJqZ0EUN7hf3qJjktvyyXx7p4WhHUx4l4u56FJgjg+UuCzvXHYV6ujNv0i4EQsr2unupL326xVDwR+xMaU5//zfpldpqwtPofXJ6H0uxf4w1DGpN+WRc2AwF0RmCnwSUS/h/97/2cgL/67IJ5tnD/Dv0bsS698TnSH22LKJwZpwX68wGdxweFdyYX7TiNguFGcGJO4Hne1UaJdetO1QI8dl0Q3iXbOMyvwzdIh32NP5RnRP26ZWSorVr81zrG96TDdCrgCBBgBJ/CHgTz0r+FDL8pSSFECgZ9ZosNZipCeADxTy3oob2Xf9pjKpnr5S3REtubn9h58KqaEia4VjoEAEDgagSaB75bcaK89e/PJo6+Xx9Ae+P9MEwI3kPseeXeePYZzPfg0geDJBOcFD/7RREP5PgJGhBYFfmopTu58xLNoxEPeg18t8It1PnaJDsS9zzMc1SIgBf7ouX/aHWpMDi0C34vryqenAdGl7i5K5JcS+MnJQGj3pqzW+F4NWjDxEuIACACBDhBoEvihCHcCOn7Nevrt2nk7CSCvv41bEviUt03PH6wqr8G3edLTBRmXykt7/Ev30HadPTHUtiw2OmhnVKEzBLYT+HkhH7dT64FnD34qTu15ePA7IxuqU4GAL2YH87Kq8NJ7or20Bp+u09Ie8r/bv58PbbUp8quo0Ziy6MGvzqo5YgsmzZkjARAAAhsjsKHAt4LeF9ryXI3AbxPXw5u89/QEQXv/9xX41GYs7jncuB2R/ckQqBP4xP/YEp2UiM+twddbbfq2ZZbYRJcJxLbP9NNq4X+kwGd74/BktEB1D0NAiVldj0Dghx5z4tzkoVf74JsXbie1T2I/v+zGFU/1qo3rUq3zqwWTdUpELkAACKyHQIPAl2vn9c44/rEv6vNiQIsD/9hOCNiD74d6/b4v6u26f7eUCB789UiDnJYjUC/wl9jPvdKyqNfh8tZCDkAACAABIAAEzoVAg8APxYJ86dUX5jourcP3JwEk1pdMBHzB7ot7rosV+fadAD++rt96x1pc8PG5aIHabo2A4UXFenbmMsKyjRKmbG8cbt2OyB8IAAEgAASAQI8I7CDwU0txUuflQN7iwZfpwt97CnwWFxz22PCo07EIGG5A4I/v44T2OmdCw/amw2NbGqUDASAABIAAENgfgRMI/HBHnDmD/54Cn5oRImN/Mp+pRAj8dUS97AsIU9jdmawAdQUCQAAIAIGtENhB4NNAHluio9fQxwb8nAff7sMvB/jc7z0FPkTGVnS9Tr7VAp8+IjXuLz/x+/WV/BDV5xl5+U+njz05MPvbj2nFR6uGN724G9/3PrrrTqZuU/1j5a9wTtsdH1+HNbiTrRAgruC/Xwy2anfkCwSujMAigb/1gH3G/FlU6PDKJMK9tSNg+FEjahsEfuoDVanzzr5opx63M48f/1wCH3bXzkWkGJ+41tgj4qy6rM71QTEHnz3HNg2eAgEg0IYABP7KHTZ1RtwhcdjWJIh9BwQMN2q4t4fAD8rQ223GPfjMdR0+v//aXQSQUGB70+Ed+IR7XIaA4UyNPSLO7rbN9ryshZEaCNwPAQj8lTts7ox0eD9q4Y5zCNQKCrM/vbdk5nsYMstg5izRoTL0chu3lz08+Ll2xLVrIFBrjzUeZ8RJe+PnYMNj6TWYhrsAAvshAIG/gcDnDonD/ZoTJZ0FgTpB8RxeX7+Hjxbg5HEfnxRpb7m/vMZ+oVbH0YPsXIHPddBhqTxd/lrHBlO84H4WE+iqnoY7K48Fa/H67vmwXXdFGFQGCJwAAQj8lTt17ox0eAIuoIo7IlAjKJzwpjXyYpmM9uALwU/55v61p96IhxlLdHoUHXzf1IwG3x3bE0WdGwHDl5XHgh5t5Ix1gl2f27ZQ++MQgMBfuVNHZ3Qcmc9UcklQkLj3ds8hEc5LdbTAX8zhhpdsl04mFtc1/fjfYCrEPR+fiReo6zEIlOzxjML4KnVmO9bhMUxBqUDgPAgEAp+MCP/LMKDmR2d0HiM4oqaGHymxS1tWspgXcablNxmBP2cNvhECjdtkSvEw1UvUVV7f6zf3W9L+jmhblHk+BLL2SLyOTWwnG42/pyJ532ojrfFlWVf7Dbs+nz2hxn0g4An8VJVM5xcRrThv4SvhkMIV5++LgOHMXEGcEPgpUZA6XycE1hcvdeWmPfWp9Ck7vC/LcOe1CLTbo30/5sfYcNlGzMS75nsUY5/QGj9lE1c4D7uuZTHiAQEfgaLATxkXzteJe8bJhx1Hd0fA8AICf9Ut9whTtjcO784z3H8dAu32WC/waYJNy+1ItNe8gG7if30Nr6+K+ObJG7+fQ0vt1NPnL9oh65hta9eaXMCu6ziMWEBAI1AU+JSAB0uEbaKe8dKg4xgIGG6sLPBpQJ29RCdZl7J3ctkTgnZPfUo4sL3pEGwDAiUEivY4c4mO9sSb42lpT8h9/zrZ3sN/F0fbaSDw3QfrjJ38oYlIxURB59vRsbZnPi61Ka4DgbsjUBT4bEwI54l7xu3uRMP9+wgYXnQ0iKZE85nOE6Zsbxz6qOMICMQRKNpjYlmctY9wEswT7eiuVfy+i1iyk43PkwsRf7LLksCnPsaLE04qprw67Y9g13HO4iwQKCFQFPilDHAdCACBdgSKgqLTwbZnMcCiXoftrYMUd0OgaI+NAl/byWZPuTzx7u+G5epgnwREJxsn6Ge0PfPx3TiK+wUCrQhA4LcihvhAYAUEioLiBAOvExB9eAUJUx78OVyhqZDFDRAo2iME/qrvy7T0HbDrGxggbnETBCDwN4EVmQKBPAJFQQGB3ywoWNTrMN8SuAoExvfMcjbHy2T0S6zmA3ThEh0tYOHBn+8E0PbMx+AtEAACeQQg8PP44CoQ2AQBM0jlBMX7e/jf+5/h/X5H///v/Z9AANfH/8/w32i+f4Z/TZ3+DLH8tWjp7Zgw5cGfw00aD5leDoEae0zzXQn85GRA7XDzeAxm2UxrfNlv1CzR8eLMF9rp+982T9j15cwNN7QTAhD4OwGNYoCARKBGUJBg/8jBfPbvnGD/M7zfLzVZyMXfdjBfIiJY1OtQ4o7fQCCGQI09prmpBP5sO51hW554j6zBxy46sebGOSBwCwQg8G/RzLjJ3hCoERStAr/egy+FRKvA/3v4vzd7+l/DJ3gSQJOS8OlCWhzJuiz7TZhC3PfG9HPUp8Ye0xzuSeCrpwTYB/8cBEQtgcAGCEDgbwAqsgQCJQRqBEVOsIded7ukp9Xjb8v4e/if53XMefC1wP9n+K+X1or+I5b4aHHPx6W2wHUgUGOPaYG/bGKKfPP4sR3rEKwFAkAgjwAEfh4fXAUCmyCwhaDITwi0iKdBldfia5FOXn279j8U6iWBT/nKOPnBe01xQ5hCBGxC18tnuoU9rsntO+cFu768+eEGN0IAAn8jYJEtEMghkBcUTmCz0E6FKY89if1QnGuxTeWQ8OeQry/x4FMeduKQqttWYkWLez7OtQOuAQFCIG+PbBcIt7LdXL5sxzoEc4EAEMgjAIGfxwdXgcAmCKwrKOZMCHwv+7/GY88v255X4EMEbELXy2e6rj1iIpAT7K3XqG1g15c3QdzgBghA4G8AKrIEAiUEagWFFd56q0wW4nOFBIl7vSzne6CyrNf9vAKfcIcYKLEP1zUCtfbYKk4Rf24f5dJpe+Zj3YY4BgJAwEcAAt/HA0dAYBcEagQFCe7YMpv48hteT68nA6m19G4ADUXIUoHvPx0I88+VPf8aYcqDP4e7NCYKOT0CNfa4F49Rjt8HwK5Pb164gYMQgMA/CHgUe28EagRFm8D3B0VfJOQEeyxdLr4U77Rjjn4SgF107s3sc959jT36NhWzG5zbAiPTNngyd07DQq0PRQAC/1D4UfhdEagVFOss0ckJ9pgoycXXAl8/McA++Hfl9Jnvm+wR/31jQPxisX9mrqHuQGAvBCDw90Ia5QABgUCtwN/CI3bVPHnw16GAHT+BQBQB2GNsot/HOW3PfBxtSJy8JgKfVzgBf76HH3O3P8P7+Ro+mTv/eT+H59vGzkSbLrXGnxJ29gMCv7MGQXXugQAExfrigTDlwZ/De7AJd7kUAdjj+va4liMBdr2U3VdM/xleDQL/83oMj1duCuBj1BrfT93PEQR+P22BmtwIAQiK9QUFi3od3ohWuNWZCMAe17fHNQU+NSvseia5V0tGnnJyojyHwBn+8x6e5GCZRPdneEWXvYm0PyTS3bKw54s98jUVrhf45I0ncU+ivcaLb+I/X6Zu5fh0n+KeuOoGj/xTBY66ZQiBvyW6yBsIJBCAoFhfUBCmEAEJwuF0FgHY4/r2uKbAh11n6bvTRRb4oVA2ojgQ+BHhO9XUTgBe00zhZ/iQEJ8mCFNE+2PmEh3tiTfHqTKGwUwCXB3G+816/iHwVUvhEAgAgRpBQdthpr5gm9o+syW+PwD7H8uSX6H9N9gph8UAvXAb7smfjs/ptgm1COBjsA0IlBCosUffXrbhMMoIcWU71mGpTXF9bQSs4H2938PTE8l0/jm83y8h0BPCl6sU9XBn0nxeGe87le97y42QfzyGqDbnpw3iYjY+Ty5EfL6NYUjUOXp/LtVev+DB3wtplAMEBAI1goIEvhTa8wf/3K44NKDKnXHomPbUd9tfpgV7fwIfIkCQDD+rEaixx/n2F4pW5FWPCbUN7LqayhtGHAX+h8OxKBLAJPg5NKcTwneqnc3j8XwN789n+Cm9/9oo8Kdixh/bvTSbuE8IfN0EOAYC90GgRlC0CvxWj78TGeEEgPLipwRnEvjEIIiB+9jRWndaY4/GXl5fw/P7r8HZzvcwvL6Gx/Ppn3t/D8Of33Zd8ihQZbrP8zG8XgmRS/mNaabw6/fwQ3m+/xreX1/Zif/P96+wjiZtvLzW+N69Z/JdK562Zz5eq+2RTy0CTtjzunZKSd5vs1Y9EPhuff3EY+X5/7xfw/P5HPn+HF6fhNLvWuBH7tPYr/9UoRblNePBg78mmsgLCFQiYAapwuCYE+z0OFQPoK0TApd+rgeflvX8Gf5V95GeEMQFhqvHsus8iFATQARUEhHRDAI19mh4Wi3wn8Pr8Wt4/2FOkzB3oj4r8JU9De/n8GoQ+JR3dMIR5Gvr1hp/LXutzQd23YuROoFvl6a8hg+9KPsYhWwg8HNr8MN7oicAz9gLqxSV8taT3klEU73yYhoe/BBvnAECQGAjBKoFRWJQjg2O+QnB38P/snmRyHcfrZJLg+KC3S7joTQyLtUrHp+FznahwVSIez7eqAmR7YUQqD+tIakAACAASURBVLVH8nY/JrE9cjnmwSfvvfbqi8nBVgLf1O/5HCh/+cQg1l/QOXs/X8PrqyK+eSLBTw9oAqM8l1+/htdLPd3I9jl1fQHbsQ4vRL+T3IoU+KPnnrzvvDa9ReB7cd3t09MAzs6dLf1SAj85GVB85TX6rfG96mCJjgcHDoAAEBg9zMnBz3/hNfXiLJ3X4poHcrnEhs+tG1Id6SmC9v4fK/AhAmBdcxCoEvijaA+WtIglNW7ZzQIPvsiP6mX+p0lFeomO9sSb4yldKKb96/YJQ9bzHwh8+YSCliTRk4aKiUKy3wvrSH0WY0DtatppTgMjzQoI+AJ/MOvMhZfeE+0J4TvVgq7T0p7P+LGqYfj50FabIr8pbumHEvil6KteT9wn1uCvijIyAwKnQsAMVI0DXVqgL58Q2BdrnQffn1S4F25tHXxRb58cuCcE8OCfioqoLAvHnD164tZfbrPFGvy09z0U+Eaokzcytqbf1NtfspONz5ML/fSBsPEw0BOYUZx7ceKCPd2PxeOzqNchiLs3Akrg6+IDgR96zKkNJw+92gffvHDLS/CbBDIEvm4KPsYafEYCIRDYEYFagf+vWDbjRHe4/r510GyJ7wt2X9xzPlbk23r58eODNqdbMyRMIQJ2JPGFisraY1S0ktAePdixJTq5ycL72yyhiQpySieW8oT2EQp8HSd4wlCoi06fPPZwSAh88xJwYrIxsx6w6wsZGm5lVwQg8HeFG4UBAYtAVlCMAyGJe97JRg668eU3tCY+5YGP5yPzbPPg50X7kQKf0IXIh5W1IlBjj769CBsIBH5kfTovtaFwXCMPgS8wzIh/bc983NrGiA8E7oYABP7dWhz32wUCNYKiTeDnBstwG8xQrNAEIdwRJ4yXK8deO1Lg8+DPYReNjUp0j0CNPZItmJdSpVgfBXvOTj5PtVa9woNP9Qn/6QVXePC7JxMqCAQ6QQACv5OGQDXuhUCtoFhniU6twF/yBMAJ/yMFPrHIYCvCezELdzsHgRp7NOI+tjY98OA7WyDh3yzwM97sYB98XjMfnRD4kwTzxKA1vqxLzRIdL46PQ24SlLum7ZmP57Qz0gCBOyEAgX+n1sa9doNAjaDIDXq4FooHwpQHfw67aXBUpGsEauwxJfBT59lGNxX4UoBv/dsT75E1+NhFp2uOL60c968I/YlzL3jE2hcCP4YKzgGBjRGoERQsEBCGYj6GicFUeO75eOOmRPYXQKDWHndZopMV6uUlOjHbWOVcIPCV0ME++BewhPQt1NrIKlzL2kDdeHCneqTGOgj8NJ9xBQhshgA6y/U7acKUOzoON2tAZHwpBGCP69vjWgILdt2HqcFG+raRGEsg8GOo4BwQ2BgBdJbrd5YGU3jwN2buNbOHPa5vj2sKfGKdtu9rMrHfu4KN9G8jmj0Q+BoRHAOBHRBo7SzjW2O6Dif+Mi5/oIp2yOHflCa1pSbvolPzUq4re62BfGk+hClEwA7kvWARrfa4lKtIX99/wK77MDjYSD1n97ZvHvc0UyDwNSI4BgI7INDWWbIgd1+LTXcg9CEq/SEsLfBlR0VfwdXxzyvwqem4s+Nwh+ZEESdHoM0epf3gd7ovWgcbtmMdnpxyp6s+bGQdPm9hL9Q2MfuAwD+dmaHCV0CgvrMkwW4/VGW/Fis98WGHY+M4T7z7+m0qXavAl1+yfQ2f4ONa/wyf93+GLTqxUp6pTu4KfME9bItA0R5j20t+/R5+zMuA5Rdf6eXc5/df1XbRFN+8/KpeeH3Qnvm2f4jt4lOypZ6ut9i1acdtqXK53GsxK9oIXoyttu+17YvbMAgvx1bcEBA4AQKlztItudFee/bm05712vNOgvufaULgOpG0B99OCHQZOQ++Fvh64mBFf+wLvK4+4cRkjWtB5/aA/+IEptBFFUv2GPLzObwaBP7nab9gG+YTt4Wm+CTwp7pQfjThkII//NBWbT16iNdi1xy3C1KdpBK1mFXZiJxsepyMfA9Cxh090HISfPaJ6Z62Q23D7cgh0Q8j4EmMENW8FgJVnWWTR8R6+q3Xzk4CnMhOCXyeLGiRTl59+9ErlwcLkZLAp3gyDqfbPkx1ctdiDu5mCwTa7bFe4PM++STapYBJCQAT/+treH3VxR+iAh8e/C14cuY8Zf8o78NwX56I/J7SZsck/9sIzHvmeVGwv76MfZjJrRGs556Y8n3vEXIbBmGkLXEKCACBjREwhpjtLFsEsRXq/EjedijyXErgk5An7z2HXOYSDz7lIcvmPLcPg84NHvyNWXyd7Iv2OHOJjvbEm2Pl2ZQCwL8+euJjX8+VfUdU4MODfx12LrsT4jb3jZRT7DhVgoxr8pC8079Hge74TPx1Ij0Q+HM9+CYdT2BpUiG5/hgeG32Pwd3X9mNZa1lBO40NCg9+itk4DwQ2RCDfWToPOnvSU6Ev6ls6Ht/LbpcE8ZKf8wp8g6t40XbDJkTWF0Igb4/fwxCIF2lr4Rp89kK+XjLe+JuFjRDu2fg8uRDxPQHA+XlChwVQZGmEFmadH6fES4x+bP+xa3c8l8ODr3Eo8aFz+rw5znCFPPaa71LUy9+Gv8TbYLIrl5e5yUHId+a3/9TA5ktP1yqffmXuxyuz83jcVkEoGxW/gQAQ2AeBUmepO5fSNpkufuzF1/f0wp2NR+JeL8v5Hkjk2wnDeQU+tZ7u5PZpUZRyZgSK9tgo8J09WlFP4qdmeY5Ot8ZxIKw6Fyv6nrU983GMb7lrsfhXP5fDg69xSFjQb3ks8THnM9xZR+C7CXGSt4EHPzIR8OK4PDW3rnIs2022Hzz4ksH4DQR2QqDUWeqOp07gp5bipM6nOr6lAt9/OqDvZavjVCe3U5OimBMjULTHEwv8rextr3xb7Nq044l5uGbVa7BgbDnMlW/yywj88ClX+xKdx8OJ9UUCf3zRXD9R2Iuze5fDbR2EuQbFNSAABLZBoNhZqo70PAIfu+hswxjkuiUCRXvkZTLeMhjydtJSgXCJjh7gd/HgR5fqOMGk63SWYyla6Pce/ymurVX2WfPPc8ZfLkOcf4hlZUnBrsa6fBnfg3mpfNoG1i/TpbVLfe4k8KWdML/gwWckEAKBHREwxtjQsdUJfPLIx5bohMtxXEcY8+K3ePDtbjvuHQHsg78jjVDUSgi02qNvP0rgJycDoTg1AqQ1frTfIKHD65KlTacEkIzT928W1dTULGJSzV66nkp31fM5PPiaDPl3DA9zLco9wR85yVTr66MCX8YPJm+Jyam3/CbF7/sJfGozbr8pjDUkzgEBILAtAlWdZakzxXXvwyJTpzbunsPH27Ykcr8CAsvsUQn8Q+zy2gKfOMb2zGGMd7lrsfhXP5fDg69xyFjQsT5H18y5BdyOCvxMfsn4NQLfiyMmIJny/En7udLINpNtBw8+sxohENgRgaWd5Zk7o63qnurkdmxWFHVSBJbZYw8CnwQJiXz9lCDhBT2R0Gmxa9OOJ+XgVtWW+FEZseNY2dF4C3iTFOyJPJPxPfEe8eD/wS46bAcQ+DFm4xwQ2BgBY4CJjm0rAXz1fP+fvStHkh1HlqW3XHrrKbf+9JZTH/3Jrecl/iXyFHOI6kvMJfgtgAwiENi5AqSXWRmSJIjFY4EjCIKzU0MEf2ftvV7xsMd+I5Ytds15r6eh63tE2MTwiZ2TtfF9Jt+KMStJ2BNlJvMHBF9NarEP/iw+EPwZCvwAAschsNZZXp2sL+kfD0QkRYPvceJETYMjAHvsm+CzPXOaUrfS9dR9dz5fi5nJlyDjS/w17tnO5liGQXpnxUbfgcBZCLQ6y9JLtvZDVeELr/81Drlmm0z/41ryA1r/RvbMt86ZtsPkj2M5Z5XO7/Ls4dwD54Yv2Z6l3sPV22qPe+gvyoz7hxa75rzDKeCJDa7FDDYS188e7JZkw3LklFQKEfwTDQtV3xeBNmdJBJ3I+3+m/xUjKDHSXSL4et96P3+asMfqog9mte7as43jTDm5+2oZel6LQJs9bqOvPRCDEdoAu67V4n3zwUb6tXsjG/Hkej7eVyVQOhAAAjEE6p0lkejX9H+vvyeK4r8K5Nnm+T39ayYCMiqfI93htpjyiUGasPdH8Anr2bkhgh9TPZyLIFBnj/QyrXxp1R2HX/FM7WpDJKH0Ui5dV+uK5cuzYm9xJuhmz3GZR/w+6wu63La1qbZnPo6IEad2RKDORvolwWv1sOf7STZsF5ySKiCCv6NBoGggkEKg5CzdkhsdtedoPkX09fIY2gP/n3lC4BySH5F359kZL43g0wSCJxNcFiL4KZnjfL8I5O0xtjvN1/R87kXwnS0FtkovGCYI/uhEPujr52klyYZJC6f9atJ1W5a3kY/OmhdgP5PT0j74Mu9HxlKHky/ZfvQiN6mVH9hivaL8snw+H36BV9tf/xNutosgva46omdAoF8EqpxlcTmOdEQ20m/XzttJAEX9rRMrEXwqx97PH6wqr8G3ZdLTBZmX6ktH/GV7t/8dODdE8Ps1gM5aVmePjtBbu3LHxQh+QGZiH6WqsImbEnxSF23fnanQ5ZtTthF/y0pDwMVktETYmWi/H/z0Sj4tq7ANHi/pw3GiXibyywl+pu5O7JFkE7MPRPAvb5boYI8IlJ1lxqmwI5tTS+h9oi3P1RD8lvooL0Xv6QmCjv6fS/BjTq5H+aNNfSFQZ4+O0DcT/NlWyXaonAzBL33ZtoW8ePW22ngf+Uk2sOvz7aVoI89vFSH37SUg+MGk98u7P8hfq8sZgs+6pNNoZL+mvo4IPmmIthMQ/PPtBi24IQJ5ZynXzuudcfxjn9SvGZDthIAj+H6q1+/7pN6u+3dLiRDBv6FCD97lvD1+7OpDSBwZIALD0UZasiPtL76s5+uLiH2B4OeIRYa8uHbJdoz/OyAteDJ3irWVbCR8ivVrkiRd/jYTZLIntYzHTn7ZppZH8GO2sDiCP8CEm2Sj7YSUBAT/FFNBpXdHoOQs+bEip/KlVz4XT2kdvj8JILK+ZiLgE3af3HMbLMm37wT4+Y8jGCknd3ddQ//LCNTYIy0deDy+p4ch6aTXLkIZIzdsG+tS+irnn9MPk/4gSmrti+pn/Q/SSMR/XZuOs2lqJ/eHpGjkVBYncuyAgMGe9TCSxmxAknr52+hflOA73QryR+qM6vECG4lNCKJl6zZ0MuFmuwjSHfQARQIBIFBAoOQstXOpI/ippTip886ZTq+WCL68L/x9JsEn2LWTK4gCl4GA1Rk9eItjQ6A/RNv9LhF8P8JPeun+M0t0RL3Tq47ga39xpWNtz3wMtT0WAYO7p5vK9wfE2tkH6WNA2D9PxJxNkH24qH2Qn+suRdSFnflP1VR7ubymtM4ej55wM4akEdI+EME/1kZQGxAwCBSdpXI6xxD8cEecJUThTILPzo1TqBsQqEEga4+GiPiEnKL5+V10cmSCiI9fXtrOFKFQfiF9X67+sa6RbNieOa2RKfJsi0DWRoxernzJdoVux54ezLax6YRA2WMwqTnHttgugnRbFUBpQAAI1CBQdpa+o6gj+HRPbImOXkPvl20dYS6Cb/fhnx1mwRGfSfAJe+3kauSBPPdGoNUerS24CGWcYCyI4LeSkdb8BduttfEj82l75uN7a+zxva+yERmVl0vLYhF80kWZX0TeqS4ZzS/pW9z+YuPc59xiYq4Ifif2ZPGy8XppH4jgH28nqBEIWBLaiXMoOc9RrqecHNQNCJQQMINisz3WEPzaSH2GjDS361plwa5L2nvM9WU24nQxueQmod8t+WsIvpenluC3TqBb8yf63jrmGtlEglsg+MfYBmoBAh4Ca51lqwO4Q/6Uk/OAxwEQiCCwzB5rCL5cd+//3n59sCNTV7J32HVEYU84tcxGnE62EHbS35b8HnlPkOaaPKPaDclG2wmpCAj+CYaCKoHAWmc5qiPas90pJwdtAwIlBGCPjojtaaNLyoZdl7T3mOtrbaSFsJOetOSvIe+Uh3UpSNVyoiV6euY9RjaI4B9jCKgFCJQQWOssz3QmvdadcnIlWeA6EIA99k3wSUO1fUNrj0UANtK3jcTsAxH8Y20EtQEBgwCc5fbOkjCNOTmoHBAoIQB73N4etwoEwK5L2nvMddhI3zZCWqDHPxD8Y2wDtQABDwE4y+2dZeDc8MVLT+dwkEYA9ri9PW5J8Ely2r7T0sSVPRCAjfRtIzH7AMHfwxJQJhAoIEDGiP99MCDo2dkVxIDLQMAgYPQl8XLeVkQV5SwjSOwnSVCw6/MMFjayTH+PsHu2iyA9T11QMxAAAhKBwDg/EWict3GIpThIjPEbCMQQMLoFgj8dQUZa60jZfUyOOLcfArCRvgm+thPSBETw97MHlAwEmhHQRopjkPtmJcINzQjkyYv/hc6ZoHpfuKU8sSdSf0xuO8xEOZhYZCcWJBvtB5sFjBtWI5C3kX7J72yvF7YzbR/z8WqpowAgAAQ2QWA2SkTuDZ5b4bGJcFDIpREwupYkAAliHhD8P6bXb5/o/JgP3/DHrhLlJOv1y7oDUYn1MeUHLq2QHXYubyPQ1ZjuHnWOZKPthFQIEfwODQlNui8C2khxjAj+fa3huJ4bO0sS7QQxryD400veK3+DENWSH5KN9oPHaQZqYgRYDkhjT+rOP0dy0nYCgs/aixQIAAEgAARuiYAZGHcg+Ijgr5/IBKQFu2OdYqN5G1kv59oJH/KFWJNstJ2QkoDgn2IqqBQIAAEgAAR6QSBPXhKR9yCCH0bxHt9/Tu952U6inOTEIhzI70huUuSlF925SzvyNgJdPdM2Nbmfj++inOgnEAACQAAIAIEYAnnykiDmAcH31+Db6L08lygHBL/4ki3JbCYtiODHVHj3c3kbAcE/m+DH7AMR/N3NAhUAASAABIBAzwjkyctf0+v7S+yG8yEz9ALt95/TjyHocfL+fnxNj19/fQhsPM+ZxGCEukk2MfLSsz5dsW15GwHBP9OWtH3Mx1dURPQJCAABIAAEgEAtAiXy8vPrD0Pm5+U2vx+G9BfJe8Uk4ExiMELdM1lRu4vVyhb5tkGgZCMj6NJV20iy0XZCUkcEfxvdRylAAAgAASAwKAI15OXn+ef0fPwxPb7/mB6P7+n15Mg8RS9T0Xk6z9F/+5sH4zl9PLJLVK5KSmr7xTiRahk5DapjozfbYI/lZF3aKttFkI6udGg/EAACQAAIAIE1CIC89LvEIiAtWIO/RtUX31u0EfPNB/Wi+byEjZa58fcg4rpGT8ncE7F4HjkpbM0v773ab5KNthMSNCL4i9UdNwIBIAAEgMAVECiSF0QuT4tcpsjLFfRupD6028hjejYQfHpf5avhaVZr/quRetkfTe7n45EUDG0FAkAACAABILA1Au3kpRxhlAMwfi/HayYrWIO/tdo3ldduI/UE37zj8nhM/kvpaZ2x78R8T89v+RJ7In+w25V+yvDH9PSW24XlUH3PJ52PL7Nz1+SuWb+mydRNS/T+mqbnd9MTihafQbLRdkLCRQS/ScWRGQgAASAABK6GQDt5CUlAy4DcRV4iHw0R07PanCIvV9PB3vtTtJGFS3R0JN4cz5H/0M7863aHq2zkPyD4moTTRCQzUaD75/YQwU8tNaJrouyZ3HMfqK3i+oZPBTW5n497Vyq0DwgAASAABIDAngjsRV6YFLeuF27Nb+qJECwbWWSCQWk8Akn95/XP70eOhHwI1SdiSPd5/5EJg4m26nyfY66TcYqlRjbiBVs+3lMfUHaIgME9R0qzEepwDb4h6vML6FJHXeRbEvdsftb9iP7ZKDqTckXCuT/eJMBvC9Xr7KiW4Fs7C54MUDtjbeR2LEzZBklq0j4QwQ/1GGeAABAAAkDgRggUyUsw8NYvPyDSashJw8Demp8e/7s9+ZmgWDLuyAmfz6d5gp+5l0hSpI+LJisC7xR5uZF6dtHVoo00Enw9mVurJ7q8+dgj7wmC/0rZiib0+ljaA5dNqZswz+0wOp27X5bV9ptJfZB2oTloBBAAAkAACACBkxAokhdBOO2AXU/wTQR7r/XFn3b5UUZBDhIRQzOBmKPqNmLvIu25CL4oW2OyI8EntdDk5SRVuW21RRu5IsEnnZ6X55DuW/JOWMz/83V37fH9FZlw0/00kVhoX9rexDG3RdqJ+X1JbX0/p6/n+5JdQ6eAABAAAkBgWwRqyAsPonM6D+zh8gOO2ulIvDme7wvJsn/dRhWrHuk3RPDDSKkfVcxG8KkeSW70b0Twt1XMjkpbZCNGP2h5TNpG2FZCvQztg/M2pWsi+IFd+bbit8MSfLvszNpuuATNnm99qubXE+JiZBOZBPe/RIfIunAikre/n4/p9fOxgJ/X9BD55D0PylQi/aoec//jNdnif6bX4znlpgw/r8dk6qk0yNb8lcUiGxAAAkAACDQiYAZIERELBtTG6CRHyKMDuSEc/paA2fxMqiPk2Wsn5xPjYKx+fqIw3/shQC/6Wq+5d2GEkeqPtHEtcTOyiZCXRhEj+0oEijaSsx9N8CO6anVPRMY/emx0uDW/bEsNwffyCAJN570JeYngC9sxZYpj0yYi+PqcqE+2u+E3Y0ciZnsxv1fKfN/bibTPJJuqIqItFUAQ/FJLSgQ/uP89Pee6ywT//fxqemrQmj9oHk4AASAABIDAJggUyUsjwZ/J82eQXktydXlrj3lCYYmBTziyEXyPdMhlSr+S2wCaCYWYdDAZMWlkQqD7xvlJ0PQbf+cgYLD35N9CTMsRfC33zY498k4E3df36XduFx1N6PWxxCAs2+o+v+BLeXP3y7LafrNdBGlZVZhUR8g0R81nIvw2LxdQJf6/uPeHiLO7/nhylDxsSSzKLc95EXxze1j/HPEXEfr5XFilOFNP8KlNtCSISHtNFN/kfzwNDsX8BuP80wPRaPwEAkAACACBRgTMwJgjL70S/DWRzVx/q67VEfy1RC0gLSD5jdq9TfaijWR1pieC7/in4anf+X3waTLsnoTlCHpI8O2ae/G0LvGUawsb0XZCUq+YDjPBD8mrIapE5j2CL8h8oFeWgD/duprpTeR4vl/d0BjBJ4Ltk3cReS9F8MUEwAjd65coRzVRR+LNcao/E60Uknh9sPUb7dcAgu/jgSMgAASAwMYIFMlLkkifvL5YkCr9lEAfByTCRDYV2dHRTVF+cD9FI73lC21Rx7C8+P08HpPImcRsLH4UV4FA0UayuhKXba0OnJovWKaztC/7LM8hbNgugrQsV0tCn6/YcpnH9Ho9BUEnAp8h+FGyWrhHEW/JhZsj+PJm3fH3MxN9Dwm+Ieq0h2tsYb7pp79kJ5uf+xgrLIqZbjyOgQAQAAJAYCkC68iLik4mJwOaTH8ig635E0RKE3p97JEkb9mCJCwZEtLaztb8iX4FpAUR/KVqvuq+dTYidWy832RLLoq/sP3Zp4ALy/zYDMlG2wkJuzqC/3x/iD4TWiKlFKnm1KhOgazzGvrHc3q939MPvyC7UO1Cgr+wILqtkeDrmuTSIX1t1TEI/ir4cDMQAAJAoITAOvKiCH6CqHoEe4c8mtDrY6/+JQR/hzZ7bUqUnyIvJZni+rYIrLORdQS2Rk/unEeT+/m4rAKO2PNac7qHItLz7jTzkhS7BIcNck7n63Tnz/R+Pc0HMez1x0STh83+OBoevAfgR9SD+kDwA0hwAggAASBwBwTMgJggmGXiMCDBp76uXqJzDGkzshHLc/j4DnrZUx/X2cgxulK21Wu2g2TDdsEp6U5DBJ+yE4F/Tm96UZZSc6phiU5EW+kJwKO4rCd8tGk7lFkOpOsi4h9bAsP5khMD6me4RIdv4xQRfEYCKRAAAkBgLATMoLiY4F+TNPRCluxYb6mKJC9jadj4ra22kdhSFFquFdsxSU0y5b7x/sutysZiy7/m90HKE+7s062IH2jNf7TtsF0EaVntXASf8prI/cPuGmPubVmi4+V1NVOZOe7tcvq/okt0kkS9EMH3i1ZHiuDn6lBPDky/WvPL2rFER6KB30AACACBzRGoJi+Rwf/owfxu9QWkBWvwN9f/mgKrbaSa4OtdZ4iYux1rsgQ/sEP5wneZ4JttYmMTjqBcO7FozX+0jZJstJ2QTBsj+LTChj4oJSLnHmkvrcG3S3geL4qJ27+ftyqvRtM+eVIEv7j1ZEMdn1YWP3TVXGTtDSD4tUghHxAAAkBgEQLV5CVBAI4e0O9UX4q8LBI0blqMQK2NULT7a46mfyLvsQg+Re81yRaTg70Ivmnf4zFR+fKJQcqmbH++p+d3RX7v3RaawKjVJ4UtOVNtKJ3X5H4+Lkvbj+AH+QOCrzr06eAcoVf74H/RC7cz2yeyX7/ne4rgs0MI0/qy/X6qCL5/cd8jEPx98UXpQAAI3B4BMyCCvE8lInHG9ZmsfCL3fHx7pT0YgCob+ZD2YEmLWFLjdqNZEcEX5VG7zP88qUhH8HUk3hzP96llQK9fZhLgJiv2CUN0qRH7joDgt3xUK6y/1t4YA1IJI6ePblRE8A/WIlQHBIAAEAACQOBABMygyIN0LF1IKHiADghPrA5xriW/iTAyyflyUUY6T2RKl8XnbduItFgSwvn868tJB/d9bZoiLweqB6pi4ih0NJCrR24tGZ7JfCyCT2WZe1xQWEbUsxF8EekP2vEKCb4h8rSt+TOiz9wG8TQhm599gcg/t8HDQE9gPnV7eSLtyWGcuMakPkihuUAACAABIAAE7oxAkeAHA2ufa36ZpBPhYKIuz8nzlpSMQfBJNzV5ubO+ntH3rI1ESavTrSlF8AO7coR3S4I/E/BPfdom9PXFxx4OCYJvJiCJyUYGj1ybSDYx+0AE/wxLQZ1AAAgAASDQDQJZ8hIddOsJPpEJeqxPhEVGKFMDtsn/XbnmV7VNEhf6nYrgMyHQKbWP70u17+jz3EZSFiOnbrTmXg0x2Ct9q9aFgOBH1qeLp1BsL9GIO7WhMYKv2yntRF9bdXwipwK+ywAAIABJREFUwZf2wXYCgn8vG0VvgQAQAAJAQCFQJC/8WF6SkHntbrgkgEmCedQvHuWb4/k+F6308s/Xqdyv+PaCgmgRWaH28//j15/zy30pgu+Ik4uyMunpkeCTuGbSgl10lPYec1i0kY9Oan00eilsgHVdpu+HWqv+Wf/u9FTZSswejQ18T+/IEh1ZF/1mXdfnVx+fSPBj9lEk+EY4wnng2DnSUbA4xvxRCxAAAkBgTATM4ChIczDQN0YMDZE/Ys2vWIqj28xEXZOZkIBhDf6YWntsq4s28tHF6EuoQQTfJ+zNBD9nq5rgJycDIZczE4rW/LItNQTfy+PjoG249tjIJjIJriL4tZUg3zbC2hJHFvyxrgC1AQEgAATGQaBIXhoJvvbhmmTr62uOmcjrMvj8nnXrOvc45jFMp+No1zVaWrSRDMEnHYwS/w853pXgSwK+92+PvEfW4P+mpX11S/VabIlkE7MPEPy9BX5y+Sz0a7gY9AIIAAEgsD0CRfJyQYLPTxmYHMg0uTTihPGM20VSN3LaXvwosQIBg32F/A2Z16s+tl6ik21HeslcC2lelDcg+OopQW/74NcKdREYWSH1Fw0fsY9wiBWeC1mAABC4NQLFcS752P7kNb8cNfUIlVtyQ0S9NYJP+Xsj+KScPJZxemuFPaHzRRsBnzvtOxIkG7YLTo3NlPQEQh17oiGFXZI1rgMBIAAE7ojAunFORQyTkwEVzeM1+q35K4kUE/UUwUcE/46avrzP62xkbB7Ve3CXeV6QlsQNoY6tmCQ/LfSSzHEdCAABIHAnBNaNc4rgVxLwvUlDmeCHO5fs3aYl5evxi4/vpJ899HWdjYzNo5bo7ZH3kGzYLjglnTlvDT5FLQrrso4E6Kp1sbB12oPDQBuAABAAAj0gYPzjYmI+KsEPnygQDua/o7GZ20R6YuTUg8LcsA0G+8U2AoK/J8dkuwjSkp5WCVU9YpTr97y3o80LCHGnYj4AAtK/+Roukp8WeknmuA4EgAAQuBMCVeMcyM3m41MN6dHjFx/fST976GvRRhQPpPxf3jcd6H2VNNFPLSVL6UhT/ij3dO3xeGqmjam2nH3eYP35PoS0j/URfAJuFiIJj6IZksQ3PAYEwd/cgbKwddqDw0AbgAAQAAI9IGD844AD+9nE4oj6STYYv863knYbqf/aM+mReSek4clRU/4teWqHfkLbx3xcUpuSUGOzKHkunBmFnyieI/5iBjifYzDNDIxnXGEZXzttP3SEA9uzDpLfLOzMFwA5T0kfcB0IAAEgcDUESuPcnj4aZaejuoQNj006vZoO9t6fdhupJ/jEGWnJNpF2s5qDeV8iNfm/v+v3lI8SfOaTNLloCEQn2nSmHZNsYvZxeASfBOiTd7F+MRfBDwi+EshOHxA4U2hb1K2FzsfamaTO63w4BgJAAAhcDQHj/zocuLcYA0Yvg2TD4xOnV9O/EfpTtBERoGWZ1SzR0ZF4c+ytCvEngP71z4qRUuQ/SvCtXtm2Kj45mC9guwjSkmKZG0qdVYKVBD6cGYXR9zn/GoJPbfQmAb5SjO7klrbfKq+dx7HwYzLPXYvlxzkgAASAwFUQqBrnaIyJjVGZj2AZMvIhqOyLqzaXMGPZh4B4ZEcExMS4TBHNeRwV56m9NRHRpePLEffx2KTTq+jeKP0o2khW10K9ZduI6i3rvyDu2fzMQUV+Tze5PM8WEcG3M2fpMBp/hwR/IfH2yHvkE8CmXXY2F1WYxnZ7yjHwvdop8rF2KqnzOh+OgQAQAAJXQ6BIXngMaCD4cqmqHE9S510ef3zz84dEie67OsHn8YnTq+nfCP0p2kgjwXf6bjmhr+cLeSLbaWO6GU9trFdjsPSY7SJIS4pVFOqSDvFsy5tNfaIV2RkYz7h8B+hAAcF3WFgDIflpocdkznli13AOCAABIHBlBKrHuSMIflCHHdfYl3998TjoSBCRI3ddLj2oW9Osx42ejnls0umV9bHHvhn8c3xvYILfk74vaQvbPukN24n5XVKkolBJ4NHHH+xkGtY2BY7NOTB/+Q0Ifq0SsLB1quXO1/V5HAMBIAAEro5A1Tj3iZS7dcWf8SlDbHhZAZU//6eCWB/yFIvGuwgjIvhX18Ve+1e0kWTgliakcb2VPOaQCH6UqzZw1NwE58RrRjaC3M/HJWUqCrXQKeeYBFlPKsJX+uNXNUt0vDyivkIbpZJd7TfJbxY2dtEpqTuuAwEgcEME6sY5uyvIW693F+OZXu+uSYs+jo03Swk++3qd6jbF6uz5nB6/+PiGanpqlw3ui7mUIvjCZrS+6mOz5Lo1f7SdFBgOn35Nr1TAeBwOyZiRghg5fTRl/S46USAdMCmC3+x0PPIeEQh20Ynuoc+CPyo91QOhciAABIDAAgTMoFgYyxzxVkRBR/DXkhG634vyl5fo9EzQ17aNxy4Sq5HTAvnilvUI1NhIWtaK4BdsLV2O45bteZTdzm2I8Mn52pr6jruX7SJIS2JfJ9TE/qJZBxibYfEyIL5GAhGPPOk39sHPEnySMws/JvPctVh+nAMCQAAIXAWB0jhH5N4j3TSG8e42muCvJgc+4fCj/oooZcdSf4wcdfMJHpt0ehXdG6UfJRvJE26lt6ttZCl5jnDHr2ss0YnZx+4R/LzQlwoJ99XiqoXOx9qppM7rfK3He5Xb2g7kBwJAAAikEDB+KkU66Okxk3mRZybeGYK/ZA2+8e3mifWHoHt1l4nS3C7R1trxosd8JBseRzhNyRHn90MgayMX0bUe9b+mTWwXQVpSBwh17MkEyU8LPSZzzhO7tubcXuWuaRPuBQJAAAhIBIyfWkpSEgQ/RbRT52sG8qmXlxWXYrXgPh5DdCrlh9/7I7DKRhbIvc4exuZnW/WRZBOzD0TwL654Wuh8rN1B6rzO13q8V7mt7UB+IAAEgEAKAeOnlo4FIPjR5aF7k5eULHF+HwRW2chS28J9VbbFPCtIS6oAoY49QyT5aaHHZM55YtfWnNur3DVtwr1AAAgAAYmA8VNLyUSC4BPBXbxEJ9mWey7RIVnxWMKplB9+74/AKhtJ6vPY/GqrSezackg2bBecGpspqQWEOrYCsrB1quXO1/X5tcd7lbu2XbgfCAABIMAIGD8FElIVLVxLRlrvJ9nwOMIpyw3pcQjU2QhNQOVLq+6Ylqb5L3rTC6+8cYrmWaWJLF23esH64aXeLlS2bKrfy/PRKzrXvKtjZ76C+kB/QVpSD3NDZ51pdRB3zk/y00IvyXzL61z3lmWiLCAABIDAlghgnNMEq59jHkN0uqX8UVYZgbyNxHan+Zqez70IfkY/6QX1BMEfncinuCzJJmYfWIN/8cmLFjofl815mxxH17dNq1EKEAACd0LA+KmLjwUpctD7eZINjyOc3kk3e+lrnY04Qm/1yh0XI/hy5ygj81R0P0PuyYZvSvBJT9g+5rSkPJQR/+NjIIVfkvmW11nRtiwTZQEBIAAEtkTA+CkQ/G6X6JCseSzhdEv5o6wyAnU24gh9M8H37I/KyRD80vcfEME3AkUE31OqwsxwwLzsDHVaNudtcnC925SGUoAAEAAC2yNQJC/RF2kdCQmjk3Ys2f4l2+uNUaUnCCQbHkc43V4DUGIJgaKNED/6ROHdUhiyERcgDdfgu2ss5y+zLt/ZVkk/gutE/m9I8El+bB9zuolQByS+gVJctA9sNFL4JZlveZ0VbcsyURYQAAJAYEsEjJ/KjQELCD6Rfkd0HDFPnb/LmNTaTx5DdLql/FFWGYGijXx2jXo8vqfH/PIsEXX70m1qEtyqD2H+x/SUH4OL2uqvieqnPkT/IxOCsB5nw71d4z6RFI2cPuJEBD/n1C9wjYWt07I5b5OD692mNJQCBIAAENgeAeOncv4+ShpclDFGXlJEPnW+N9LQS3tINjyOcLq9BqDEEgIlGzEE+kO03e8SwafrCdI9TxJKxLqO4Peiz3u0g+0iSNcKdY/GosySQtdfJ4FroZdkvuV1rnvLMlEWEAACQGBLBIyf2pjg0ziGJTr1Y1Vq3OcxRKdbyh9llRHI2ohZmuOvmSfdz++ik9MNN3lO6YU7rwh+zo4veo1kE7MPRPAvKnBWfi10Pi6b8zY5jq5vm1ajFCAABO6EgPFTubFgQQSffLCO1utj9tNI02SPZMPjCKd30s1e+lq0kaj97BDBL71g+9EXaq9Z89+aP9qPtH72YLtsF0FaUp5lQu0bjB4EclQbSH5a6CWZb3md696yTJQFBIAAENgSgeI4lyT41r/S/fMLhDcgFEeNX1QPjyE63VL+KKuMQNFGosS4huD7kf8jdesqdZFsYvaxPoIfc2bzCw/lxyytEY3W/FcR4NJ+aKHzcdmct8lxdH3btBqlAAEgcCcEjJ+KEpRPsCpJ8C05oXFpJvi5cnCteStOkg2PI5zeSTd76WvRRqK6XUPw3SSZZc0pbKouWM52EaQl5TE3RAWXqliuhyoTfLNGseEN5tb8S4nxVe5jQyE5s/BLMt/y+hl1btl+lAUEgMD1ESiOc5FA1uPXY96rO0XwsQY/xRPqz/MYotPra2VfPSzaSBNPrJf/VbjYnv0g2cTsY30EPxBqPcEnp0j7lZITjG0npgEx+b+/p+d3RX7vpY/IZ5S/KeLyV3M0Qbep92MtdD4+ynUcXd9R/UI9QAAIXAcB46eCsaxEQlwAK0bw6VxsXEud730sOat9JBseRzi9juaN05NlNlKyIVzfwq7YLoK0pF5FoUYiG18VS3R0JN4cz/eFQvevk2P9in7MYAYrIPh2L1Z3nSYiFROFZqcftn2u84SySH5a6CWZb3md696yzO7Lej+nr+e7+2aigUAACFgEiuNc1HeD4B8xtvEYolPo7rEILLORvvjQEfp6Rh0km5h9rI/gR9cmslCdA+ROG6IuX0iSjvPzFTT5FbJsfp5cxJb4lAg+1evl4TZfK9VC5+NjXcPAtRFZ/xgPpZK3v5+P6fXz6dvPa3qIfPKeB2UqkX5Vj7n/8Zps8T/T6/GcclOGn9djMvVUQt2av7JYZAMCQyJA9sZjVH3qxrdYBJ/K4fFL+gM5vtXXda1xqaXfjB0plpHTkBo2fqOX2ch99bZFx9fmZbsI0pLaFYXaSPB1R3Z7XOmRd1qioyL4ZmJhnwRc+UUOkp8WeknmuP5BgEj7TLLpHBFti6fFVRD8Emglgh/c/56ec91lgv9+fjU9NWjNHzQPJ4DAhRAojnMyEIXfCyZDy4meHr/4+ELqN0RXYCPLdVjz3q2PSTZsF5ySUh0ewdcdA8HfV2lY2DodwqOYRjKpjpBpjprPRPg9PaNRdHHvDxFnR9IfT46Sh4jEotzynBfBN7eH9c8RfxGhn8+FVYoz9QSf2kRLgoi010TxTf7H0+BQzk99EvhxCw32+acKnBUpEOgdAeMfQdwPJe6aC6SOSTbjjl+9a359+2Aj+3K1lP7XnNf2MR+XxFsUKi+TCYgVbR/mHmGmGgmCv6/SkPxmYdNj6OH+mOCH5NUQVeqfR/AjZHTusyXgT7euZnoTOZ7vnzPaH40RfCLYPnkXkfdSBF9MAFhmrl2iHNVEHYk3x6n+TLRSSOL1wdZvtK4BBF8hgsPrIVAc50D+TyP/evzi4+tpYd89yttIYpVEsJLCBdeoPPsvt5hNlAP7y9ofY0kaZOT0UaUi4zOZF4OrCH5yMsCCdqlZNtOaX7YzUKzIEh0vz75EOzXB2fs8C1unfbsS2TpLQp+v2HKZx/R6PQVBT0Sbubho1LlwjyLekgs3R/DlzdwmTt/PTPQ9JPiGqKt3ArioiZ9siPqy+bmPIv9c1pTAJ4qluwu/gMBICKwb5645duw9NtWWT7IZd/wayQrybc3bSIKYexwrnufH8Dz+2FU8T62u3DWfto/5OC/Sz2xAEuem34rgN9270mmWFOs3dtEpyb6P6x+C/+b00yoipRSp5tScTpDRuSO2jK/Hc3q939MPvyA7X2/7ERL8tvu93I0E37uX3g5ofMlW358+TmAKgp+GDFeGQyBPXhIvy87vddE4pwJIZvxxASsqX26Z+X6o/JmxsfopN9UZ2XCipa4eCdJMVj5PoPl4OCUbvMF5G0kQ8xIPM3ov75W/V3LAjE31qOdr2kSyYbvglNTt2Aj+kYAHiuU72y/sg3+Iu5HKtqxCR+x5rTmVQxHpeXeaeUkKkVElZzqer9OdP9P79TQDoTWKx/R8r2T6smMcDY+1Ixoh/9zcNcGPYGr6hzX4UvT4PS4Cxk/VjE9REh0h+Lqsz2YUbledWoJPhOdrcltPZ0hPtG00OamtK1O27s+Bx9ZPW6qyfjwZV0fPbnneRhLEPOBhoS4igr/e7tgugrSkNHmhrm/YmlkL7i3jT/LTQi/JfMvrXPfyMh3Bn8xykef0phdlvz7ksimCH7aCngA8Yi+RclZe7hIj7Ln7+H5OqZ0Fgs+y8lPqJ2GQJ9OI4DPQSIFAOwLGT1WQVoqmf319lhN4S0gVcTHExp8YN0fwTRmfcuXvVDspDyL47cLHHVUI5G2kluD7NkFlPr7/nN6/mcskyknpPM6btfnMGUiQRk4fie4cwWehIT1rMsLC1mmVRW+QietdXpQk+J/I/cPuGmPKbCH4Xl7XInoakOPeLqf/K7pEh+qITgbatrH0a1IEP1eHqtv0qzW/VzmW6Hhw4OCSCBg/VSQLlnw8gg8kRiL4RLaDDzdSPiY4akIg6raTiFjU3t0vJws8tlRPPkRdfG/PKftTUrz148kl1feQTuVtJEHMzcQ0vb7eRu+lLSTKGUxnj7YntosgLWlGXqgg7kcLsrU+kp8WeknmW17nupeX6RN8+wKp2CnHI+0JMjpXbpfwPF4UE7d/P2/6QJUob85b/pEi+OWtJ8tl+zkUwfcv7nyUwBRr8HfGHcUfiUBxnDNE5Wuy30yxRNuR7ATBV5PtOfJvPoAlSc0W46glRs+H3JHElnuFJTqkCzyWcHqkfqCu0vuY1iaCbwrRU655ohsn77RszdlSPE8r77lbfrIJtgtOjc2UFNdkxuwpu0VRz8rEwtZpSe5bXed6l5enCL4uKCD4HCHz0zlCr/bBNy/czmyfyH5+KYysPkXwqc/x//qyZT32A1tL7/VLaj8CwW/HDHeMhoDxU8lxLkZe5LkIwU+WVSDz3rKflB+x5yWZMtF7szyHCBJHTK9D8Hkc4XQ0/bpCe/M28msyOiiX2/x+mCdWRfJeMQnomWP10Da2iyAtKV5JqNS5/73+mV6vV/T//15/B+S4Pv/f03+j5f6e/jUO9PcUK78HwHtpA8lPC70k8y2vc91blomygAAQAAJbIlAzzrX7dDsJYB/sp/URfCJOjiSFEwQmVj88qfAI0zVesiVZ81jC6ZbyR1llBAzurGOJ9Of550RPkR7ff0yPx/f0ev4l+F8qOk/n+emY/e3bCm2U8RDlhDbQbpvXKoPxknZifpfEWiNUIuzvhMDbgM8R9t9mz3O/vFz+awnQ73d934z8TnSOXH9Jz3AdCAABIHAWAjXjnPXBcQIio+k1vrq0bIZIO5eZJfjeGmc3LhjS/yFFpbpq2ntmHpINjyOcnqUnd6633kacHp6pN3eqm+0iSEsKWyPUVoJfH8GXitJK8P8z/d+LI/3P6R08CaBJSfh04WpKQfLTQi/JfMvrXPeWZaIsIAAEgMCWCNSMc5P5Mnss8p5aorM8gl9N8CsCa1cg+CRrHks43VL+KKuMQJ2NSM6G30fxSZIN2wWnxmZKYq0Rao6w05dGdSdbJwR0v63jP9P/PIeWi+Brgv/P9F/vXkv6r77Eh4Wt05Lct7rO9W5VHsoBAkAACGyNQM04t4zgxyYEZeIjCb4eP1uPr0DweRzhdGv5o7wyAnU2UtbtVv1F/jKmbBdBWhLrHkLNTwg0iafO8Vp8TdIpqm/X/odEvUTwqVyZpwziiIpG8tNCL8l8y+tc99Iyuf1IrRyvhMNSncB9QGBrBIyf8gJAqfEgtkQnReJzEXy5c0hYl1li8/Hdgc3Pu5KE98XGqCsQfJK3kZFIt9YBlJdHoN5G6vQypqvdnaMlcAOs/2cfIe3E/M6LtLQ1kiPYTLRTaWqNPpH9kJxrBaF6iPhzytfXRPCpDDtxSLWtO2WrGoAYG5tqp8jHJblvdX1tfeb+Bf2+guyu3Ie1erGVfqIcIEAIwM/440ZPvodkw/6CU2jt8QgUbSS2A9Q8GaXJrr+7k9YxmtTmXiZfm9/cH2kjv+viyo9N4q0Ocvvyk+b8xD72wnBuQs91uvaFtsp2EaQlNSkKtYl8LZkQ+FH2f03Enpf9gODnhE7XSH5a6CWZb3md615a5rb6FxpGCT9c3weztXqxVJ9wHxCIIQA/s4+db+E/2VfoNCZHnNsPgXYbeUzPBoJP++HHyG9Kh1rzT2p3KVuuJeMhyc/bQ57gZ+5NPBFondxoTEg2MfvY7Eu2lnjrrTKZiGc6nJ0gELnXy3J+TVSXjbqD4GtB62MtdD7ezw34Ja+tz9yf1ZGluoX7tK4cebxWL3wtwxEQWIcA/Ey//pBkw/6C03XSxt1LEGi3kXqCbyLYj8fkf/QqrZMm//f39Ay+Kp2+h8qOEnki/pFlOGYC8dG9ry+7DM9F2lPL8tL1m/F1R4JPMmX7mNOSoGuESoQ7tswmvvyG19PryUBqLX0OsLUE3386cCTBOaoukt8s7K/ifK6kDs3Xue7mGz831OjfUViinpwttl1bqxdL9Qn3AYEYAvAzbfZ7pC9kX6HTmBxxbj8EijYSWf7ivmKbXqKjI/HmeI78h3rpX/8sh4kQ9EBHGyL4YUSdlu24JUbZCH4Mh3miEH9KEdYX9jvojwh8kmxi9lFkfEWhvmxEvZ7g5xqeI+yx+3L5JXmnHXP0kwDsorOfK3Als9K5M22/avQvp/i4FrOb88+xXui0TTuQGwhsg0CNn8ltDpEa/1LvpPn5U0Ev3uY5N86db8t7+1iSDfzENnq+ppSijTy/M2voQ4LPEfJoVN1838Enw9n8TKpLRJ/zCcIdq99E6mVZpj3f0+vXH0YXOaLfrPtUvyz3Q9K3IPgkW20nmxB86uQ2S3RaHVkuvyb4+okB9sFfY+y197LC1ebX+YpORcxim40N9wZb2B6FIcmVdYNTLXscA4GjEKjxM0Twt9mQITdu0XtqemlrLv89CD7pAfsJTo/SDdRjESjaSCPB12PNWpKry1t7zBMK6rcm9NkIvscr5DKlXxO9BxB7adZMKMSkw9Zpx8jYhED3jfNLOzG/S8pbFKrXmes7Gw1s78dGfic6R66/pGep61X6x7N9MhD1aC8wRJn3Y1DS4IL80O9dJgGsFzpN6QHOA4E9EajxM60EvzXib8eSVoJ//UAWyQZ+Yk/tryu7aCMJ8mr1Oozga+60G8GPRO1Zp3Qai+brdrYd1xH8tjJDnq3tYz4uidZkBMnZheSsFWrN/azAJGcWeknmW15fW2dZ/2htnHvhxcyExSOwImH/OCU3W3dl1eCLPKGzqcHkbL3cUsdR1vgIlP0Mf2xRPwnmYx11t/lbI/52UqC/BZOL4GuCf72lqDyG6HR8rRurB0UbSRJpWrt+IsEX/FVPIvRxMHZFAoI6mh/cI+qbXorge9eWjZ2x+kg2MfvYbIlOrFKc206AS7HUQufjs11LbTtMvpxRBFEDciSOpAcEP2KwVRF8cx+/ZBPZJ/f7j+n5/GvYieBS/Vp6H8tfp2frJeq/JwJFP5PzQYlruQi+/a6LHh94Lb4m6W57aX/tPt1fIvg6j66z/2OSDfzE+Xa5zkYUwU9OBj7LUj4ypzpNVL01f8ImNaHXx9545o350k58juHd09rO1vyJfmn7mI9LarNOqBIU/PYUISGorfOQ/GZhn7CLTkq/uE2p63y+pH9koPqxmiT18rfBloxWLeOxn6Bnx+ImB54sPGP3nxrYcmmmnv86pVfeQfLvtc5e9ZL1Dum9EMj7GUewUy/N8vlUxJ7IfkjO9ZhI9eCDjtpn8Vih03tp6Pm9zduI1mV9rAj+SeOfJvT62NM9b8yX/ckQ/JP6RbKJ2ccmEfxcpCLm1Frze6Cbr9nyY1HeD9+C/2+wUw4LhaIc4SPUdH6+b/xUC52Pj3QXsTpj53SbKI/JlzGabQi+k3MwIeC6PWOPEHzK5+VxZfr6i/OEB8tfp1oHcAwEjkCg5GfabHjJhEBG4nnTCh6z1izRIX8z9hfbSTbwE0dYQb6OdTYyIMGfx3QO/nGaCAIyVzgh1fYxH+dF+lm3XWgwEfZU5KLVMcYmBK4M3wlax+UeZ6YJ+70J/izsAyP4VCfXSzoWO07pnsxrysjp3wZLdOSaulUE36wzTHxMI9eHG14LZJxSBpwHAgcgUPQzHxvdZrc4Pcmn8cmNYzze4YOOFicjG/EOGR8foBaoQiBQayOsv0i1ne93TLJhu+CURLdZBL+F4C+P4IeRDCqLJwUg+KECsbB1Kux2859cV6xgvsapzEPn9HlznCXAfjSdIvpyW6kkYc+WGeLoR+f9Op0joygFCL7DI4LjB3eWs06lPuA3EDgKgbKfaf3eC6+nd0+beRkPpTxm1djK9ArHPXefDHrFvvdCNijzpG3SldlXHpIN/MRRlpCup8ZGetWhq7dL28d8nBanvVIj1BxhD/f0Xba7gBWQdlTkRF3kI03w6ZEpfzTEOa90fpdndMUg+c3CPiiCz/XFdIuvcUp56Lc8lveZ8yUybpbG2DKK22RSWTL/p25ug4zme7L3lt+A4HvYlOQTuc54s/ylzPEbCByNQI2faftie24MyRH22H25/HJMjBH88T/oaGSDCP7RJhHUV2Mja8cF3B+z//K51Hi6SQS/VSj5CYHeIkx3jhyai4rIJwdxwm4nAXSPzEttjufX9Y19fLRz5PrYO+hjOs/KyCnnjaXm/ghBrNW51gh+Mn8NwffyjK03tfguzcd6odOYDuAcENgbgVoHcZdSAAAgAElEQVQ/s80SnRxhj/mNXH5N8N3YaJ8YjP9BR5IN/MTeFlAuv9ZGlo4JuC9m+3XntH3MxyWx5oW65GUiv8Fyic0+AqY20stK0hHaNtyF4M/CPiCCz3WxXtHx2v81epEk7IlJQzK/R94jEfzf2EWnRU6sE6QnWmdYd5ACgaMQMDqY8Akteo28/vi+BR7sH3R6lG6gHotA0UZiWz7OO9aVX7LN7mgTsc2W/GbpruAivDU2nadd+HRZfN7qr9s1h/P517fX+Va7IdnE7OPgCP76CQHvCCDXM7rfbrmOBcgn9fbJgXtCcBeCT+YZE/5ejovripXP12TKv5P5I8ZdawBJwp4oM5k/IPhq4oJ98Ju+AcAy12lMB3AOCOyNgNHDhE+o9TXItw/RIdnAT+xtAeXy221EfuSpTPDNxybFRypL9tSan8tjkk7HTNTlOXne3jMGwScJajvZjOBv8+hynYPwCbtP7lm4luTb7cf8/Ovq5vJ7S89wjqxkMZfB1zjlPLKdfG5WWAy8TeS5Nx2MtUfKW+uClD9+A4EjEDA6CD/TpZ9h/6DTI/QCdTgE2m2knuATwabNMYi0c3Q9Nm7wOZP/+3vRt2ckmaffqQg+9Tf2T+3j+7g9Z6fcTpKWkdNHbJsQ/LaXj9buLpC7X0fw86T9LgRfCl0K35nu9r+kwnH9sm75W9Yeu+9s40H9eTtagg/LX6dSF/AbCByFgNFDEPxuCT78xFGWkK6naCMLl+joSLw5npf2hGOPf52i61/eznmx8chMCARhf/z6c3p+jlME331A8+YR/DaCHwrMCST3MhHfRwQ/3BHHlcH5yuldCP6ZzpHq5vql64id09fnezHwdjnwLrE5vmeWrYo4SB3AbyBwFALGHxX8TG5ziNi2l6352TZs6i9nlRtEpMctemrNH8dy4186v8vj193XeR4rdHqUbqAei0DRRoJv0kg9CpfoGKL+ldhW2iyJ9Yl7Nj9PLhJLfFIRdz5PqXxyoCcEvLse5+P7erEbkk3MPjaJ4FMnt1miU0vw9U4B7jjmaFNCGN3xpfolz2uh8/HZTqu2HSZfYeCV/cVv6VT7/c3y1+nZeon674lAjZ8hwi6J9nJfUxrn9PJSuxPcfz9+MD1uXZfgw0+cb5dFG2kk+Np+mDzr81scpwg5n9+z7i3aXypD28d8XFKbolBBvrqOrpL8ZmEfsItOSZ/4OreJj1Nplf7xbJ/6qh7tBS/NyrwfbOTMPciv9JscAWMapJHoQdJxZJ0hEfPPo8dPG2vrCvJF+lhyFkdc53aS3Ok3/oDAmQgYHVS2ru2gleAvj+CHEwAqi4NXdyT4pBvsJzg9U1/uWHfRRrJjWhjB1/aVHCsLdqnLiR1T2W7JjQt88flU3fzUgPqu/2Plxeo+4hy3TdqJ+V1S1KJQNwD/CADuWoeR38DOsax//paVZKhNX7L9OCVnyH9Mr9/OAVTrDT0i3JTgZ9pAk5SWujq00dH1suQ3cX0sBMp+xn6g0e3Y5p4a23Ph0pjWCYHzNUsj+LSsJ1y+mp4QZHxMRz6DZKP9xVjadY3WFm2El8kEZPh7epuAFaVpnUuRbGcX6XtLeQwv8Nplx3k6H1uDX1NebwSftEzbSTF0VhRqRmAlkHB9ucLWYkfy00Ifyd0U9S+IGrgXYgijICK/MoKfxD1D8FkGOpVPDpLlxuzrIgR/ZL0cyYbQ1jICRT8Ts8PCuVwE//Vy2zXHbZ9IvptESGIUJ+x2Gc8VP+io/QQfl6WKHFsisM5GVAQ/ORlIRMpb8xdsk22uRPBd4C/Rrsp6uL69UpIN2wWnJHsQ/E4EtKfgjaA/yyCk8Lc0/r3KMu3NyIgNVOInSb38bfIQOVbLePzlMMsj+DHCTu2LnZ+CiYma7JUcGiL4e6kcyr0hAnk/47/wmo7ih19LZ78kl9jwuW1TauM1P+hIsuFxi9MbqujpXc7biBq/gjFbEfzgeun+fa4zf0iN0wF/6KTd2newXQRpSWtahVpyZPGXcXl7S/9lovRHrfgxZLhWUXf87sckPy30ksx7ul7SPzZQKWdplPK3yRMl+M55BPlrDTpB2Kl9LAOdRol/TX2ZpwWLy6ypd8M8jAXpmpFxT0qHttwOAaODm+n3+glBeuyjqD6Pl+y3/CU99smBe0IQj/jzvf2n7B90ejslPbnD62xkVIIfRu4JB/MfCbJJHnLkb24TqYiR00dXNo7gE0EnB+ScS7qTsTf+NcGXzocjFP45fvEoXY/Mf7/fLGydnuwrqqs37c4NvAGxbl+iw1tgkQ4lCX4pos5Gn9r2K9eH4jX5wZBfUyr6n5tMxN4PONNmtD7ycbViICMQ2BCBop/52Gg8QBWuv9/TtnzC7pN7rteSfNsuP/94YyDJhv0DpxuKHkVVIlBrI6yDSI+zNbaLIC3Jtl6ods0gEW7rXHSUwe+szeMi8e6xZ+q+VoIvHd9zeov1jLYu2vLs7653wNnCQEh+Wuglmfd0vax/K1+yLZJrX2+lTGJPD+brm04I6gj+XPeKPh1Vxuh62ZONoC3rESj7GbsVdCygRGNZeJ6DXW4dvRvjXpH82s/k7k+NkboMe3wFgk8SHnkcW6+h55dQYyNHjR+ox7f11Hi6OoLvIho6ai8dlI5wEOEmp6gdXTqCbycEuo7cEh1N8LVTtKQ/dMw+cKMrknaKfHy+u6hrQZVTkS/OqvX10Yi8zC8i79ZI6tfgZwl+jGQHTxtqdU0R/FjZg51jPdRpnVYgFxDYFoEaP0NjXWy8iBP8nG3nxi2+j8ZCDoDxuWXpFQg+/MS2+r6ktBobGZ0vjdp+bR/zcUnQ2wvVRvrtrgB2EuCcZorg23zh2kO31tGVwU6wRPApn8zD910rJfnNwh5wv/G1+hcl+Bky3JK/huB7eWoJfmv0vzV/pv9HObjR9bLkN3F9LARq/YwLaMnIvA5glcaQWoIv6/B/h+Ndus4rEHzSppHHsbGsId7aWhs5agxBPc7mU+Pp6gh+G8iWqMstv/hlIkf4daSdOkFEnqL3nHLHco5Sknf7xIC/BOjaHGsPl32NVDtFPo6bcH9n1zqVFsJOetGS3yPvCdJck8fp4zV0rqY/rIc67U8D0aI7ILDWz9ToPPIs828kG/iJ862w2kYo4KRfQM0Et6JbUer7Y+OrfBLvPbmPv9CbHIszbRvFZrV9zMcltckL1UXQ5frC2G+f1LcYuiTqdh2k3Q6MygDBLykgyW8WNiL4xXcu9iD4LIMg9ZxSi02Mn5exIP/D+lnyRbgOBPZCwOhgjETgXNFnlsagtdfZP+h0L11AuXEEqm2kgeAT6Y7t/JY673QpfPfOlXNPgh+zj80j+PXrEWMvvup9hInchxF9ekxqJwwg+E7h46RPC52P4ybc39lqp4KB+PSBuKSL8jrroU7700C06A4IwM/Exw9ps2f9JtnAT5xvhdU2cgTBD+ogUm/1xOpL+NVcmjSwLunUTQ76tYOc/RnZiGDZfFxSG5OxgTzVEfzcWvuQ0Kc7tpbg+08H0vWMKXTqDysyyZmFXpJ5T9db9e+KMrxin0bXy55sBG1ZjwD8TL9jHI9bOl0vdZTQgkCtjRgirZ9OZ5bBLFmiQ3U8n77OuqfviOCzXE+K4PdA8LGLDitBz2mtU7kiCb5yn/Rgzcc96yLadl0EWv1MKZAVfxmXg1d6/LPvgoVLW3kXnVwgyyc5V/QZJBv2D5xeVxP77Vmdjdgd396agFPE/SNHHS3Xy3H0cUynlxJ8boNOdZtidfZ8zshGBHHn45I6mYybR/DJKcWW6LADrHVaOccno/PxurAPfkn6519v1b+ejRBtc3ZNcp2d0IDvhpxvGWjBlgi0+Rkm5HrbZqffztZpHNK77GiCL++j99p0/tw4J++95m/tJ/h4S/mjrDICNTbiiDetkRfLZHQEXxB+Kjf3ryP1xrYWLNFxNnk9O2H8SIpGTh9xbh7BvzKII/aNha3Tsjn3kcO0u2GCOaKM7thmrY983IfWoRV3Q6DezxBht/vhUxQ/3LrZJw82j4vEuyh9KpjVSvCvH8gi2bB/4PRu+tlDf0s2QuTe2z2HSDgv1dEEf/WY3vCS7drJxOq2+j5hj/Ge7SJIS4pTEuoejUWZ2ykEyU8LvSTznq5D/7bThZ7sanS97MlG0Jb1CJT8jFtyo6P2HM2nfep15J2eHOODjmv9jh6/+Hi91FFCCwJZG6EtK5nMC0I8L7fJEPwla/CNTjVukyn1cG6XaKu8Ptpvkg3bBackW0TwLyLglEKysHXaYthn5jXtvriMUrK78nmtj3x8pq6h7vsisL2fsZF+930X+RXc1BIdnizo6L7bjjr8wJWO4Ot7KUAg84wXMCDZsH/g9L6ael7PV9lIguCniHbqfN2YGH/JVt67rvz+bIjtIkhL6rJKqCBmp29dSPLTQi/JvKfr3H6kVo5Xw4F0jfWzJ71DW+6FgNHBzcYrS9T9b7/IcymCT0QeH3SURIx+s3/Q6b009PzerrIREPxduSDJJmYfm0fwt91dIDZTctEMWs8onWj6k9wUwdCPT+mjWbFoR6zOcc9pofPx+e6irgWmvZsNvOPKUQ96ox+zHuq0TiuQCwhsi0Dez/hjjltHT8ty/H85HrXZqB9lt0uCeMzKvWQr77NLgq72xXaSDfzEtvq+pLS8jRTG1gTBJxtZvEQnyQsQwZ/tpSToNqHyI0a9TjEm/BjpTkU2+H7pzOicnz9N2GN13Yfgz8IecLeSNv1jPUHaRi6Ox4vkOrJelvwmro+FQKufKQWynP3FdnDzA1N2CU0YbMIHHa1f0n6Cj8fSsPFb22ojzgaOH1/uVjfJhu2CU9K4DSP4RKL33F2AlCSMZEhHC4IfGhILW6ejuBvT7uRMPezv3Qx71P5qfeTjUfQS7bwWAq1+Ro47aRv0A1AuX+p8yp+F454rSwa9UhF8mSdVR7/nSTbsHzi9lvaN0ZtWG3E62q9uXaWNbBdBWlKtklCP2l3ACkI7Kt9Rpgk+PWLlrcqcsqXzuzyjKwDJTwu9JPOerpf0b3T53LX9o+tlTzaCtqxHoNXPjEPw7ROE8OXcccY4PX7x8Xqpo4QWBFpt5K5j2xn9JtmwXXBKst0wgl/rMGykv213AVm2vZ/XPso1j3HCbicB9HRB5iUhxPPLusb/zcLWaYthn5nXtBsR/F1f0DnLIRkH9Fk2xvp5pq6h7vsi0Opn6gg+jR+xJTrhcpy8DbZE8P13Amif/tE/6EiyYf/A6X019byet9pIXqfH51Y99Y/tIkhL6rKtUIlsa6Itz/kR+W0ApOg9vayko//3Ifha6CWZ93R9W/0TTiX4Ep64hgnF7hMKkuvIetmTjaAt6xHYzc/Al6z2JdpP8PF6qaOEFgSKNhJ9kda98EpbU8a+Srv9S7b3G8tJNmwXnJJsV0bwj9hdQAvLTgg4gu+nOjLik3qKuthtyGyZiOC3mPc5eYtOhQZQ9aU66UTejz+m1++PDskPY3wMgg3j8esvW87jsXpA2mZiqvX+WsfshHR6jpah1rsjUOVnQNZP8Y3so0lH2V/cXV/P6H/RRhYQ/NR+9KnzGFvjPIDtIkhLilIUqnJ66x5d6uh+vDMpIfuE3Sf3fI8l+Xb7MT9/W11cXu8pyU8LvSTznq4X9S/4gh5FDGyfbd8FwVe6GsgOUf3DBvDR9bInG0Fb1iNQ9DMl34Hru/kOIxtB7vl4vdRRQgsCRRsBwd/NBgKuovwNyYbtglOS7coIfkiK6wh+ailO6ryspyWCL+8Lf9+F4BtBD7rWueRUYjN9ec6L4BujeExPFb2fI/7iScB8jg3JRP+/P+9xhGV8fdPjx7+yBk7tsuVG7v/6EtfUpOTz5MGUH3WioW6XHMLZ19kJ6bRlwEFeILAVAiU/c7a93Ll+kg38xFaavrycoo1ExyYs0TnCdrV9zMclcReFygTokx5D8MMdcZaAeBeCPwv7ivvgN0bwab2fT96dAzJLfVJLdAKCr0n4Y3p+f01mqY+yCaObXjuJ4PNkQZNzuibKnsk956P2iuuxugY4Rzo5sl6W/Cauj4XA1uOc211OvvTKS0hrAln+8le5QUR63KKn1vxxLPYX479rpv0EH4+lYeO3tmgjCwm+DMjRWKmPl3C7u91DsmG74JQ07qQIPjmfpbsL5CL4dh/+WuGmHaVzjrVl9ZqPha3TUdyNaXeJsIrIO+WXBL45gr+U4FMbvUmAr0P+xKKW4NtIf/Bk4AJLibQ+8vEoeol2XguBKj8z+yEeg/BBxyPGPZIN+wdOr6V9Y/SmaCNJgm/lR/fPY7Mas+la6n++Z7Y/f2w9Qgd7r8PIJrKMbXOC3zsQd2sfGw25EFaCMdyJbaVp8wrDDgn+QufgkXcVZZ/bZ9f/hw5JE3p9LNvEZVOaeiKQu1+W1e/v0fVyJBtCW8sI1PsZipLjg45HjqM8bum0LFXk2BKBoo0kCb59Wu2WqPY7Lh2p11vWRbKJ2QcI/kzOrql0Wuh8vKXh71mWae/WMspFD9ZE8F8Jgu8tzyE9s+Sd+jb/f/85/Zh+umsPell4Pi/1c/xlOqyHOt1Tl1A2EEghYPQw42fckhsdtedoPi3F0ctj7JdleULgBvTSEh29QYSfP/3k+ZofdGQfSbJjf5GSI87vh0DJRvRudpT/8esxvb7zBB/bZMqxfdlvtosgLalDUagZp+gc2rJG4/71uJH8tNBLMu/pepX+fdapc1/9tGG9em7py5oIPpXrEfVcBN4SfLuW304YwnX9iYnEQLbIMiJdMzLuSenQltshYHRwU/uxkX580HGbMUz6CfiLc8xzmY3QWJUm+Kn19qnz4IRxeyLZsF1wamympCrLhBpvBIRzPC4sbJ2W5N7L9bX6F12is1cE35sECFlHI/gtL9nqSQoi+L3oJ9pxDQTW+hl/bLNRffli7PSS5/yIvH+v8BtNE47rftCRZDPq+HUN67C9WGYjIPjb2HfeL2j7mI9LCrhMqPnGHNFh1GFlQPKbhX3FXXQKg2CK4IdR8YLOeuSdouyKdP/O7aKjI/b6WNYdlk3RjC9v153c/bKsfn+Prpclv4nrYyGQH+f8HW38jyvKXXLWfcfFH7PshCBeF+/Gw/btL+mx33pxS4nSS3r4/r5TPX7x8VgaNn5r8zaS0qE8wSedxxKdFHb150k2bBecksZhDX6BIPpOtx7wXu5jYet0FHdj2r1CRimCT+XG/xOR9YDgq/sL++Av20WH9Y2c5Nf0xe8H5JYSrcDqSJ3V+sjHo+gl2nktBIz+NdhO3XbQZL+x3eLWTQR8wu6Te7ZhS/Kv8UFH9tOkcfAT59ldq42wLiLlcXy/lO0iSEvqQjfgf3wMRnWORmEbBt5unUmwTGepsY+/PIdkxD5lVL0s+U1cHwuBVj9TR/BTS3FS56VPaIngy/vC3/6EILzerc/8+H0jG0Hu+XgsDRu/ta020rteXal9JBu2C05J44oR/JRaciFILYSj4ZCSa2/nDa5XIPifD3iEW2g2DrjRrcgay+gAz5S99KZ/aM89EGj1M8cQfHzQEcGAfuyv1UauRKB770tqPF1E8JOFfdZ443rfpL8fl1FuCZzKeOS9xhmSXLWfKGsDcgCBfRBo9TN1BJ9sN7ZER6+hj9l4LoJ/rw86aj/Bx/toAkpNIdBqIzXjAPLEbL/9HMmG7YJTkuMigm9uBJk3dsBgjpamjLi38wbXDiLOcETtTieHWcpeetM/tOceCMDPbGvfOdtvvUay0f7iHlrZVy9LNhJ9WXbejCKytNS812ZlyzKWm19E359LcIHqbTWpTn6XTZTVUler/h6RX9vHfLxEheabQfINfKPhsUTmZ91jsBWGGBhLbMvLec959wZ/cN+nzGrHsDB/qt67nye5ars5S8dQLxAo+pmcD8K1aU9/pv0EH0Nrj0Wg2kaiJDpC8LXdfJafuomC2qlO55+PaVe51Ech1cQ12jbayae2LlXe3IZzz5Ns2C44Je1YHME/VrVQ210RqHYqs6HRdpX8VdgywTfOJDKjTw1YrflT5dz9PDshnd5Vz9HvcxFo9zPnDuh38h8kG/iJc+2Daq+1EW9bZy8Ap0j0FhF8U8anXPl75gPKTi9M8GcZsaxA8M83GrQgj0CtU3EDXj3BN47o8TD78MpHg64s3zmY/N/f0/ObPsH9Vz5qZZwNb7n5iTB8BiozYBW21Uy14SrnDQbqCWBeE3AVCOyHQLuf8X3DVeyyx34Y2UjS8vEb+2kDSo4hUGcj9jsuj2CMjETwaYycg3FsT5SPl+2oCYEg7XYSEYvau/tjY3T15EPU1aNN6DalxlNE8GOajHPdIFB0Kl6E4OMYZqeRjuDrSLw5nu9jZ+NS//rHieQi/wHBV84q+2EsV6825KscY9DuxsTQECaPgw3qV/EFpX6kyAsU91gEimOxGfO+JrtTnB0jHcmmYz0G/jk9ZNDL/Oag2B7LZuzk4/n449NGN85eYYkOaUMwrh6rIqgNCLQhUHQq2W0jQ4JviPoXOyFn4GaQ+Tio+YNS4it70e0teXIRI/olgk9kwsuj2nJxsoFBu80OkHtfBIp+5uL2WCLZZ14PSAsi+PsaQ6L0vI1YQu+Pk/JchOAvtSked4PJAUf+XSrbw0/spxcRfTeRIN2+AsHXdkJiRAQ/ocw43QcCeafya5oaCb4eqMjoXZRhQ5LtkXcbOXj91uVLB6ivXftYOyM+7kPr0Iq7IUD6h/++MSCdhJ84zzIN9ktJefI+OwbGbU9F/JNl/JpK47gh9/IJPU0SxPEVCL60D7YTEPzz7AU1VyBQdCog+Pl3ATJOUU92jjxmhy6dUoU6IAsQOAyBeZBU74rgvKUNZ+NwmCKgIoOAkXfVeEIBrXCyKKPpNWNNiXQTaecyswTfC7a5wJkh/Z+n76W6atp7Zh6SjbZHEhoIPoy3awSKTiX5uI4ewVF0wH8Up40w6xiqnJlzGF7ZnlNBBN/D5vUrcEbsnLpWRjTudgiwXiLtg9SzHG6niB102GBfHBNTS3Fy58PJANX1Ne+hHx9jqwl+sc3XWKJDKsL2Macd6A2aAASSCNQ5lbgDmDTBT04GQgdjIgOt+aUjqSH4Xp5UH6553jpwnzQklQAXgMAJCMyDJCL4Bv3e8DhBJW5dZd1YnCPysSU3qfzlcU8SfB1Aaj1GBP/Wqo3On4VAnVNJOQNyHvkIfqsjqM7vkfdIBB+76BiV0qThLD1DvUAghoDWTxz7k/Kz8IjJCuf2RcDIWgaxkr9jS3Ri5J7GbRqjwwAb1UX/uffjzBKbyFIgc69YX18zZl+B4JP0jYxkuq9KoHQgsA4Bo7BJR5Ii9ny+J4KvnBj2wQ+c0TpNwd1AAAgAASCwFwLrxmIek5HWTDha85hJjXrSSHqANfh7WQPK3QQBOJVrOkQjVxlpwNZ3m9gLCgECQAAI7IEAxuJ+x+LUeAqCv4cloMzNEIBT6deptEYZZH6Sq3ZKmykNCgICQAAIAIFNEcBY3O9YnBpPQfA3NQEUtjUCcCr9OhVJ2Ft/a3LPx1vrD8oDAkAACACB9QhgLO53LObxM0jXix0lAIH9EIBT6deptJJ6mZ/kqp3RflqEkoEAEAACQGANAjVj8f9e/0yv1yv6/3+vv4NvttTn/3v6b7Tc39O/5h2931OsfDnmXPl3ajxFBH+NxuPe3RGAU7kuwSflAcnf3YRQARAAAkBgNQK1Y/F78aYYcqzLEfbf0+v1VJOFXH5Z7jV/63F0Pl4tdRQABHZEAE7lug5pdkJ4wXZHC0LRQAAIAIH1COwxFtdH8OU42Erw/zP934sj/c/pHTwJ+Gd6R54ujBTxJ9nExlNE8NfrPUrYEQE4FenYrvNbOyM+3lGVUDQQAAJAAAgsRKB2LE4t0Qmj7r8mIvitEX87KfjP9D/vSUEugq8J/j/Tf717LekfeYkPj59BulDWuA0IHIIAnMp1SL2MiJBctTM6RKFQCRAAAkAACDQjUDMWSx9f8zsXwX+9NImnsZDX4muSTlF9u/Y/JOolgk/lyjzjjbmp8RQR/GY1xw1HIgCnMp6zqXHsmtzz8ZG6hbqAABAAAkCgDoH8WOwINhPtVJqK2BPZD8m5Hv+oHiL+nPL1NRF8KsNOHFJtqxnTzszD42eQ1okWuYDAOQjAqbADu1ZKctXO6BwNQ61AAAgAASBQQiA/FreOT0smBH6U/V8TseeXbUHwY+MpIvglrcb1UxGAU2l1nGPk186Ij09VNlQOBIAAEAACUQRqx2JLvPVWmUzEl45PRO71spxfE9Vlo+4g+CQ0HkfnNCpJnAQCnSAAp7LUIfZ9H8l1dkLYRacTa0MzgAAQAAJxBGrGYiLcsWU28eU3vJ5eTwZSa+lzY9pagu8/HThzuc2SulPjKSL4cV3G2U4QgFPJObVxr2lyz8edqB2aAQSAABAAAgKB7cfi3PiVI+yx+3L5JXmnHXP0kwDsoiPEjJ9A4DgE4FRizmz8cyRXJvWcHqdVqAkIAAEgAARaEKgZiyn6vM0SnRxhj41/ufya4OsnBtgHv0UPkBcIbIYAnErMmY1/jkm9TjdTHBQEBIAAEAACmyFQOxYvWWKCe9aN6XocnY83kz4KAgI7IACnss7we3WcJNfZCWEN/g6WgyKBABAAAtshgLG437E4NZ5iDf52+o+SdkAATqVfp7Jm8qDJPR/voEIoEggAASAABFYigLG437GYx88gXSlz3A4EdkUATqVfp7KW4GtntKsioXAgAASAABBYjADG4n7HYpJNbDxFBH+xuuPGIxCAU+nXqawl+KQ/Mad0hF6hDiAABIAAEKhHoGYspu0wU1+wTW2f2ZLfH3P8j2XJr9D+G+yUw+MovXAb7smfzs/39Z3qcXQ+rhcvcgKB4xGAU+nbsfgOt76tJNfZCWEN/vGGhRqBABAAAg0I1I7FkmgvHR+mV25XHBpn5M44dEx76rvtL9OE/boEP1EFB7UAACAASURBVDaeIoLfoODIejwCcCr1pHm5Mz2+Du2M+Ph4DUONQAAIAAEgUEJgj7G4NeLvxrhwAiA/pnVHgk/y43F0TktCxXUgcCYCcCrHk2/nRPerm+Q6OyFE8M80MdQNBIAAECgiUDsWp5bcvCJLY4iUL4v4L43g07Ke39O/L39sS08I/HxHjI1L6kiNp4jgF9UaGc5EAE5lDAfT6pQ0uefjM3UNdQMBIAAEgEAcgZqxuHUcyEXwX6//TP9TRNwvn0i++2iVnCjECbtdxkP3yLxUZjz/OGMvj59BGhclzgKBPhCAUxnHyfjON99ukqt2Rn1oHFoBBIAAEAACGoH8WOy/8JqO4ofkmscNucSGz22bUhvpBVsd/b8GwY+Np4jgay3GcVcIwKnkifK2DvC4urQz4uOulA+NAQJAAAgAAYNAfixuHTvWTwjsi7Uugu9PKtwLt3aM9Em9fXLgnhAggg8lBwInIACn0uo4x8hPcmVSz+kJ6oUqgQAQAAJAoAKB2rH4X7FsxpHucGvKPYNTPmH3yT3Xa0m+bZeff4wxlPtBaWo8RQS/QrGR5TwE4FTGczbS8aR+M6nX6XmahpqBABAAAkAghUDNWEzkPrXffXie1sSnIvDxcvzxJHe/juDnx9ErEHySmx5PQfBT2ozzXSAAp5J3TL7DGycvyVU7oy4UDo0AAkAACACBAIHtx+LceBVugxmOdUTwwx1xwny5euy1KxD82HgKgh+oMU70hACcStk5LXFoZ9+jnREf96R7aAsQAAJAAAhYBGrGYhpXtlmiU0vw1zwBcGPrFQg+SYnH0TmF8gKBnhGAU3FO6GxSvmX9JNfZCWEf/J5NEG0DAkAACFh/nd228ppj1Zbj3l5lpcZTRPBhuF0jUEvw9zIclLuP09bkno+7VkY0DggAASBwUwQwFu8zFm7BMXj8DNKb6iq6PQgCcCr9OpU1jonkqp3RICqJZgIBIAAEbocAxuJ+x+LUeIoI/u3MdKwOw6n061TWEnzSRJD8sewRrQUCQOCeCGAs7ncs1uPofHxPVUWvR0EATqVfp7KW4M9OCGvwRzFHtBMIAIGbItA6Fpe+TBt/GZe3t6Qdcvg3jYGpLTF5F52al3KvOZbSOEyyiY2niODf1FhH6TacyjWdknZGfDyKXqKdQAAIAIE7IdA2FjMhd1+LTQeE6ENU+kNYmuDLcZC+gqvzg+CTLvI4Oqd3UlD0dTwE4FSkY7vOb5Lr7IQQwR/PMNFiIAAEboVA/VhMhN1+qMp+LVZG4sMxzOZxkXj39dvUfa0EX37J9jm9g49r/TO9X39P6QlI2Obe8qbGU0Twb2Wi43UWTqV/57LE2Wlyz8fjaShaDASAABC4PgKlsdgtudFRe47m0571OvJOhPufeULgxpJ0BN9OCHQduQi+Jvh64mBJf/il3XHGXh4/g/T6aokejowAnMo4TsY553KbSa7aGY2sp2g7EAACQODKCJTG4hb/b/PaSP/b7K1vJwGOZKcIPk8WNEmnqL796JUrg8ehEsGnfDIP3zdOmhpPEcG/skVeoG9wKuM4mRYHr8k9H19AZdEFIAAEgMDlENh2LLZE3ZJ7HuPkuRTBJyJP0XtO+d41EXwqQ9bNZY6T8vgZpJfTQnToUgjAqYzjZFoJvnZGl1JcdAYIAAEgcCEE8mOxi6BzJD2V+qS+ZXzzo+x2SRAv+QHBj42niOBfyACv2BU4lRYHOE5e7Yz4+Io6jD4BASAABEZHID8Wh2NPaZtMFxCKvfj6mvyJAJF7vSzn10Qk3+YDwSf94nF0TkdXOrT/2gjAqYSO0znGca+RXGcnhF10rm3E6B0QAALDI7DPWJxaipM6nxrz1hJ8/+nAaGNsajxFBH94s7t2B+BUUg5t7POa3PPxtbUZvQMCQAAIjInAdcdi7KIzpkai1cMjAKcyNpFPRUJIrkzqOR1eWdEBIAAEgMBFEdhnLKbxLbZEJ1yOkxpL7PmWCL7dbce9I4B98C+qsuhW7wjAqVyX4JPuMbnntHd9RPuAABAAAndEoHUszhPya45rZ/WZx88gvaOios/jIACnck1HSHLVzmgcrURLgQAQAAL3QgBjcb9jcWo8xRr8e9nocL2FU+nXqayJVmhyz8fDKSgaDASAABC4AQIYi/sdi3n8DNIb6CW6ODACcCr9OpW1BF87o4HVFE0HAkAACFwaAYzF/Y7FJJvYeIoI/qVNcvzOwan061TWEnzSzphTGl9r0QMgAASAwLUQaB2LS/vg2w9VhS+8/vdFY17NNpn+x7Xkvvn/RvbMt+MVbYfJH8dyY2s6v8uzZrzb+149js7H11JB9OZqCMCpjOFgWh0YyXV2QtgH/2pmi/4AASBwMQTaxmIi6ETe/zP9zxD23DgWI90lgq/3rffzpwl7rC76YFbrrj25/hx/LTWeIoJ/MSO8WnfgVI53Fq1kfUl+Te75+Gr6i/4AASAABK6AQP1YTCT6Nf3f6++JovivAnm2eX5P/5qJgIzK50h3uC2mfGKQJuzXJfikYzyOzukVFA99uC4CcCrXJfizE0IE/7oGjJ4BASBwCQRKY7FbcqOj9hzNp4i+Xh5De+D/M08IXLDIj8i78zweLo3g0wSCJxNcFiL4l1BQdGI8BOBUnBMKndy41zS55+PxNBQtBgJAAAhcH4HSWNw+PtlIv107bycBFPW35ZQIPo199n7+YFV5Db4tk54uyLxUXzriP8YYy+NnkF5fLdHDkRGAUxnDwbQ6d5KrdkYj6ynaDgSAABC4MgLbjsWW0PtEW56rIfitYyNF7+kJgo7+X4Pgx8ZTrMG/skVeoG9wKq1ObIz82hnx8QVUFl0AAkAACFwOgfxYLNfO651x/GOf1K8Zr+yEgCP4fqrX7/uk3q77d0uJEMG/nLqiQyMgAKeyxgH2ey/JlUk9pyPoI9oIBIAAELgjAvmxOBxr5Euv+Se8tA7fnwQQWV8zEfAJu0/uuS2W5Nt3Avz8YV/4nl7T1HiKCP4dLXWgPsOpjOdsapwgk3qdDqSaaCoQAAJA4DYI7DMWp5bipM7L8bAlgi/vC39fgeCTIurxFAT/NuY5ZkfhVEJnVEOge89DctXOaEwNRauBABAAAtdHoM+xONwRZ8nYdwWCHxtPQfCvb5dD9xBO5boEnxQz5pSGVlg0HggAASBwQQT2GYtpfIst0dFr6GPjYC6Cb/fhryX7VyD4pHJ6PAXBv6AhXqlLcCoxxzb+OZKrdkZX0lv0BQgAASBwJQRax+Jaco1868fz1HgKgn8lC7xgX+BU1ht/jw5Uk3s+vqAKo0tAAAgAgeERwFjc71jM42eQDq916MClEYBT6deprJk4kFy1M7q0IqNzQAAIAIGBEcBY3O9YnBpPEcEf2ODu0HQ4lX6dylqCT/oLkn8HK0YfgQAQGB0BjMX9jsV6HJ2PR1c6tP/aCMCp9OtU1hL82Ql9Ic5wbStG74AAEBgdAYzF/Y7FJJvYeIqRdXSru3j74VT6dSprCT6pbswpXVyl0T0gAASAwHAIYCzudyzW4+h8PJyWocG3QgBOpV+nspbgz04IEfxb2TQ6CwSAwHgIkL/Gf98YkFbxuGp+j6dmaPGdEIBD6duhrJGPcUAfci+d0p30G30FAkAACIyKAPttpHYxTHc4jKpYaPd9EejOiBRJRfuWObv7ajR6DgSAABAYEwGMd8vGu71xI23CGvwxber2rd7bOFD+OU7r9ooNAIAAEAACgyCAcfKccbIa90H0CM0EAjMC1cqNyLrBbBS8ZgHjBxAAAkAACAyBwCjjy93aScqDCP4QJoRGagTuZqx36a+WM46BABAAAkAACACBdgRA8Nsxwx1AAAgAASAABIAAEAACQKBbBEDwuxUNGgYEgAAQAAJAAAgAASAABNoRAMFvxwx3AAEgAASAABAAAkAACACBbhEAwe9WNGgYEAACQAAIAAEgAASAABBoRwAEvx0z3AEEgAAQAAJAAAgAASAABLpFAAS/W9GgYUAACAABIAAEgAAQAAJAoB0BEPx2zHAHEAACQAAIAAEgAASAABDoFgEQ/G5Fg4YBASAABIAAEAACQAAIAIF2BEDw2zHDHUAACAABIAAEgAAQAAJAoFsEQPC7FQ0aBgSAABAAAkAACAABIAAE2hEAwW/HDHcAASAABIAAEAACQAAIAIFuEQDB71Y0aBgQAAJAAAgAASAABIAAEGhHAAS/HTPcAQSAABAAAkAACAABIAAEukUABL9b0aBhQAAIAAEgAASAABAAAkCgHQEQ/HbMcAcQAAJAAAgAASAABIAAEOgWARD8bkWDhgEBIAAEgAAQAAJAAAgAgXYEQPDbMcMdQAAIAAEgAASAABAAAkCgWwRA8LsVDRoGBIAAEAACQAAIAAEgAATaEQDBb8cMdwABIAAEgAAQAAJAAAgAgW4RAMHvVjRoGBAAAkAACAABIAAEgAAQaEcABL8dM9wBBIAAEAACQAAIAAEgAAS6RQAEv1vRoGFAAAgAASAABIAAEAACQKAdARD8dsxwBxAAAkAACAABIAAEgAAQ6BYBEPxuRYOGAQEgAASAQBSB93P6er79S+/n9Hj9+Oc+R+/n1/T1pf71/dPP9HqoPOae52RqypQfrRQngQAQAAInIgCCfyL4qBoIAAEgAAQWINBA8H9ejyjxT503rWkof0HrcQsQAAJAYHcEQPB3hxgVAAEgAASuhABHuh9TEDD/eU0Pino/XpONpb+np46cm2Nx7897eorI+ePJ92YwayDgKSKfOm9qbSjftrIFk0y/cAkIAAEgsBECIPgbAYligAAQAAL3QIDJ7FcQGSfSbJbCeARfkPkAIDsBeM4zhZ/pTWXM9wc3mBOmHp0ns4SmbomOq6u1/Eks79HLhEJMXD34BQSAABDYCwEQ/L2QRblAAAgAgUsiYAn+8/WaHh7JpvOP6fV6CoJOBD5D8E3E/7PGfcaqcM9EEf+XmQh4y+gp6v55WhAj2fIckW55PFdtfvAERrU7Uz4T/DpM/NpwBASAABDYAwEQ/D1QRZlAAAgAgcsi8CH4b04/HSUCTISfU3O6RNY/ZPrxnF7v9/QTf0fWQ5LIuSX2VLaYHOgIviDkTPxTaTBRCPoxTZMu32+VeUH3WYWJdyMOgAAQAAK7IACCvwusKBQIAAEgcFUEHLE3y08+7JiWwZioeEDwIzvTqMj/+/WcHo/P8p4vIvBxpi/rM+jKurIEvFIW6omCWdrD7D9bfgsmlW1BNiAABIDACgRA8FeAh1uBABAAAvdDwJHZiZbLUBSdXpTlaLok3ea6WupSAIyeADxiy3qIfHsTA1vQvNwmQ8Cr1uAbch+2le41HD9T/rxEx+6nWcCkAAAuAwEgAAQ2QAAEfwMQUQQQAAJA4D4ISIJPK1e+bPRdRLrdS7KFJTreZMAhOJNqd6r8K0HA5wmAKiF1XmVzh4nybYYWTFyR+AUEgAAQ2AsBEPy9kEW5QAAIAIFLIuCT2UlHvj3SXiD4JsJPS3ven201p+nnTVtthpH0IpQJAp4i8qnzyXoS5dv8LZgka8AFIAAEgMBmCIDgbwYlCgICQAAI3AEBRWZ1lwOCH1mD//VZ9kL3qn3wv+iFW16Cr9bE66q84wwBr1qi4xUWOciU7y/Rid/rnmpEruMUEAACQGBjBEDwNwYUxQEBIAAEgAAQAAJAAAgAgTMRAME/E33UDQSAABAAAkAACAABIAAENkYABH9jQFEcEAACQAAIAAEgAASAABA4EwEQ/DPRR91AAAgAASAABIAAEAACQGBjBEDwNwYUxQEBIAAEroxA6muwOB9/mfhoXK6se+hbpwjQi/W8TS43MfNSet1L7/Zl/tB+Pl+vzpTPTbh7CoJ/dw1A/4EAEAACDQjQgDu9fuG/QwyMbBpkiaxAYBMEGgh+anva1HnTvobyN+nPRQoBwb+IINENIAAEgMARCIDg9zu5AcE/wgJ6q4Mj3ZFvR5htZr8mt0UrfZci9qRJ3Ku2rX08X/M3KpI9byDgKSKfOm/qbCjftjHx/Y2WbXeTnR3nAgj+OLJCS4EAEAACpyMAgg+Cf7oSogECASb49ME4/oCEvUykmezVJ/iCzItS7E87AXjO5fxMbyrjkSf5ph6dJ7OEpm6Jjmtca/mT+YBepJ8g+A5U/AICQAAIAAEgIBEAwQfBl/qA32cj8Pnw3Os1PTySTecf0+v1FAQ9EdnmLkQJcOEeItOPl5kIeMvwKer+eVoQm3jIc9no/cQTGEXYM+WD4FuBIoLPio0UCAABIAAEigiA4PdP8I2MpskQrKJAkWFwBD4E/83ppztEgInwc2pOl8j6h0zT16Tf7+nHfyAQxYnIuSX2VPbnBVjKqSP4gpAz8U+lwUQh6EekfK91iX5GJzDejZc6AMG/lDjRGSAABIDAMgSYFJbuNvk6fMEUL/7+miOmJMNaeZbkjeu9I+CIvVnK8mHHtAzGRMkDgh9Zg68i/+/Xc3o8Pst7vojAx5m+rM+gJOvSBH8JjIqQm6U9zP6z5RPBj/TTnBOTkCVtGugeEPyBhIWmAgEgAAT2QqCWEFYT/Of39PV4+LvtPL+nx6+//HOfycL7ERmQ9f2vv6bXdyTf1/f0pnIy5d9hAsAy1OleOoNye0DAEXy7NOU5velFWY6mS9KdWpue6QY9AXh8qeUxlJ/ItzcxsIXMy20yBLxqDb4h92G9dK/h+JnysUTHygIEP6PYuAQEgAAQuAsCTApL/d2D4P/8+iNK/FPnDVlvnEDcheCzHDktyRPXR0dAEnxaGfNlo+8i0u1ekk0sXWEIvMkAn7RlcnHubOFXgoDPEwB1e+q8yuYOE+XbDIl+qicCrrBr/gLBv6Zc0SsgAASAQBMCtYRwWIL/+8/pwZF+WjesH+F//zE9n/GnC6NMDliGOm1SBGQeDAGf4JvIuoy4e6Q9QXznHtN1WtrznrfG/Hm/4hH8+Z7EjwQBTxH51PlE6eEafy9jop8g+B5KOAACQAAIAIEbIMCksNTVWoJP0fev7z+nH7leP7OEpm6JjnvBtbX8KSD4f0yv36686fdjen5/RZ8kjETwWY6cluSJ66MjoAi+7k5A8GNL3D7LXuhetQ/+F71wy0vwWwhyguBTFVVLdHQ/9HGmfCzRsWAhgq+VBsdAAAgAgRsiUEsI6wg+keU/p/cviooLEk3LanjrPLUWXy/H0cc+yea1+IqkZ8ovEnyaiHiTANFuOUnp+DfLUKc3VGd0GQjcHgEQ/NurAAAAAkAACNTvulJD8ImcW2JPS2E+L8ASMdYRfEHImfin0mCiQE8H6H75lECXL8m4R96pXWpyYPLaiYNXlyyj89+MHemzkRMUGwgAgdsiAIJ/W9Gj40AACByFABOvq6R+NN2PdJulM3L3G0nCcwS8ljx7RP3XZJb2cH258r37rkvwSaeZ3HN6lJ6jHiAABPpBAAS/H1mgJUAACFwUgRGIVm0bTb4UGScSLSPqn3zzcpsMAa9ag29Iehh5p3tN1D1Tvr/85roEn+XI6UVNCt0CAkCggAAIfgEgXAYCQAAIrEVgBLJV20aTL0XwS+cTBHyeAKj7U+eTTxAS5Zv8NRF8L4//ZCJZp2rzmflYhjpdq7+4v18ESNb4Pw6DfjUhbBkIfogJzgABIAAENkWACdemhW5cWG0bTb6lpDZBwFNEPnU+SaIT5VcRfOyis7FGobgjEFhlj0vt+Kb31frII+ReUwcIfg1KyAMEgAAQWIHACANDbRtXEYoMAa9aolMiFpnywyU6KuqHffBXaDhuPQuBVfZYsidc9766Xesjz9IFXS8IvkYEx0AACACBjREYYWCobSMIRb9Ld0g2LEdON1ZlFNcZArDH4+xxNJsCwe/MWNEcIAAErofACANDbRtBKI4jFMmlSInIKstQp9ezKPSIEYA9HmePbFeMfe8pCH7vEkL7gAAQGB6B0QaGHOAgFMcRiiUEn3WN05wscW18BGCPx9kjYc12xWnPGgSC37N00DYgAAQugcAIg0Et0KYviQhyKyFF/m3JCeuZTmtli3zjIQB73NaGcj5J2xUf96o1IPi9SgbtAgJA4DII9D4QtAANQnEcociRjdg1kg3rGqctskXe8RCoskez/evnpXL1nYr3Q31XQub96NPj11/zy6ZB/htN9kezLxD88ewZLQYCQGAwBK5EtqoIxY0G/RjRPusc65lOBzMXNLcBgbI9+h91o61nv/jLzy/6ErQi+Np2PztTuV2uCvn1/Rc61nbFxw3iOjQrCP6hcKMyIAAE7ohA7wNBi0zKhKLfCPdZxPuoekk2rGuctsgWecdDoGiPwdaxf02vb0fSA4K/NILvfSSOJhWfJwacXmQbWrYrTnvWGBD8nqWDtgEBIHAJBEYYDGqBpr7gv18MSI6sb5zWyhb5xkPAyDgTJaeI/fPpT7olqZe/zUSUiLpaxjO9aFLAOu8mB97ENSD4Kt9FPiQ3kn2B4I9nz2gxEAACgyFwJaJVIhTeoJ8hHsjnk64t8CDZsK5xOpipoLmNCJTscRuC73Q1mBCwjZcIPuXz8rgyt9D9I8oYzb5A8BuNCdmBABAAAq0IXIlslQjFEQMt6oiTI9Yzncb0lfPEruHc+QjUysfkY5IdSzdYovP15aLxqwj+50mAfqIwij2zTHR6vrbEWwCCH8cFZ4EAEAACmyHAA8JmBZ5YUJFQxEgGzs27kOxJZkg2rGucplSldD11H84fg0CtfEy+rH2tfMk2W7aYaHrReb9Op/N2qc/IBJ/lwukx2rCsFhD8ZbjhLiAABIBANQIjDAa1nSkTCjHo15ID5NtkAsB6ptOYbDlP7BrOHYcAySEmi9g53ar53pL9GPL9WUOv1tdHI/Iyf/DOjYvmO+Kul99cl+CTDFg2nGq59HIMgt+LJNAOIAAELotA7wNBC/CmLyVCgeubEHaPQFVgSrJhXeM0JdvS9dR9OL8NAlJWVGLsOFWTzGvkWKEbKV2KEvxMecn8NRF8L894gYAA95SAOjkPgt+JINAMIAAErouAGYQv0r21hCJFNHB+PeFhPdNpTPU4T+wazu2LQA57vsapbAmd0+fNcYaQl+wqSdgTZSbze+Q9EsHHLjpSlIf8BsE/BGZUAgSAwJ0R0IPyyFhUE4rnt/dBHUM0ghf+HKl1H9L5LCUgMiM+yGOJityuT+T7+p7eREgy5XtEJ5Yv0l7zUSBviQLV4/YRp+vyK59eHd7WgrKtn99B335NYX3uvnQ9DkOSDesapyldK11P3Yfz6xHIYc/XOKXa6Lc8li0w5xNk3NdHpyfyfJKwJ8pM5g8IvtNd037sgy/FdshvEPxDYEYlQAAI3BmB1OA8IibVhCJCmFMEPEWUU+cNQWkoXxIavjcgzJHy4vXXEvw4oTL1ExlKEPygXQmiFfTp9WsmgaxvnMb0LHctlh/ntkGgBnfKI/9zNZvyGnQkpjc4l7FVgS3LTqc5+Zx5DQT/TPRR97UReD+nr+fb7+P7OT1eP/65z9H76Tt14+D1/dPP9HpE8n09J1NTpnyu9Of18AYPUw8PKEF909San+tB6hDgAcGdGfeX6YsY9JLkIEKYeyH4JlKuXjaktuknBiMSfM+e2a53TFOavFU7UH7M3/vnkjZYY6fIU/2+DOs06aTxgynl7OQ8CH4ngkAzLohAA8EnEh0j/qnzBq2G8iW6VGaEx8ssdb9/XtNjk4Lqqhs51wiDQS2+pi8VpCBFolMR6rolOi7S1lr+TII+0fOAvBPB/xBh3sbP1CHJsYm6V0bwRXlcrpcigl+rcpfLZ2wo0Su+JlP+HbvFXKuwx1n/kbea0GvMWA46jcmlh3Mg+D1IAW3YAQGOdD+mIGBOxJQG7cdrsrH09/SUg/j8W9z7856eInL+ePK9maY3EPAUkU+dN7U2lC9bSWWSg4r9h5MMxjGeP3hCwRUZjD9PFfjcjVMeEK4AgelLkSQ8puf3n9P71x8Tk2UzWArSq4m+Jtz62B9seS2+2rIvU76531snbMuY20f3KtIdbwPXbW1C98Nvp5uQeOcjddH1eH2JMiIyYJsmPSvpXOn6FXS11z7ksOdrnHIf6Fifm+Uc0QVP33B9MamXOEoZxGTBsuolBcHvRRJox8YIOGKqSetMcD2CL8h80BI7AXjOM4Wf6U0keb4/uMGcMPXoPJklNHVLdFxdreXznXTfJoH3XAQfBJ/hNukIg4HX4MyB6UuBMBBRtcSZdtP4vABL9+iXWwUh58Ezlc5E/FPOFy2xofvlUhtdvmynR+6ZNLto/L5LdOyE54fbk2gn4Zbqv558SOLBv41sBLnn45g4c9di+XFuWwRYzlxq7JivyTSaj/UqlRrd/wRppL28fk3BS7My72dSISexQX5VZ6sOJye1CRthXZ9OeomdZMG2w6mUT0+/QfB7kgbasiECluA/X6/p4ZFsOv+YXq+nIOhE4DMEP0pWC/dMFPF/mYmAR6Yp6s5Oc54w2G4T8ZaTEX3sg8MTGNXuTPl8Pwg+I3Fc2vtA0IKE6Ysa1N2g+9kJRkbCJQkvDtpMvDOpIupmaQ/Xt6b8SFQ9Tj7cpCB+Pdb2OoIvcVzym30LybOkc6XrLTqBvMsRkDKTpZTkw/eZfBl7nCig8+WedBkCzvYSI/i6rI9NuSV0rqwmHY3YF92ftKE1tkw+QvSR25msS/c5ccyYk5xK8pGyPOs3CP5ZyKPenRH4EPw3p5/qiAAT4efUnC6R9Q+Zfjyn1/s9/cTfkfX640g0lS2WqugIviDk7DxSaTBRCPoxTZMu32uVPaC2perwnkosbRtVE50URRpzk1MjDAa1ojB9SQyAEw2sKkLoDeKZQdsRCLEcTA/ShtyHBIPuNRH+TPk8yHN7AhvQdX3Ih873fG5A8FP4rTzPeqbTmGw5T+wazp2PQK18TL6c3gQ24fSXbCGIyBsbEzb49eVtBRvkz9Utr2UIPvUh9i+fHEj7Lf7ekeCTZrBss+ZJBAAAIABJREFUOD1fW+ItAMGP44KzwyPgiL0htB92TMtgTJQ8IPgRB6Mi/+/X00QFrCOiZS5xpi/rMzDKuioIeBF6RZ7N0h5m/43lU1vlU4Ni3bUZVBtrb7tqvt4HghbcTV/kwN3yOyAbNtqdiqylzicH+ET5Mj+VGV3ukiAg8l772xGkZPuorARp0ed5YqLPp469pUoKe76H5Em/c3+l67l7cW1/BGrlY/IpPZA6SzqqdUaSdPnb3BedpJPO8xgZTrBlfcnfCdvM2VCW4JdsLDFhz5aZwZH6RVizXDjdXxOW15D3AMvLxZ1A4GQEHMGfaLkMRdHpRVmOpkvSba6rpS6F1tMTgEdsWQ8RW29iYAuaiXSGgFetwTfEOWwr3Ws4fqb8WJfmdsUufs7V5AluB8H3IBlhMPAanDkwfSkMhFsN8snBP1V/gkTI9lCZMYKfOi/vtb8rCH6qfTufZz3TaUacuDQ4AiV7JL1eT/DdsrNgQlCr0wnbNHaXmAwvJuOJyTrVtbjMxu9M9KBWIPg9SAFt2AEBSfBp5cqXjb6LSLdbjlJYouNNBlxTZ1LtTpV/JQh4ikSnzicrSpRv8lM/Eo5Un2eY6L7mNtibpgdPppKNvc8FJlxX6HGJUISE2JGD4CVbQQ6qluiI/NF6EiRC542SikjET99nj/sm+KxrnF5B59CHNAJFewxswukv6XNA2CNLdL7EGv4gP9tkKaIuxh494YjbmfAbXEcyrXvHJWr33K4K+yes2a44TUvm/Csg+OfLAC3YBQGf4Ns14SLy7ZH2AsE3EX5a2vP+bKs5TT9v2mpTlFfbhwQBT5Ho1PlkdYnyk/krLjS3gcpEBN9DdoTBwGtw5sD0JTnQtgzKyLue2PgYsp7pNCNOXBocgbI9rnzJdoWtE6FOkvlNJwR1BH+tvWm74uNeVQgEv1fJoF0rEVAEX5cWEHxeX+incyRb7YP/RS/c8hL8FjKbIeBVS3R0P/RxpnydtfaYCD45suh/ZDmSKbcFk9qGDJyv94GgBVrTlxWD/tpBFvf7pF7iwTZK8rySzrXo593yVtmjjMqrl+CjEXmZP/D99WvwswQ/5kOCpw1pXZd6b3YKUv3yr9eWk883mn2B4N/NG6C/QAAIHI7AlchWFaGIDd44t8nHdnLEhfVMp4crPCo8DIG19hgl+BlbbclfQ/C9PLUEvzX635o/0X9tV3x8mLAbKwLBbwQM2YEAEAACrQj0PhC09GctocgRVFzLRxBL+JBsWNc4bZEt8o6HwFp7bCHspH8t+T3yniDNNXlKen/U9dHsCwR/PHtGi4EAEBgMgSuRrRpC8b/XP9Pr9Yr+/9/r7yCSXZ//7+m/0XJ/T/8aAvF7ipV/FAE4ux7WM50OZi5obgMCNfaY08sWwk7ltOSvIe+Uh/oQ/T9g2U0OG31N2xUfN4jr0Kwg+IfCjcqAABC4IwK9DwQtMjF9SUTjeEAkwv4u5OG8+TRH2H+bL1L79+fyr4uO+/X0WRbJhnWN0xbZIu94CNTY4wi6O0IbR7MvEPzx7BktXokAGynSRNQkFU3Z4fxKUQ5zuxmEh2ltvqGmLwXy3krw6yP4kli3Evz/TP/34kj/c3oHTwJoUhI+XRiBeHAbWc90mpcoro6MQI09sn4glf6j/be2Kz7uVX9A8HuVDNq1KQJkiPwPJ9fu2PbCjGXSu6Ncq4xX6p/pSwXBTy3Reb2e0SU6rRF/Oyn4z/Q/ry25CL4m+P9M//XutaR/5CU+bE+kr1fSubX2d+X7a+xxL/99t3JHsy8Q/CtbPvpmEIAD7IfQ5waEKxOSK/VtD3vKRfBfL03iSZ95Lb4m6RTVt2v/Q6JeIvhUrswzht1Im2I90ymGgusisIc9Sp3Cb+cHtF3xca/aBYLfq2TQrk0QgPNzzmkER927w1yqlFfqV96mHMFmop1KUxF7IvshOdd6TPUQ8eeUr6+J4FMZduKQalvvNkSyYV3jdKnO4r4xEMjbI9sF0i1sdzT7AsEfw4bRygUIwPGN6dSvSEyu1Kdt7WrJhMCPsv9rIva87AcEn1wl6xunC9wnbhkEgW3tccwxYwvyXlMG25NOe1UVEPxeJYN2rUYAjm9MZ83Oc7UCdFTAlfpUa1eWeOutMpmIL9VNIvd6Wc6vieqyUXcQfNY1TjsyAzRlBwRq7bGGwCJP3i8R1mxXnO4g0s2KBMHfDEoU1BsCcHx5Z9WrM5dOtDedWtqeEQaD2r7V2BUR7tgym/jyG15PrycDqbX0Ob1eS/D9pwO92kiqXaxnOq2VLfKNhwDJGv/HYUAaMop9geCPZ89ocQUCxgC9HTISpIA+Yf14+Lt6ZD6X/X5EHIm+//XX9PqO5Pv6tlHGTPmpgftu53nAKomaHW0p39nXR2lnDU41ttVG8BO2aew3R9hj9+XyS/JOO+boJwHYRadG/sjTFwI19ni38WOv/hLW7Ms57Usb/NaA4Pt44OgiCFQ7vQaCT1/ce/z6y58MvH5NqfPGyTSUv5dTGrFcdp6cptSydD1139HnR2lnDS6mLxWT522W6OQI+1qCr58YYB/8GvkjT18I1NrjiONAb21mP67TvjTCtQYE32GBXxdCoNrpNRDwFJFPnTfOqaF8k//3n9ODI/2vx/TUj1+//5iez3CSIR0htef5JPITuf/rS1z7Y3r9FiTJ1E3X/5qmk58ykPxqnCjnYdWV9/G5HlLdzh7atLQNpi8VBF/qJH4LO9sRO6n/V9K5pbp6h/tgj8fYFvmw0ewLBP8OHuCGfax1ekSGv77/nH7koJsht3VLdJzDaS1/Cgi+JuGP6fn9FX2SYEgU3T/3hwj+Z1mQ7J/5TddE2TO557bTMiNxPbif8+2TMjnhNKXCfJ1S/k159XHq/qPOy7YdVede9Zi+HKwPmCDU2RnrmU730gWUez4CsMc629jCh2i74uPztSDeAhD8OC44OzgCdU6PyPKf03uOeH8cBUXdP4RRL8nR0Xp97DsRXouviHKm/CLBJ2LlTQJ850YTEBu9p/O1BN9G+oMnA7GnDwcRO8af1DDnRGW+mMrm7o3l3+tcL+3Yon+mLwfpgW9Pvq7jWoiHtIcr6dwWenvVMmCPoR3s5RtGsy8Q/Kta/c37VeP0iJy7pSwi0q0j+IKQs4GnUkeuf5llLubpAN0/R9XteT1xmB2SR95VlH0mVXbi4NVlrmlCr4+lI+SyKU09EcjdL8va/reRnyD3fKzVmuWgz/Nx6j6+flTaSzu26K/py6yL28t+tgXUEbzvU8KG9UynW8gdZfSJAOzxOB+k7YqP+9SMaQLB71UyaNcqBEpOzyydkbvfSBKuCf4SouER9V+TWdrD9eXK9+5jEq4dWILg071yIhFbgz9ft8SecHrQjj/zeVnXect0qF3sPDmNKUTuGuevycN590p7aMNWfTN9KdgEbYeZ+oJtavvMlvw+0fU/liW/QvtvsFMO6zftqBPuyZ/Oz/f1nZJsWNc43UruKKdPBGrs0dhL7IlsZiyqW47KT6mt3rH+ffHS0Ez5vg33bVfcVu4facII9gWC36fNolUrEcg6vYAIW+cyL7fJOKUqp2dIulqW87Ik30TdM+X7y28aCb6cpBgClovAW4JvnyRYJx0+VUhMJArkjp3hmpQd6ZXSlSrdze1Z2/roBhF8SbSX60JpFx259SXZMe2p77a/TBP26xJ8UhQjI5F2ozxoyOYI1Nijsb8Ggj+PhcrXp863lr/cH5w7EdB2xcebC3WjAkHwNwISxfSFQLXTUw6MHVVIdtPbYWadXkP5pu6aCL6XRzi8YOJSIvhiEhKdlIwRwc852dy1vjR2nNbU2FYrwW+N+DuCEE4AqCx+SnBHgs86z+k4moWWLkGgxh55XKv95ktqTEudby0/PtappwAd7hhHWLNdcbpEZkfdA4J/FNKo51AEqp1eAwFPObfUeUdCBAmn+tZE8H/ndtHRhF4fy3bQNUHwP/v5z49WDS65+2VZ2/9m56lTrUR0nfPoa3ScuxbLj3NlBAymMbsR53KE/RVZGtM6IXC2tTSCT8t6fk//ijZTmekJwfY67vqwXdms7zotSxU5RkWgxh5J12icCpZiZsaiqqfVwn5ayy8+rc6OdZ/NJualpbmxSo11JpglN6OoD2Rpu+LjXnUHBL9XyaBdqxCodXrRQXZDp9dafuj02qIa5JTdy7cNTs84arskZ47yxB7pCoce7dtG10l+7Dw5jSkEX5P5KZ8+jt2Lc8sQMJhvJGfWofyE4D/T/7L1Ecl3H62SS4PihN0u46F7ZF5qSzz/dgSc+7tXKvXeyGmZiHHXQAjU2SN2jLPffKEx8fOtF+lTKse60ewLBH8gQ0ZT6xGoc3rjDNzVhCBYprO0j/VRjeq2SYda+M3kRKdaA/g6n6djfY6vId0GAYNvUn7+C6+pF2fpvCbXrEdyiQ2f2zalNtILtjr6fw2CT1JmG+B0G8mjlB4RyNuj9f8UXbeBHxX00cEsIrofH1pKXSDpPjvGsT3ptEe9oDaB4PcqGbRrFQLGAJMkZCnpHeM+58xXtFc7/oOx5MHFOKmvtJtiR7tKWXBzEwLb2tb6CYF9sdZF8P1JhXvh1k4SfFJvnxy4JwSI4DepAjJ3gEDJHs3SGd7Bjfw4kXhe2rKFnzdLXtw202ZpD9eXK9+7Ty2jmccb+1TZm0zQtSCQZSPzPG6YlPsodpNbu2Mcl09iN7h3IP9cE9IjZ+4uXAMCnSNgjG92EiuILspo3ot7i2grO0+darXj6/o8jvdDoNa2/hXLZhzpDrem3EJfUmX4hN0n93yPJfm2XX7+8fwG24NO99MGlHw2All7DIiw1Wki/WYjiQwBr1qDb0i6/y4X2dW8VDRTfrgcNSxneiUIvpykmDFaPZnwxm1L/rfYMU7bFR+frQOp+kHwU8jg/NAIZJ2eZ/zjDeJMTK6ckvzYeXI6tEJeqPE1tkXknneykXoaX35Da+JTEfh4ObLMtgh+3t6vQPDZXji9kOqhKxEEauzRtxdhAwkCPk8A1FiZOt9avslfE8H38oh2BxOXEsEXk4fopKRuSSphzXbFaUQk3ZwCwe9GFGjIlgiscnrKqSWdF/LtFt1n56nTLXUEZS1DoMa22gi+GLgDmwq3wQztkSYI4Y44Yb5cPfbaFQg+SRV2s0y3R7yrxh6TttAzwc/uoqMJvT6Wtk7XBMHnHYX4Y1zG5+Tud2Vpu+LjXvUGBL9XyaBdqxBY5fQCkuEMPOkocc+mZJ/kx86T01UKgZs3Q6DWtrZZolNL8Nc8AXD2fQWCz/bC6WaCR0FdIlBrj9GxK0HwKW/VEp3SuJcpP1yiY30+9cf8F/bBn5cBFQl6SPB56U/rjnHcNlIEg3uXGuEaBYLvsMCvCyFgjK/kfHB9U1IeHUAWYszOU6cXUtFhuwLbchOCLXV+i7K0vfDxsMqGhhcRuK09Bst0ltpl3fIcsk+2J50WhXRSBhD8k4BHtfsiQAaI//ExIC1hZ7qvxqD0WgSMPBZO3LYgsSgjTWTY58FuarV5/Hx3tkd6JyDYYafVN+WeMqiyRrMvEPzx7Rs9iCBwZ6d3BQJk5CfIPR9HRI1TByMA20oT7LNtj+1EpwerCKo7EAHY43H2qO2Kjw8Ud1NVIPhNcCHzKAjA6R3n9PYgNSQ/dp6cjqJ7V28nbKtf24LdXN36wv7BHo+zx9HsCwQ/tBecuQACcHrHOb29CD6poZGjSC+gmsN3odW24ltjOv2Mv4zLH6iiHXL4N92T2lKTd9GpeSnX1b2H7p5ZprYXPh5e6dCBJALV9kh7x/MHqHjpSWZ5St1LtnafemqD///58FWmfGsnqfs/5en2zjvg6Prssd3rfj/7ZnvSaVI4J18AwT9ZAKh+HwSMAbITQ9rty7QpMsSDBWkHO9N9NAWltiLQZltMyN3XYlMyn170ISr9ISxN8OXgTV/B1flB8NleOG2VL/KPhUC1PTYQ/NR+96nzxqYbyk/7AGHf9BJtguDvTeRT7SOs2a447VlbQPB7lg7athiBaqcH8t8l+WfnqdPFCoEbN0Og3raIsNsPVdmvxcpIvBjIPzZo87hIvPv6beq+VoIvv2T7nN7Bx7X+md6vv7u0hxTh0Oe1vfDxZsJHQd0hUG2PDQQ8ReRT540eNpSv9TZ63CnBJwVgu+K0O6X4NAgEv1fJoF2rEKh2eiD4XRIakh87T05XKQRu3gyBkm25JTc6as/RfNqzXkfeiXD/M08I3ICfjuDbCYGuIxfB1wRfTxws6Y99gde1J5yY9HQNdrOZmg9TUMkeWT+JnH99/zn9yDEvs4SmbomOs4fW8k27aFIQLO8Ry28QwV+lhyD4q+DDzb0iUHR6MccyOz9aF/hZQ8jO0HzeWjiewCnFvpTn8vMjRXKCtK1XMhKSiFq8H3757LQ5Nc41aNOn/oSTTDrWSH6u56jUyG+gSEmvdrBHu4q2xTZTndpI/9vkt5MAR7JTBJ8nC5qkU1TffvTKlcEkpETwKZ/Mw/eNk8Ju9tD4vsuss8fH9Pz+c3rrbSXFOMhjFPt4PUbpY85nU15Lr8apTPn+/REbo3sjY1G+HZFyqv1Q+d7R7AsEv2/bResWIlDn9KRBWwdooxsRgr/CSUiHRL/3Ivir9wOmPiYmGEVnvAKfWNkkP+1MF6oCbtsYgXbbknamf1uibsk9X5PnUgSfiDxF7znle9dE8KkMWTeXOU4Ku9lY2QcorsYeedyZXvRVVxG80hF8QchZl1KpN97QfRQg45THA10+n4+mcgz+NU2Je6kvqTbFJgSx8WXpOa6X1IJ+9/7Xfwt7RxDt6xIBY3xRJ5IarKVzSRF8G6WIOrZMXUcRfHY+OtWRmfkz3Q0R/6UOcel97Dx12qWy3axRRiZJfXcRdI6kp1Kf1KfsMnbej7LbJUG85AcEn9QRdnMfo8zbo31a7BFfScITJLrJb5un227SYJb2cOS9qXw5BqcJflPbkn4q5lfK57Rd8XGv2gaC36tk0K5VCJScHkUHKI/3n1ui83EU5LwCgs/OTDgTHWV4/Ppzen7qo/sl6fcclmmXc5Z8rWaJjtcu0RYuoypFBH+V3t3h5qJtKd0rbZPp9DL24utr8icCRO71spxfE5F8mw8E38hHkPw76OSd+5i1R/Ln87jmCOw8/mQIeNUafEPu1bKc169pHicz5Tu753Ypgq/8SJif7zsuZb5A+sZ21rPugeD3LB20bTECWadHjiPreFIR/JCYz45SOSM6HyPcfD5+H9X7x/T4VpMI4zBDJyodHpcrzy363RHBJ+GzE+V0sULgxs0QKNqWsoU6gp9aipM6nxrU1xJ8/+nAIhtS/f//9q4uaXIUB15t3ud53+d9LlGX2Ev0KeYSfYm5RG2o+LSA+BMGY0FlR3RQ9gcYJ1IqkSnXyj7YT2Q5bfLRkTkEev0xssdCHMzHpzT+RX3l7L7Q/6ddLskmk25BUiyblKvVz41n8Jz0Kz42ZxQ/A4LAtzozGNcQAk3SqxHPKyPwFWQUCvqS4ObzWQKla9DTgE9WJM7iazL4dM/Z/2EGR3Ef3Ed4P00iHyRO2T+PgYyAPuOfHQQ+89Ex3/sIfLxFx46VYSRaBHr9MeLaQhzMxqefH5lKt3yWFtutRFqlXQe/RPdzc7vd4hIip9aLUG8rBJqkVyA2RxYZgd9JHCzkJfnw+YRAhainv4evNGsJ/PA6Sd+dYw/7eurzZ/4Ccc/HWxnhoYNt+pawN53Ap2Cf26KTbsep22RPBt+9bcd/RwDvwT/UZI++rV5/jPynEgdVW3SEr0d9098q/Sd1W30Z+DvHIVlaNTAIfKszg3ENIdAkvWImmzLncwQ+jcH/d1tssgJfiHsmvo/I/9nfP1vgW18EMG5kBJ+5HLIGNJ6JwGc+DARb9hOUPhMKv5lp6Xv0BX/09n83F+zmXxD4e/gwRtmJwBjpCYFfXAyEAt59bm1ryQp8hVgqCvyLY9tB4NOUf+YxKDvNANVvQGDMt9YF47uDvcX+pb/w8Q1mgC6NIAB/XMcp7E+yNGIKyTAg8BNIcOIEBMZITwh8hQDXBvvpAv/i2HYQ+LuQ6An+0nMPY761LhhrffKkejQ38Jsea96/LvxxHafs5l8Q+Pv7N+4gg8AY6X2HwGeySsrwS7kXFxCjoukzf0Hmno8zU41TixH4zMVDdjFqV6e3Zz+R5WITweUWIgB/XCvwaWp38S8I/IWOiEutQwCkt4707hBNNH+7kOg6q7ZxpV7fan3J1v1QVfqF138+iwjNazLjH9cK35v/O/POfGev9DpM/nEs7yvl+r7OHfY+q0/4jQ0fWTkKjT+SD/ovk8e+9t/Xn29pf/r67pef077/fv/++G/tS+97+FSIzW7+BYG/0hNxrWUIaEgvdFx8tkW2n/nbKFOyzLANXKjPt1gA/PX+t5n1z4nulsCX762P65cFe+5a9INZvW/tgd8YMMmvHoLGH0mwhwvf6/GuJthpoS0XzbX6tnxHg8lucQkC/6up4dyb15CexqFR5xkSpvmTZHqute51Z3rfIhH9elOG0GUE6+LZ1fGZP58VrLVLBQT1w1nJsmA/V+DDb/byp9HRavyxV+A7X4wz/eyP7FtpbOwV+OHiPP+K3F+ZpwvpddfFKMJ6J/+CwB/1LrQ3iYCG9J4kCly7TsqSRPnYpLF92aBavuW33MisPWfzSTjITB8FeBLmbkHg/SPOyPvzbD+hSKBzcf2ywCcxwosJ7gsZ/C8z5SNut+WP5DM1wZ76oqvfm/F315A+ny7AvQ+Hvuv8323LY390or+8oOB660qOQ7K0akgQ+FZnBuMaQmCU9HKkUiPJuH4oZMIsCAuKGumtIytPtPauSfO3C4kOGeqGjTW+1WdbFOhfP1sInO94f4oFe75f154zjKEwyQt816e/prf/fH3/9/z17fwdfrOhQw0Oeb4/thYEUsST/XPMk0/b/PdjvE+zv7QEPtUL63C758rd/AsCf9C50NwmAhrSI8EeioHrwbsm2HsfWz5HXtfvf/6YP/OHPfgmnUvjW3pbcsIg9sPwnBPjcWZv1N7YJ1PxcILAJ6OR/mPSkDCoKQjU/dELbF4Al8rYB72PUZxMxbn/u/N1ug4Jfy7577XYGPpfLoNPfYRcwH0+V0q/4uMpE3lDJxD4N4CKLp9HoE56jiB6Bb4+gx8SEIuJ+FyZMCXphU8A6DMtStK3HugFVTgOu59p/pg8uXzeqjACQqDuW+OCot+WnQjICxeZUQz9izOVPiN5gsBnf+ESVns2AnV/7OX4K/4b+5Tbosdb8M4T+OxXXFq2Lgh8y7ODsV1GQEN6NcGOfYm9gWFufSZPWV42CDSchoDGt0KRrssAkv24PbdSqJcyi+E1Sp9jwR4LEW7jeMAJkrj+XJvm691ZSn/h42mTj47MIaD1R//dmDBpxEL8qq2TT8lFNH2XhbfcnSfwyQDYr7g0ZxQ/A4LAtzozGNcQAlrS6wm29QWBzwL6PjmzKAnQZ0nSTH4oQkqPLcM6V4nZdjuaPyZPLocMAo2nIdDrWzqBX9qKUzof2i/7WShc+LP0vbBd+vkEgc/+wuW0iUdHJhHQ+CMJ7jTWuCdY6fmaP+X78TFP+tSowLcV6whr9isuTRrFz6Ag8C3PDsZ2GYE66XmBLbOF8riUPdSJFrrO+fsSy+QuyV5/zOQpy8sGgYbTEKj7VjrHOl8pCfnS+fA6VIe/wB6e7/98gsCniYbfTDN38x1p/LFP4Nf8pibYc+1q9UPxnktmuSd66QIkd50156Rf8bFVI4HAtzozGNcQAhrS0wvTKwuCkLzcI0u/7WeE9IjIXIaltPjQ39caUrwyHpo/Jk8uhwwCjach0OtbOoFPtpjboqPJwDt/kItzPu4RCCcIfPYXLqdNPDoyiYDWH+ds0anFrlw8qdUPY2Te961934ywZr/i0qRR/AwKAt/y7GBslxFYS3qS2Ii4UmFy6r7EKwK+1YbJU5aXDQINpyGg9a3WHOPvkjfGj6W/8PG0yUdH5hCAP477jZaL2J9kac4ofgYEgW91ZjCuIQQ0pNf32HJelvD96slqpAsFa+8G1pJjTz2av11IdMhQN2ys8a2euUbdeQIFfrOhQw0OGf44z39aXLSbf0HgDzoXmttEQEN6fQK/RiI1wZ5rV6svH1tKgW9vX2KLFK/8/TN/2Ets0rk0vnVlztEmxxV95+A3Jl3m1kHBH/t8ZIRndvMvCPxbXQ+dP4WAlvSwL3EdOfYQK82fJNOnbAnXjRHQ+lbPfKPuHD+E38S2+g1H8Mc5vqPhoN38CwL/GxjgC+8RpLeO9DTE2FvnM3/I4Jv0XPiWXd+C35h0mVsHpfFH+qI7f+lclrkvoffWj/k9filF+DKI8pfY6cl1+k7+cv1nfHA3/4LAv9X10PlTCGhILyalZwgDY8jjTvMnyfQpW8J1YwTgW3mbteDL8JvYVr/hSOOPJNhDoX3dVmvbS8kvwi2mdEzfXfPbTMuCfR+Bv1NcgsD/Bgb4wnvUkN51krMb4E+5J0mifPyFpmzulmku8N8uBmQw7C9cmjMiDGgaAp85ftVjUq/Av57BTxcA1Bc/JThB4O/kXxD409wMHVlCQEN6p4jhE++D5o/FCZeW7AtjSRHgeULpwqoVHNKZwpmTEPjYmULgy605/jjdGtO7IPAx6GoGn7b1pD9WV14Q1Bc0fjxz6xHW0q8t2xIEvuXZwdguIzBKepxxCInielaDSObcfYkhRrM+SxLl48sGgYa3IsDzg9KWuOf5uHXy0fmjCHzmuCHwe3m5Fuvcr7PXhDOJ/Nf/9/yHW4Pygt1t46E2YV0ac75+7dr3/o39SZaPGkDl4hD4FXDwp30R0JDe9SyFJJH0sWRMqFezGnvsS4zvVWJz7ZjmbxcS3ddL5o5czheObYj9ubOM3qwh8PGzosCPE0s+a+8FOJ+T4pp5neJkLuHFfx8vaYz0FEHGSZsCX/J0bqIYAAAMxElEQVSaNXsIxwOBH6KBz8cgUCc9Jzp7BX4tq1EnwHQBEJJmOUvx3QKfjHEnMj3GeS7ciJwnHNsQ9zwPF6YUTTZB4DPHRYHfm2AZXxC4L9amCwi3kPBfuHULg1jUuxj71/vfn/spx8be+5pTn/1JllZNBQLf6sxgXEMIaEivJthdRiEmBapfynLUsxgxienfLEBka39fYv3eYwy1dWn+diHRIUNFYyAABIDAAAKaWEe8O+c3X67xOfN+LNhlXHR9u7jsvhcQ1x+7No9hpNwtLkHgDzgWmtpFQEt6Pc5eXxD4rEO+TyIzn9UIFwp5EttnX2L+fsfIWIp7PrZrcRgZEAACQGA9AppY1/er7RR7fKziLTxc1p9WE+/X2ssMfj1O5GNjvc0d8Yj75Dgky/WzrrsiBL4OJ9TaDIE66Y0/hiSx3ya6ESLaZ18ik9/MkuZvFxLdzDUwXCAABA5CoB7rXAzqE/i1uJVuN015nwR++uQ5rVe7Do+7b0Fw5Ro9bXaLSxD4Bzk6bsUjoCE9vWOPLwj6shrxo0v35MA/IbCW1dDj2CZ07kuKez72M4xPQAAIAAEgoI11c7boaAX+yBMAHyesxTqOQ7K0aoUQ+FZnBuMaQmAt6XlCYoHaU8YkFot77sfyvkQe48yS5m8XEh0yVDQGAkAACAwgoI11M/n5W/vaLS5B4A84FpraRUBDen2PLWv7Cl+K7Tq19n2PIeMFwdjiwipRS3HPx3YtDiMDAkAACKxHQBPrrPL8buPiOCTL9bOuuyIEvg4n1NoMAQ3p9Qn8mpDWPrY8c1/iHSRN87cLiW7mGhguEAACByGgiXV3cPQ39rlbXILAP8jRcSseAS3pYV9ibeHy3N+kuOdjP8P4BASAABAAAtpY942CfPY9cxySpVUrhMC3OjMY1xACIL3nxPkMUqX524VEhwwVjYEAEAACAwj0xrrWG+DySS/eRkpbTfkzxZjS1lN+Wq15ur1PrNotLkHgDzgWmtpFoJf0ZohS9DGPqKW452O7FoeRAQEgAATWI9AX61iQ+7eyleMWvfDB/eCUryMFfsj5/Grn+Ny9r5MOr3X/Z45Dslw/67orQuDrcEKtzRDoI737icETJK6lwYLmbxcS3cw1MFwgAAQOQkAf69yPLZLgdm9lCzPxaVxydXwmnn/o6hVl8MN2vQI/fGPcf96/kh/Xol+O//OtiRer6uwWlyDwD3J03IpHQE96IUHh8yqibF1Hins+9jOMT0AACAABINCKdX7Ljczaczaf3lkvM/UkuOnHHOUb4soZfLcgkNeobdGRAl8uOJzot/QEgOOQLK1aIQS+1ZnBuIYQaJGeFJjYl2hrcUPztwuJDhkqGgMBIAAEBhDojXUy9qXHLtP/60UxwS0CvMguCXxeLEiR7n8k0vfBsaYl8KleWIfbPVfuFpcg8AccC03tItBHekxOMvuQIxIiHJntKJEete99bJm75vedk+Kej+1aHEYGBIAAEFiPQF+sa8USFwuduOe64blSrKM4R/GTS247ksGnPsJrc5/PlRyHZLl+1nVXhMDX4YRamyGgJz2XrcC+xOdIM80g/fHJ3u9Copu5BoYLBIDAQQjUY53PoPs99LQlJ/0fi/qeeBBn2d2WIE6CnSfwd4pLEPgHOTpuxSNQJ70/3tiX2EPg6+tKEuVjP8P4BASAABAAAq1YJxMore2ovn7ui6+vd7wQIHEvt+W4+OrqnSfwyeI4HnFp1Qoh8K3ODMY1hEAv6XlSK4lZl+l3pOUeG/o9haXHlq5e+tYBn1XxffB1w2yI+6LTP5+9kPx3KsM64flzPtP8MXlyOWQQaAwEgAAQOBCB3linE/i1mJYK+nL8HBX4tmLdbnEJAv9Ah8ct/aywE2F8VQA7oR5nLsJzJTLk/Yhc8vVHSS+8Nvd5VsmiXpawbSAABIAAEPAInCvw8RYdP8vXPkHgX8MNrYwjUCc9n0HP7UUMz8WivkdEx5mHk/cllrM3PXjFdWn+IO6NOxmGBwSAwOMI1GNdzKvE1boMPrXLbdHpyd5THz3JLPm9ALwHf9S4IPBHEUR7kwisJb3v3pd4l8Anw4LIN+leGBQQAAJGEOiNdXfw9bf0KeMRHxsxhWQYEPgJJDhxAgK9pKfLapS24pTOp9kTR4Q9WY1cxiR+OnAiudL8MXlyeYJd4h6AABAAAjMR6I11J8aLVfe0W1yCwJ/paejLDAK9pLePwLe3L/EOcmVRL0szBoaBAAEgAAQMINAb6+7g62/pU8YjPjZgBtkhQOBnYcHJ3RHoJT2dwMe+xFVETvPH5Mnl7jaJ8QMBIAAEZiPQG+tWcfiJ19ktLkHgz/Y29GcCAZBeaXvQHudZ1MvShHFhEEAACAABIwj0xrpWMsv/Rkz4pVfeKqrZjhq/xCJ8UcXvzDvz3UKAtp3yj2P5GFWu7+usXEjIeMTHRkwhGQYEfgIJTpyAQC/prSQJXKtNzjR/TJ5cnmCXuAcgAASAwEwE+mKde8Xy6/XX+9/ma6Rzorsl8OX3w+L6ZcGeuxb9YBYvLNoxY0Vc3S0uQeDP9DT0ZQaBPtKzQR4rCGqXa7Col6UZA8NAgAAQAAIGENDHOhLRrzf9uCJl8dMfYIzjoKvz9/v3ZyEQZuVrojt9gUT4xKAs2PcR+DTlu8QlCHwDDoohzEdAT3oxqe0igE8fJ83fLiQ633rRIxAAAkBAh0Ar1vktNzJrz9l82oojt8e4X1HnBYGPN3FG3p/nOHo1g08LCF5McF/I4OssoFwLAr+MDf6yMQIt0pPEFGYZ5N/o2JMk9iXm8Jl9Top7Pt7YJDF0IAAEgMB0BHpjXZurXabf7Z13iwDK+rt2LYFP4ty15x+MbO/Bd33SYiKsS9crZ/z9IqB9P/PqchyS5fRJndQhBP4kINGNLQT6SM+RGPYlziPCUdKl+duFRG1ZPkYDBIDANyHQF+taHO9iYSy0w3NOjP/T3L/fuk74d8re0xMEmf23KfB3iksQ+N/EBF90r3rSc9kG7EsMCff5z5JE+fiLTBi3CgSAABBoIlCPdeHe+fDpc/o5FvUjMYATZuk10n3/sah3+/79ViJk8JvTX60AgV+FB3/cFYE66YVbbjyZ+EeQTEzYlziaib/anuaPRT2Xu9oixg0EgAAQuAuBVqyTHNzajurrux9V5K02XI4sBGLBHot7vq4T+S72xvVHFh1z2u4WlyDw7/I69PsoAr2kx+RSLl2m35Gby1BgX+Ic0sxhzqJelo8aFS4OBIAAEDCGQG+s0wn80lac0vkwFvRk8MN26WeLAp+mf5e4BIFvzFkxnDkI9JJeTmT6c46w4sxFeE5Deil5+f5zf9tnX2L9PnL31j5H87cLic6xWPQCBIAAEOhHoDfWrRH46RtxrsQJiwJ/p7gEgd/vT2ixAQJ10sO+xCtku7KNJFE+3sD0MEQgAASAwDIE6rEuTaboBD61y23Rqb0Dn69Vy+C79/BrY4lFgU8Ty/GIy2WT3XkhCPxOwFB9DwTWkl76ei8tgVG9mMT225fYc6/aujR/TJ5c7mF5GCUQAAJAYB0CvbFOy8GoxwsWX+4WlyDw1/khrrQQgV7S02U1SltxSuc9MbxftayGJivi+4oXBP78SYTMol6WC00IlwICQAAImEegN9adFCdW34uMR3xs1Ugg8K3ODMY1hEAv6a0R+GfuS7yDZGn+mDy5HDIINAYCQAAIHIhAb6y7g6+/pc/d4hIE/oEOj1v62SPX8WMcOoFP2XLsS1xB5izqZQnbBgJAAAgAAY8ABP66p9gyHvGxnw1bnyDwbc0HRjMRARDfOuKbKfqZNGU50TTQFRAAAkDgCAQQ59bFOcJ6p7gEgX+Ei+MmcgiA+NYR32yBL0mUj3PzjHNAAAgAgW9FAHFuXZzjOCRLq7YHgW91ZjCuYQRAfOuIb7bAp8nfhUSHDRUdAAEgAAQuIkA8if9rMaCp4vh0cdqWNIPAXwIzLvIUAh8n7NiLP1Oooq/+BQaTZql8yo5wXSAABIDALgiU+BPnneSdjYNVu4DAtzozGNc0BD7ODJH/tr7gaJHuNINAR0AACACBwxFo8Sn+PkfsWzYjCHzLs4OxTUOAyIz/Wxe63zQ+npNWsJlmCOgICAABIHA4Ai0+xd/niHvG0ao5QeBbnRmM6zYEyCnx3wYGNMlMkq3yNoNAx0AACACBwxBo8Sn+PkfkWzYbCHzLs4Ox3YYAyG0Oua3C8TZDQMdAAAgAASAABA5EAAL/wEnFLekQWCVOcZ2xxYRuNlELCAABIAAEgAAQYAQg8BkJlF+JAMT3mPi+G7+vNErcNBAAAkAACACBQQQg8AcBRPNzELhbrKJ/3WLiHIvCnQABIAAEgAAQeAaB/wGjKne28SZbmQAAAABJRU5ErkJggg==;" vertex="1" parent="1">
          <mxGeometry x="80" y="160" width="760" height="794" as="geometry" />
        </mxCell>
      </root>
    </mxGraphModel>
  </diagram>
</mxfile>
